<svg width="1198" height="659" viewBox="0 0 1198 659" fill="none" xmlns="http://www.w3.org/2000/svg">
<foreignObject x="-24" y="-23.9998" width="1245.55" height="706.607"><div xmlns="http://www.w3.org/1999/xhtml" style="backdrop-filter:blur(12px);clip-path:url(#bgblur_0_1100_4414_clip_path);height:100%;width:100%"></div></foreignObject><g data-figma-bg-blur-radius="24">
<mask id="path-1-inside-1_1100_4414" fill="white">
<path d="M86.666 636.249C86.666 623.901 76.6558 613.891 64.3076 613.891H22.3604C10.0122 613.891 0.00195312 623.901 0.00195312 636.249V658.607C0.00195312 658.607 0.00170898 658.608 0.00146484 658.608C0.0012207 658.608 0.000976562 658.607 0.000976562 658.607V24.0002C0.000976562 10.7454 10.7461 0.000183105 24.001 0.000183105H379.386C392.641 0.000183105 403.386 10.7454 403.386 24.0002V38.6027C403.386 51.8575 414.131 62.6027 427.386 62.6027H1091.51C1097.86 62.6027 1103.01 57.4547 1103.01 51.1042C1103.01 44.7537 1108.15 39.6057 1114.5 39.6057H1173.55C1186.8 39.6057 1197.55 50.3508 1197.55 63.6057V569.036C1197.55 579.697 1188.91 588.339 1178.25 588.339C1167.59 588.339 1158.94 596.981 1158.94 607.642V634.608C1158.94 647.862 1148.2 658.608 1134.94 658.608H109.024C96.6761 658.608 86.666 648.597 86.666 636.249ZM25.2129 76.4846C25.2129 69.5228 19.5692 63.8791 12.6074 63.8791C5.64563 63.8791 0.00195312 69.5228 0.00195312 76.4846V191.811C0.00195312 198.773 5.64563 204.416 12.6074 204.416C19.5692 204.416 25.2129 198.773 25.2129 191.811V76.4846Z"/>
</mask>
<path d="M86.666 636.249C86.666 623.901 76.6558 613.891 64.3076 613.891H22.3604C10.0122 613.891 0.00195312 623.901 0.00195312 636.249V658.607C0.00195312 658.607 0.00170898 658.608 0.00146484 658.608C0.0012207 658.608 0.000976562 658.607 0.000976562 658.607V24.0002C0.000976562 10.7454 10.7461 0.000183105 24.001 0.000183105H379.386C392.641 0.000183105 403.386 10.7454 403.386 24.0002V38.6027C403.386 51.8575 414.131 62.6027 427.386 62.6027H1091.51C1097.86 62.6027 1103.01 57.4547 1103.01 51.1042C1103.01 44.7537 1108.15 39.6057 1114.5 39.6057H1173.55C1186.8 39.6057 1197.55 50.3508 1197.55 63.6057V569.036C1197.55 579.697 1188.91 588.339 1178.25 588.339C1167.59 588.339 1158.94 596.981 1158.94 607.642V634.608C1158.94 647.862 1148.2 658.608 1134.94 658.608H109.024C96.6761 658.608 86.666 648.597 86.666 636.249ZM25.2129 76.4846C25.2129 69.5228 19.5692 63.8791 12.6074 63.8791C5.64563 63.8791 0.00195312 69.5228 0.00195312 76.4846V191.811C0.00195312 198.773 5.64563 204.416 12.6074 204.416C19.5692 204.416 25.2129 198.773 25.2129 191.811V76.4846Z" fill="#7136B1"/>
<path d="M64.3076 613.891V612.891H22.3604V613.891V614.891H64.3076V613.891ZM0.00195312 636.249H-0.998047V658.607H0.00195312H1.00195V636.249H0.00195312ZM0.000976562 658.607H1.00098V24.0002H0.000976562H-0.999023V658.607H0.000976562ZM24.001 0.000183105V1.00018H379.386V0.000183105V-0.999817H24.001V0.000183105ZM403.386 24.0002H402.386V38.6027H403.386H404.386V24.0002H403.386ZM427.386 62.6027V63.6027H1091.51V62.6027V61.6027H427.386V62.6027ZM1114.5 39.6057V40.6057H1173.55V39.6057V38.6057H1114.5V39.6057ZM1197.55 63.6057H1196.55V569.036H1197.55H1198.55V63.6057H1197.55ZM1158.94 607.642H1157.94V634.608H1158.94H1159.94V607.642H1158.94ZM1134.94 658.608V657.608H109.024V658.608V659.608H1134.94V658.608ZM0.00195312 76.4846H-0.998047V191.811H0.00195312H1.00195V76.4846H0.00195312ZM25.2129 191.811H26.2129V76.4846H25.2129H24.2129V191.811H25.2129ZM12.6074 204.416V205.416C20.1215 205.416 26.2129 199.325 26.2129 191.811H25.2129H24.2129C24.2129 198.22 19.017 203.416 12.6074 203.416V204.416ZM0.00195312 191.811H-0.998047C-0.998047 199.325 5.09338 205.416 12.6074 205.416V204.416V203.416C6.19788 203.416 1.00195 198.22 1.00195 191.811H0.00195312ZM12.6074 63.8791V62.8791C5.09338 62.8791 -0.998047 68.9705 -0.998047 76.4846H0.00195312H1.00195C1.00195 70.075 6.19788 64.8791 12.6074 64.8791V63.8791ZM12.6074 63.8791V64.8791C19.017 64.8791 24.2129 70.075 24.2129 76.4846H25.2129H26.2129C26.2129 68.9705 20.1215 62.8791 12.6074 62.8791V63.8791ZM109.024 658.608V657.608C97.2285 657.608 87.666 648.045 87.666 636.249H86.666H85.666C85.666 649.15 96.1239 659.608 109.024 659.608V658.608ZM1158.94 634.608H1157.94C1157.94 647.31 1147.65 657.608 1134.94 657.608V658.608V659.608C1148.75 659.608 1159.94 648.415 1159.94 634.608H1158.94ZM1178.25 588.339V587.339C1167.03 587.339 1157.94 596.429 1157.94 607.642H1158.94H1159.94C1159.94 597.533 1168.14 589.339 1178.25 589.339V588.339ZM1197.55 569.036H1196.55C1196.55 579.145 1188.35 587.339 1178.25 587.339V588.339V589.339C1189.46 589.339 1198.55 580.249 1198.55 569.036H1197.55ZM1173.55 39.6057V40.6057C1186.25 40.6057 1196.55 50.9031 1196.55 63.6057H1197.55H1198.55C1198.55 49.7985 1187.36 38.6057 1173.55 38.6057V39.6057ZM1103.01 51.1042H1104.01C1104.01 45.306 1108.71 40.6057 1114.5 40.6057V39.6057V38.6057C1107.6 38.6057 1102.01 44.2014 1102.01 51.1042H1103.01ZM1091.51 62.6027V63.6027C1098.41 63.6027 1104.01 58.007 1104.01 51.1042H1103.01H1102.01C1102.01 56.9023 1097.31 61.6027 1091.51 61.6027V62.6027ZM403.386 38.6027H402.386C402.386 52.4099 413.579 63.6027 427.386 63.6027V62.6027V61.6027C414.683 61.6027 404.386 51.3053 404.386 38.6027H403.386ZM379.386 0.000183105V1.00018C392.088 1.00018 402.386 11.2976 402.386 24.0002H403.386H404.386C404.386 10.1931 393.193 -0.999817 379.386 -0.999817V0.000183105ZM0.000976562 24.0002H1.00098C1.00098 11.2977 11.2985 1.00018 24.001 1.00018V0.000183105V-0.999817C10.1938 -0.999817 -0.999023 10.1931 -0.999023 24.0002H0.000976562ZM0.00146484 658.608V657.608C0.553467 657.608 1.00098 658.055 1.00098 658.607H0.000976562H-0.999023C-0.999023 659.16 -0.551147 659.608 0.00146484 659.608V658.608ZM0.00195312 658.607H-0.998047C-0.998047 658.054 -0.549194 657.608 0.00146484 657.608V658.608V659.608C0.552612 659.608 1.00195 659.161 1.00195 658.607H0.00195312ZM22.3604 613.891V612.891C9.45984 612.891 -0.998047 623.349 -0.998047 636.249H0.00195312H1.00195C1.00195 624.453 10.5645 614.891 22.3604 614.891V613.891ZM64.3076 613.891V614.891C76.1035 614.891 85.666 624.453 85.666 636.249H86.666H87.666C87.666 623.349 77.2081 612.891 64.3076 612.891V613.891Z" fill="#C5AFDF" fill-opacity="0.1" mask="url(#path-1-inside-1_1100_4414)"/>
</g>
<defs>
<clipPath id="bgblur_0_1100_4414_clip_path" transform="translate(24 23.9998)"><path d="M86.666 636.249C86.666 623.901 76.6558 613.891 64.3076 613.891H22.3604C10.0122 613.891 0.00195312 623.901 0.00195312 636.249V658.607C0.00195312 658.607 0.00170898 658.608 0.00146484 658.608C0.0012207 658.608 0.000976562 658.607 0.000976562 658.607V24.0002C0.000976562 10.7454 10.7461 0.000183105 24.001 0.000183105H379.386C392.641 0.000183105 403.386 10.7454 403.386 24.0002V38.6027C403.386 51.8575 414.131 62.6027 427.386 62.6027H1091.51C1097.86 62.6027 1103.01 57.4547 1103.01 51.1042C1103.01 44.7537 1108.15 39.6057 1114.5 39.6057H1173.55C1186.8 39.6057 1197.55 50.3508 1197.55 63.6057V569.036C1197.55 579.697 1188.91 588.339 1178.25 588.339C1167.59 588.339 1158.94 596.981 1158.94 607.642V634.608C1158.94 647.862 1148.2 658.608 1134.94 658.608H109.024C96.6761 658.608 86.666 648.597 86.666 636.249ZM25.2129 76.4846C25.2129 69.5228 19.5692 63.8791 12.6074 63.8791C5.64563 63.8791 0.00195312 69.5228 0.00195312 76.4846V191.811C0.00195312 198.773 5.64563 204.416 12.6074 204.416C19.5692 204.416 25.2129 198.773 25.2129 191.811V76.4846Z"/>
</clipPath></defs>
</svg>
