<svg width="1577" height="859" viewBox="0 0 1577 859" fill="none" xmlns="http://www.w3.org/2000/svg">
<path d="M110.416 824.678C110.416 811.423 99.6709 800.678 86.416 800.678H20.002C6.74707 800.678 -3.99805 811.423 -3.99805 824.678V858.999C-3.99805 859 -3.99854 859 -3.99902 859C-3.99951 859 -4 859 -4 858.999V283.256C-4 274.065 3.45068 266.614 12.6416 266.614C21.8325 266.614 29.2832 259.164 29.2832 249.973V99.958C29.2832 90.7671 21.8325 83.3164 12.6416 83.3164C3.45068 83.3164 -4 75.8657 -4 66.6748V24C-4 10.7452 6.74512 0 20 0H504.549C517.804 0 528.549 10.7452 528.549 24V57.6504C528.549 70.9052 539.294 81.6504 552.549 81.6504H1437.19C1445.47 81.6504 1452.19 74.936 1452.19 66.6533C1452.19 58.3707 1458.9 51.6562 1467.18 51.6562H1553C1566.25 51.6562 1577 62.4014 1577 75.6562V743.352C1577 756.606 1566.25 767.352 1553 767.352H1550.03C1536.78 767.352 1526.03 778.097 1526.03 791.352V835C1526.03 848.255 1515.29 859 1502.03 859H134.416C121.161 859 110.416 848.255 110.416 835V824.678Z" fill="url(#paint0_linear_824_4460)"/>
<defs>
<linearGradient id="paint0_linear_824_4460" x1="785.69" y1="847.687" x2="780.637" y2="94.9982" gradientUnits="userSpaceOnUse">
<stop/>
<stop offset="1" stop-color="#7E7E7E"/>
</linearGradient>
</defs>
</svg>
