<svg width="1600" height="787" viewBox="0 0 1600 787" fill="none" xmlns="http://www.w3.org/2000/svg">
<path d="M-88.0262 151.198C-99.071 135.345 -108.809 118.703 -117.209 101.372C-131.324 72.1881 -143.565 30.9149 -121.86 1.94699e-05L-111.013 7.62958C-128.994 33.2841 -117.828 69.6518 -105.259 95.6311C-75.1088 158.031 -26.3351 211.173 35.7969 249.352C97.956 287.513 167.404 306.984 236.669 305.619C245.048 305.476 254.072 304.925 263.417 303.907C263.196 303.011 263.002 302.096 262.809 301.18C254.08 261.297 258.054 204.527 297.883 175.807C318.641 160.861 350.242 160.493 374.769 174.95C394.215 186.403 404.47 204.947 402.201 224.582C400.648 237.942 393.729 251.366 381.74 264.526C353.994 294.883 315.783 308.944 280.226 314.936C307.748 401.786 402.216 489.857 540.82 500.446C581.463 503.553 621.854 500.212 661.019 492.676C660.923 420.444 681.313 338.382 721.786 251.415C751.184 184.484 786.58 116.484 845.622 73.2079C876.099 50.8841 913.432 37.4754 950.764 35.5387C990.84 33.4264 1027.45 45.2374 1053.83 68.7844C1113.69 122.123 1108.31 219.249 1068.58 282.355C1028.25 346.402 960.067 386.877 892.437 421.071C830.328 452.468 755.21 486.346 674.433 503.526C675.836 548.715 685.844 589.564 704.539 624.685C745.125 701.02 824.373 749.045 940.059 767.483C1048.4 784.011 1162.69 767.353 1261.8 720.512C1263.41 719.753 1265.05 718.975 1266.75 718.159C1260.73 713.18 1255.01 707.754 1249.63 701.888C1217.08 665.358 1207.2 614.964 1224.92 576.409C1235.08 554.306 1256.01 536.892 1280.9 529.849C1302.74 523.687 1324.06 526.479 1340.99 537.745C1379.08 563.149 1381.45 618.127 1361.85 654.487C1345.58 684.684 1317.44 705.499 1291.68 720.051C1322.25 739.468 1359.48 748.105 1402.82 745.816C1451.74 743.239 1506.93 726.194 1558.15 697.822C1640.45 655.423 1690.53 607.973 1711.36 552.624L1723.76 557.316C1701.69 615.871 1649.55 665.644 1564.37 709.526C1511.6 738.738 1454.39 756.376 1403.48 759.049C1355.12 761.605 1312.57 750.613 1278.48 727.067C1274.66 729.002 1270.96 730.814 1267.4 732.486C1165.95 780.432 1048.92 797.504 937.985 780.56C817.947 761.439 735.471 711.098 692.819 630.871C673.483 594.541 663 552.488 661.287 506.101C621.762 513.524 580.983 516.772 539.824 513.621C428.176 505.093 301.781 435.065 266.873 316.807C256.393 318.05 246.313 318.651 236.978 318.813C165.159 320.22 93.2346 300.092 28.9066 260.615C-18.1716 231.698 -57.8389 194.468 -87.98 151.206L-88.0262 151.198ZM383.048 199.757C379.487 194.645 374.447 190.078 368.074 186.319C351.056 176.324 324.153 173.177 305.632 186.524C270.973 211.48 267.889 262.34 275.746 298.306C276.002 299.542 276.303 300.786 276.604 302.03C310.187 296.566 346.225 283.616 371.93 255.487C382.042 244.444 387.808 233.479 389.024 222.938C390.01 214.617 387.888 206.645 383.057 199.711L383.048 199.757ZM1061.27 97.1298C1056.42 90.1688 1050.96 83.9554 1044.98 78.626C1004.63 42.6778 923.784 32.282 853.434 83.8408C796.909 125.282 762.551 191.469 733.838 256.833C694.66 341.079 674.652 420.33 674.225 489.898C752.623 472.84 825.783 439.801 886.428 409.142C952.357 375.809 1018.71 336.485 1057.36 275.184C1097.7 211.137 1091.23 140.027 1061.32 97.0919L1061.27 97.1298ZM1348.17 563.163C1344.28 557.589 1339.4 552.669 1333.51 548.735C1319.88 539.655 1302.44 537.463 1284.39 542.565C1263.51 548.469 1245.28 563.557 1236.86 581.902C1221.3 615.725 1230.35 660.354 1259.35 692.939C1265.65 699.779 1272.37 706.003 1279.52 711.52C1305.08 697.79 1334.16 677.691 1350.1 648.172C1363.8 622.751 1364.69 586.828 1348.19 563.144L1348.17 563.163Z" fill="url(#paint0_linear_1_1031)"/>
<defs>
<linearGradient id="paint0_linear_1_1031" x1="-116.641" y1="36.9812" x2="1475.54" y2="984.533" gradientUnits="userSpaceOnUse">
<stop stop-color="#6549F6"/>
<stop offset="0.5" stop-color="#FF611D"/>
<stop offset="1" stop-color="#FFAA00"/>
</linearGradient>
</defs>
</svg>
