<svg width="1008" height="1008" viewBox="0 0 1008 1008" fill="none" xmlns="http://www.w3.org/2000/svg">
<rect width="1008" height="1008" rx="190" fill="white"/>
<path d="M102.07 700.697C90.7759 693.499 98.2249 685.242 100.773 678.305C130.835 596.448 161.338 514.754 191.845 433.061C206.498 393.825 221.385 354.677 236.203 315.503C245.146 291.861 255.166 284.423 279.729 284.15C305.564 283.862 331.404 284.071 357.242 284.11C374.678 284.136 389.578 290.178 396.595 306.752C413.814 347.422 430.44 388.367 444.01 430.452C444.645 432.419 444.092 434.769 444.092 438.123C428.901 438.123 414.169 438.004 399.439 438.165C390.188 438.267 379.352 437.76 378.261 450.251C377.281 461.454 385.811 465.874 395.731 467.79C401.29 468.863 406.764 470.38 411.972 471.625C414.582 479.515 408.787 482.728 405.03 486.556C382.913 509.095 360.355 531.207 338.497 553.993C329.879 562.977 323.771 563.715 314.717 553.997C286.335 523.536 285.663 524.078 255.739 553.552C209.523 599.075 162.99 644.277 116.506 689.529C112.431 693.496 107.729 696.819 102.07 700.697Z" fill="#00E676"/>
<path d="M394.534 544.507C408.373 531.024 420.726 517.624 436.429 508.509C447.253 518.901 436.963 534.822 448.246 542.779C462.096 552.544 467.774 537.256 475.614 531.456C482.922 534.73 483.615 540.907 485.479 546.061C502.068 591.921 518.703 637.768 534.835 683.79C542.467 705.565 530.101 723.65 506.69 723.73C388.374 724.135 270.056 723.972 151.738 723.946C148.432 723.945 144.777 724.523 141.299 720.349C143.537 711.716 150.895 705.843 157.062 699.688C196.077 660.746 235.573 622.286 274.596 583.352C283.53 574.438 290.943 573.942 298.757 584.062C301.562 587.695 304.513 591.227 307.552 594.669C319.712 608.44 329.325 609.184 342.446 596.467C359.763 579.684 376.617 562.423 394.534 544.507Z" fill="black"/>
<path d="M870.934 663.299C799.348 743.029 674.415 740.899 609.316 660.363C598.486 646.964 597.826 637.71 611.421 625.877C636.964 603.645 661.502 580.235 685.992 556.828C695.545 547.698 702.564 547.023 711.195 558.17C719.241 568.56 728.961 577.694 738.27 587.056C753.6 602.473 761.389 602.399 777.441 587.296C811.737 555.03 846.032 522.761 880.339 490.506C883.653 487.389 886.5 483.587 891.366 482.633C917.94 507.97 923.587 604.376 870.934 663.299Z" fill="#6A0DAD"/>
<path d="M780.534 535.111C756.885 558.218 756.889 558.215 734.723 535.731C730.289 531.235 725.84 526.754 721.358 522.306C700.581 501.688 695.001 501.611 673.066 521.972C649.089 544.228 625.288 566.674 601.211 588.82C594.597 594.903 588.68 602.212 577.615 605.219C566.014 580.383 564.618 554.098 568.573 528.246C578.701 462.037 614.547 414.381 678.872 393.286C745.396 371.468 806.941 383.62 860.034 430.79C875.528 444.555 875.415 447.514 859.965 462.013C834.021 486.359 807.611 510.209 780.534 535.111Z" fill="#6A0DAD"/>
</svg>
