<svg width="1581" height="859" viewBox="0 0 1581 859" fill="none" xmlns="http://www.w3.org/2000/svg">
<path d="M1466.59 34.3223C1466.59 47.5771 1477.33 58.3223 1490.59 58.3223H1557C1570.25 58.3223 1581 69.0674 1581 82.3223V575.744C1581 584.935 1573.55 592.386 1564.36 592.386C1555.17 592.386 1547.72 599.836 1547.72 609.027V759.042C1547.72 768.233 1555.17 775.684 1564.36 775.684C1573.55 775.684 1581 783.134 1581 792.325V835C1581 848.255 1570.25 859 1557 859H1072.45C1059.2 859 1048.45 848.255 1048.45 835V801.35C1048.45 788.095 1037.71 777.35 1024.45 777.35H139.811C131.529 777.35 124.814 784.064 124.814 792.346C124.814 800.629 118.1 807.343 109.818 807.343H24C10.7452 807.343 0 796.598 0 783.343L0 115.648C0 102.394 10.7452 91.6484 24 91.6484H26.9678C40.2226 91.6484 50.9678 80.9033 50.9678 67.6484V24C50.9678 10.7452 61.7129 0 74.9678 0L1442.59 0C1455.84 0 1466.59 10.7452 1466.59 24V34.3223Z" fill="url(#paint0_linear_830_4469)"/>
<defs>
<linearGradient id="paint0_linear_830_4469" x1="791.31" y1="11.3126" x2="796.363" y2="764.002" gradientUnits="userSpaceOnUse">
<stop/>
<stop offset="1" stop-color="#7E7E7E"/>
</linearGradient>
</defs>
</svg>
