<svg width="86" height="68" viewBox="0 0 86 68" fill="none" xmlns="http://www.w3.org/2000/svg">
<g clip-path="url(#clip0_1_1563)">
<mask id="mask0_1_1563" style="mask-type:luminance" maskUnits="userSpaceOnUse" x="0" y="0" width="86" height="68">
<path d="M86 0H0V68H86V0Z" fill="white"/>
</mask>
<g mask="url(#mask0_1_1563)">
<path d="M15.8934 67.3668V62.9184C15.8934 61.2169 14.8722 60.1025 13.1189 60.1025C12.2423 60.1025 11.2892 60.3962 10.6338 61.3636C10.1232 60.5517 9.39126 60.1025 8.29338 60.1025C7.56146 60.1025 6.82954 60.3272 6.25081 61.1391V60.2494H4.71887V67.3668H6.25081V63.4368C6.25081 62.1756 6.90613 61.5797 7.92741 61.5797C8.9487 61.5797 9.45935 62.2448 9.45935 63.4368V67.3668H10.9913V63.4368C10.9913 62.1756 11.7232 61.5797 12.6679 61.5797C13.6892 61.5797 14.1998 62.2448 14.1998 63.4368V67.3668H15.8934ZM38.6171 60.2494H36.1319V58.0987H34.6V60.2494H33.2127V61.6573H34.6V64.9224C34.6 66.5549 35.2553 67.5137 37.0086 67.5137C37.6638 67.5137 38.3958 67.2892 38.9064 66.9955L38.4639 65.6566C38.0213 65.9503 37.5107 66.0281 37.1447 66.0281C36.4128 66.0281 36.1235 65.5789 36.1235 64.8446V61.6573H38.6085V60.2494H38.6171ZM51.6215 60.0939C50.7449 60.0939 50.1576 60.5431 49.7916 61.1305V60.2408H48.2597V67.3583H49.7916V63.3503C49.7916 62.167 50.3022 61.4933 51.2555 61.4933C51.5448 61.4933 51.9108 61.571 52.2087 61.6401L52.6512 60.1544C52.3449 60.0939 51.9108 60.0939 51.6215 60.0939ZM31.9701 60.8368C31.2383 60.3186 30.2169 60.0939 29.1191 60.0939C27.3659 60.0939 26.1999 60.9837 26.1999 62.3916C26.1999 63.5749 27.0765 64.2487 28.6085 64.4647L29.3403 64.5423C30.1404 64.6892 30.5829 64.9138 30.5829 65.2852C30.5829 65.8034 29.9957 66.1749 28.9745 66.1749C27.9531 66.1749 27.1446 65.8034 26.634 65.4321L25.902 66.6154C26.702 67.2114 27.8 67.5051 28.8978 67.5051C30.9404 67.5051 32.1149 66.5377 32.1149 65.2074C32.1149 63.9463 31.1616 63.2812 29.7063 63.0567L28.9745 62.9789C28.3191 62.9012 27.8085 62.7544 27.8085 62.3138C27.8085 61.7956 28.3191 61.5019 29.1276 61.5019C30.0042 61.5019 30.8808 61.8733 31.3234 62.0979L31.9701 60.8368ZM72.7281 60.0939C71.8514 60.0939 71.2641 60.5431 70.8983 61.1305V60.2408H69.3663V67.3583H70.8983V63.3503C70.8983 62.167 71.4089 61.4933 72.3621 61.4933C72.6515 61.4933 73.0173 61.571 73.3152 61.6401L73.7578 60.1717C73.46 60.0939 73.0259 60.0939 72.7281 60.0939ZM53.1534 63.8082C53.1534 65.959 54.6172 67.5137 56.8811 67.5137C57.9024 67.5137 58.6343 67.2892 59.3662 66.7018L58.6343 65.4407C58.047 65.8898 57.4683 66.1057 56.8044 66.1057C55.5619 66.1057 54.6853 65.2161 54.6853 63.8082C54.6853 62.4693 55.5619 61.5797 56.8044 61.5105C57.4598 61.5105 58.047 61.7351 58.6343 62.1757L59.3662 60.9145C58.6343 60.3186 57.9024 60.1025 56.8811 60.1025C54.6172 60.0939 53.1534 61.6573 53.1534 63.8082ZM67.3237 63.8082V60.2494H65.7918V61.1391C65.2812 60.474 64.5492 60.1025 63.596 60.1025C61.6215 60.1025 60.0896 61.6573 60.0896 63.8082C60.0896 65.959 61.6215 67.5137 63.596 67.5137C64.6173 67.5137 65.3493 67.1423 65.7918 66.4772V67.3668H67.3237V63.8082ZM61.6982 63.8082C61.6982 62.5471 62.4981 61.5105 63.8173 61.5105C65.0598 61.5105 65.9364 62.478 65.9364 63.8082C65.9364 65.0693 65.0598 66.1057 63.8173 66.1057C62.5067 66.0281 61.6982 65.0607 61.6982 63.8082ZM43.3661 60.0939C41.3235 60.0939 39.8597 61.5797 39.8597 63.7996C39.8597 66.0281 41.3235 67.5051 43.4427 67.5051C44.4639 67.5051 45.4852 67.2114 46.2937 66.5377L45.5618 65.4235C44.9745 65.8726 44.2427 66.1662 43.5192 66.1662C42.5661 66.1662 41.6214 65.7171 41.4 64.4647H46.5831C46.5831 64.24 46.5831 64.0932 46.5831 63.8687C46.6512 61.5797 45.332 60.0939 43.3661 60.0939ZM43.3661 61.4328C44.3193 61.4328 44.9745 62.0288 45.1193 63.1344H41.4681C41.6129 62.1756 42.2682 61.4328 43.3661 61.4328ZM81.426 63.8082V57.4336H79.894V61.1391C79.3834 60.474 78.6515 60.1025 77.6982 60.1025C75.7238 60.1025 74.1918 61.6573 74.1918 63.8082C74.1918 65.959 75.7238 67.5137 77.6982 67.5137C78.7196 67.5137 79.4515 67.1423 79.894 66.4772V67.3668H81.426V63.8082ZM75.8004 63.8082C75.8004 62.5471 76.6004 61.5105 77.9196 61.5105C79.1622 61.5105 80.0388 62.478 80.0388 63.8082C80.0388 65.0693 79.1622 66.1057 77.9196 66.1057C76.6004 66.0281 75.8004 65.0607 75.8004 63.8082ZM24.5148 63.8082V60.2494H22.9829V61.1391C22.4723 60.474 21.7403 60.1025 20.7872 60.1025C18.8126 60.1025 17.2807 61.6573 17.2807 63.8082C17.2807 65.959 18.8126 67.5137 20.7872 67.5137C21.8084 67.5137 22.5404 67.1423 22.9829 66.4772V67.3668H24.5148V63.8082ZM18.8211 63.8082C18.8211 62.5471 19.6211 61.5105 20.9403 61.5105C22.1829 61.5105 23.0595 62.478 23.0595 63.8082C23.0595 65.0693 22.1829 66.1057 20.9403 66.1057C19.6211 66.0281 18.8211 65.0607 18.8211 63.8082Z" fill="white"/>
<path d="M54.4727 6.19531H31.4597V48.1573H54.4727V6.19531Z" fill="#FF5A00"/>
<path d="M32.9915 27.1758C32.9915 18.6504 36.9405 11.0838 43.0001 6.19487C38.5406 2.63614 32.915 0.485352 26.7787 0.485352C12.2424 0.485352 0.480591 12.4227 0.480591 27.1758C0.480591 41.9291 12.2424 53.8664 26.7787 53.8664C32.915 53.8664 38.5406 51.7156 43.0001 48.1568C36.932 43.337 32.9915 35.7012 32.9915 27.1758Z" fill="#EB001B"/>
<path d="M85.5196 27.1758C85.5196 41.9291 73.7578 53.8664 59.2214 53.8664C53.0852 53.8664 47.4596 51.7156 43 48.1568C49.1362 43.2592 53.0086 35.7012 53.0086 27.1758C53.0086 18.6504 49.0597 11.0838 43 6.19487C47.4511 2.63614 53.0767 0.485352 59.2129 0.485352C73.7578 0.485352 85.5196 12.5004 85.5196 27.1758Z" fill="#F79E1B"/>
</g>
</g>
<defs>
<clipPath id="clip0_1_1563">
<rect width="86" height="68" fill="white"/>
</clipPath>
</defs>
</svg>
