<svg width="168" height="72" viewBox="0 0 168 72" fill="none" xmlns="http://www.w3.org/2000/svg">
<mask id="mask0_1_1521" style="mask-type:luminance" maskUnits="userSpaceOnUse" x="-6" y="0" width="182" height="73">
<path d="M175.435 0H-5.52946V72.3856H175.435V0Z" fill="white"/>
</mask>
<g mask="url(#mask0_1_1521)">
<mask id="mask1_1_1521" style="mask-type:luminance" maskUnits="userSpaceOnUse" x="0" y="-2" width="169" height="75">
<path d="M168.9 -1.00536H0V72.3856H168.9V-1.00536Z" fill="white"/>
</mask>
<g mask="url(#mask1_1_1521)">
<mask id="mask2_1_1521" style="mask-type:luminance" maskUnits="userSpaceOnUse" x="0" y="-2" width="168" height="74">
<path d="M168 -1.00536H0V71.6073H168V-1.00536Z" fill="white"/>
</mask>
<g mask="url(#mask2_1_1521)">
<path d="M28.0992 34.2887H25.4011C25.3081 34.2887 25.2188 34.3263 25.1531 34.3931C25.087 34.4597 25.0502 34.5503 25.0502 34.6445V43.6961C25.0502 43.7459 25.0406 43.7951 25.0217 43.8409C25.003 43.8868 24.9756 43.9285 24.941 43.9637C24.9063 43.9986 24.8653 44.0266 24.8199 44.0455C24.7747 44.0644 24.7262 44.0742 24.6773 44.0742H19.2155C19.1665 44.0742 19.118 44.0644 19.0727 44.0455C19.0276 44.0266 18.9864 43.9986 18.9518 43.9637C18.9172 43.9285 18.8897 43.8868 18.8709 43.8409C18.8522 43.7951 18.8426 43.7459 18.8426 43.6961V18.4764C18.8426 18.3762 18.8819 18.2799 18.9518 18.2091C19.0217 18.1382 19.1165 18.0984 19.2155 18.0984H28.2527C33.8681 18.0984 38.277 20.1666 38.277 26.1045C38.277 32.0426 33.4732 34.2887 28.0992 34.2887ZM27.7263 23.1689H25.4011C25.3081 23.1689 25.2188 23.2065 25.1531 23.2732C25.087 23.3399 25.0502 23.4304 25.0502 23.5247V28.929C25.0502 29.0235 25.087 29.114 25.1531 29.1807C25.2188 29.2475 25.3081 29.2848 25.4011 29.2848H27.5947C29.9198 29.2848 31.9817 28.5954 31.9817 26.1267C31.9817 23.6582 29.9636 23.1689 27.7482 23.1689H27.7263Z" fill="white"/>
<path d="M62.208 43.852L60.3874 39.2039C60.3608 39.1375 60.3154 39.081 60.2567 39.0412C60.1981 39.0016 60.1288 38.9806 60.0583 38.9815H50.6263C50.5557 38.9806 50.4865 39.0016 50.428 39.0412C50.3692 39.081 50.3236 39.1375 50.2972 39.2039L48.5863 43.852C48.5598 43.9184 48.5144 43.9751 48.4556 44.0147C48.397 44.0542 48.3277 44.0751 48.2573 44.0745H42.291C42.2331 44.0749 42.1761 44.0611 42.1249 44.034C42.0736 44.0068 42.03 43.9675 41.9973 43.919C41.9648 43.8705 41.9444 43.8147 41.9383 43.7564C41.9322 43.6984 41.9402 43.6395 41.9619 43.5852L52.425 18.3208C52.4513 18.2544 52.497 18.1978 52.5557 18.1581C52.6143 18.1184 52.6833 18.0976 52.754 18.0984H58.3036C58.374 18.0976 58.4433 18.1184 58.5018 18.1581C58.5607 18.1978 58.6061 18.2544 58.6326 18.3208L68.9859 43.6074C69.0076 43.6617 69.0158 43.7206 69.0096 43.7786C69.0033 43.8369 68.9831 43.8927 68.9506 43.9412C68.9179 43.9897 68.8741 44.029 68.8229 44.0562C68.7717 44.0833 68.7145 44.0971 68.6569 44.0967H62.537C62.4638 44.0956 62.3929 44.0716 62.334 44.0277C62.2749 43.9839 62.2308 43.9224 62.208 43.852ZM55.0791 25.9268L52.3372 33.4661C52.3199 33.519 52.3153 33.5755 52.3236 33.6309C52.332 33.686 52.353 33.7385 52.3851 33.7842C52.4171 33.8295 52.4592 33.8666 52.5081 33.8926C52.5571 33.9185 52.6112 33.9322 52.6663 33.9332H58.1061C58.1612 33.9322 58.2154 33.9185 58.2643 33.8926C58.3132 33.8666 58.3554 33.8295 58.3873 33.7842C58.4194 33.7385 58.4404 33.686 58.4488 33.6309C58.4571 33.5755 58.4523 33.519 58.4352 33.4661L55.7372 25.9268C55.71 25.8594 55.6632 25.802 55.6031 25.7625C55.5428 25.7229 55.4722 25.7031 55.4004 25.7055C55.3287 25.708 55.2597 25.7325 55.2022 25.7761C55.1447 25.8196 55.1017 25.8799 55.0791 25.9491V25.9268Z" fill="white"/>
<path d="M91.7321 43.9187L86.5335 35.401C86.5019 35.3502 86.4581 35.3087 86.4063 35.2799C86.3545 35.2511 86.2964 35.2359 86.2374 35.2359C86.1784 35.2359 86.1203 35.2511 86.0685 35.2799C86.0167 35.3087 85.9731 35.3502 85.9412 35.401L80.9401 43.9187C80.9091 43.9732 80.8642 44.0184 80.8102 44.0497C80.7563 44.0809 80.6951 44.0971 80.6329 44.0967H74.0525C73.989 44.0956 73.9272 44.0773 73.8732 44.0435C73.8193 44.0099 73.7754 43.9619 73.7461 43.905C73.7169 43.8478 73.7035 43.7839 73.7072 43.7197C73.711 43.6556 73.7318 43.5936 73.7674 43.5406L82.2562 30.5524C82.2959 30.4935 82.3169 30.424 82.3169 30.3526C82.3169 30.2809 82.2959 30.2113 82.2562 30.1524L74.5789 18.6543C74.5434 18.6012 74.5226 18.5393 74.5188 18.4751C74.5151 18.411 74.5284 18.347 74.5577 18.29C74.587 18.233 74.6309 18.185 74.6849 18.1513C74.7388 18.1176 74.8007 18.0993 74.8641 18.0984H81.4446C81.5067 18.0978 81.5678 18.114 81.6218 18.1452C81.6758 18.1765 81.7207 18.2217 81.7517 18.2762L86.1387 25.6598C86.1704 25.7104 86.2142 25.7521 86.266 25.7807C86.3176 25.8097 86.3758 25.8248 86.4349 25.8248C86.4938 25.8248 86.552 25.8097 86.6038 25.7807C86.6554 25.7521 86.6994 25.7104 86.7309 25.6598L91.1179 18.2762C91.1491 18.2217 91.1938 18.1765 91.2478 18.1452C91.3018 18.114 91.3629 18.0978 91.425 18.0984H97.7638C97.8271 18.0993 97.8895 18.1176 97.9438 18.1513C97.997 18.185 98.0413 18.233 98.0704 18.29C98.0996 18.347 98.1137 18.411 98.1096 18.4751C98.1056 18.5393 98.0855 18.6012 98.0493 18.6543L90.3502 30.1299C90.3107 30.1891 90.2895 30.2587 90.2895 30.3301C90.2895 30.4017 90.3107 30.4713 90.3502 30.5304L99.1241 43.4962C99.1602 43.5491 99.1804 43.6112 99.1844 43.6752C99.1884 43.7395 99.1743 43.8033 99.1452 43.8604C99.116 43.9174 99.0718 43.9655 99.0185 43.9991C98.9642 44.0329 98.9029 44.051 98.8395 44.0522H92.127C92.0557 44.0756 91.9791 44.0751 91.908 44.051C91.8369 44.027 91.7753 43.9806 91.7321 43.9187Z" fill="white"/>
<path d="M117.595 44.7866C110.861 44.7866 106.627 40.5167 106.627 34.2895V18.4547C106.627 18.3604 106.663 18.2699 106.73 18.2032C106.795 18.1365 106.884 18.099 106.978 18.099H112.418C112.51 18.099 112.6 18.1365 112.665 18.2032C112.732 18.2699 112.769 18.3604 112.769 18.4547V33.7558C112.724 34.4245 112.815 35.0953 113.037 35.7269C113.259 36.3582 113.606 36.9367 114.058 37.4264C114.509 37.9161 115.055 38.3065 115.662 38.5735C116.268 38.8405 116.922 38.9781 117.583 38.9781C118.244 38.9781 118.898 38.8405 119.505 38.5735C120.111 38.3065 120.657 37.9161 121.108 37.4264C121.56 36.9367 121.907 36.3582 122.13 35.7269C122.351 35.0953 122.442 34.4245 122.398 33.7558V18.4547C122.396 18.3996 122.407 18.3447 122.43 18.2944C122.452 18.2442 122.487 18.2001 122.53 18.1656C122.572 18.131 122.622 18.107 122.676 18.0954C122.729 18.0839 122.784 18.0851 122.836 18.099H128.321C128.413 18.099 128.503 18.1365 128.569 18.2032C128.634 18.2699 128.672 18.3604 128.672 18.4547V34.2895C128.627 40.5167 124.284 44.7866 117.595 44.7866Z" fill="white"/>
<path d="M162.32 44.0742C162.22 44.0742 162.126 44.0344 162.055 43.9637C161.986 43.8927 161.947 43.7964 161.947 43.6962L162.101 25.682L155.52 43.8296C155.492 43.9018 155.444 43.9641 155.382 44.0077C155.319 44.0515 155.245 44.0747 155.169 44.0742H151.352C151.276 44.0747 151.202 44.0515 151.138 44.0077C151.076 43.9641 151.028 43.9018 151.001 43.8296L144.508 25.682L144.64 43.6962C144.64 43.7459 144.631 43.7951 144.611 43.8409C144.592 43.8867 144.565 43.9285 144.531 43.9637C144.496 43.9986 144.455 44.0266 144.409 44.0455C144.364 44.0644 144.316 44.0742 144.267 44.0742H139.068C139.02 44.0742 138.971 44.0644 138.925 44.0455C138.88 44.0266 138.84 43.9986 138.805 43.9637C138.77 43.9285 138.742 43.8867 138.724 43.8409C138.705 43.7951 138.696 43.7459 138.696 43.6962V18.4764C138.696 18.3762 138.735 18.2799 138.805 18.2091C138.875 18.1382 138.969 18.0984 139.068 18.0984H147.228C147.305 18.0979 147.378 18.1211 147.442 18.1648C147.504 18.2086 147.552 18.2707 147.579 18.343L153.326 34.7557H153.545L159.029 18.343C159.056 18.2707 159.104 18.2086 159.167 18.1648C159.229 18.1211 159.304 18.0979 159.38 18.0984H167.693C167.793 18.0984 167.887 18.1382 167.957 18.2091C168.027 18.2799 168.066 18.3762 168.066 18.4764V43.7184C168.066 43.8186 168.027 43.9149 167.957 43.9859C167.887 44.0566 167.793 44.0964 167.693 44.0964L162.32 44.0742Z" fill="white"/>
<path d="M0 21.2343H6.69014C6.7189 17.144 8.3343 13.2295 11.187 10.3371C14.0398 7.44466 17.9008 5.80687 21.9351 5.77775V-1.00536C16.1176 -1.00536 10.5382 1.33775 6.42463 5.5085C2.31101 9.67926 0 15.336 0 21.2343Z" fill="#FF5252"/>
<path d="M18.8426 58.2625H22.0451C24.2386 58.2625 25.7521 59.0632 25.7521 61.1537C25.7521 63.2443 24.1289 64.0894 21.9354 64.0894H20.5973V68.2037H18.8426V58.2625ZM21.8037 62.7105C22.9444 62.7105 23.9973 62.4214 23.9973 61.2427C23.9973 60.064 22.9663 59.8417 21.8037 59.8417H20.5973V62.5993L21.8037 62.7105Z" fill="white"/>
<path d="M31.6305 67.3581C31.4004 67.692 31.0908 67.9608 30.7299 68.1399C30.3693 68.3189 29.9696 68.4019 29.5687 68.3812C29.2666 68.425 28.9591 68.4043 28.6653 68.3207C28.3719 68.237 28.0985 68.0922 27.8635 67.8955C27.628 67.6988 27.4357 67.4544 27.2989 67.1783C27.1619 66.9018 27.0832 66.5996 27.068 66.2906C27.068 64.2669 29.5687 64.0667 31.6525 64.0667V63.8887C31.6525 63.0659 30.9505 62.6433 30.1171 62.6433C29.4344 62.658 28.7832 62.9365 28.2964 63.4217L27.4409 62.3987C28.2006 61.6866 29.1922 61.283 30.2267 61.2645C30.6156 61.2053 31.0128 61.2367 31.3881 61.3563C31.7634 61.476 32.107 61.6808 32.3924 61.9552C32.6779 62.2297 32.898 62.5666 33.0357 62.9402C33.1737 63.3136 33.2256 63.7142 33.1879 64.1111V68.2254H31.6305V67.3581ZM31.6305 65.1342H31.2577C30.2047 65.1342 28.7132 65.2676 28.7132 66.2684C28.7132 66.9133 29.3054 67.1135 29.8758 67.1135C30.1089 67.1411 30.3452 67.1152 30.5674 67.0385C30.7896 66.9618 30.992 66.8357 31.16 66.6696C31.3283 66.5033 31.4577 66.3013 31.539 66.078C31.6205 65.8547 31.6517 65.6158 31.6305 65.3788V65.1342Z" fill="white"/>
<path d="M35.0962 61.4652H36.9387L38.8032 66.3801L40.4483 61.4652H42.1812L39.0225 69.6716C38.9023 70.248 38.5809 70.7611 38.1174 71.1168C37.6542 71.4722 37.0797 71.646 36.4999 71.6065C36.2157 71.6401 35.9288 71.6401 35.6445 71.6065L35.7761 70.1387C35.9799 70.168 36.1866 70.168 36.3903 70.1387C37.0922 70.1387 37.2896 69.7828 37.5748 69.0712L37.9038 68.2038L35.0962 61.4652Z" fill="white"/>
<path d="M47.7966 58.2625H49.705L51.6134 65.5794L53.8068 58.2625H55.6055L57.799 65.5794L59.7512 58.2625H61.6156L58.7422 68.226H57.0312L54.7281 60.7534L52.4249 68.226H50.6701L47.7966 58.2625Z" fill="white"/>
<path d="M64.5552 58.1518C64.7527 58.1606 64.9433 58.2279 65.1035 58.3456C65.2635 58.463 65.386 58.6257 65.4557 58.8132C65.5252 59.0007 65.5391 59.2049 65.4954 59.4004C65.4515 59.5959 65.3522 59.774 65.2096 59.9126C65.0668 60.0511 64.8871 60.1443 64.6926 60.1803C64.4982 60.2163 64.2976 60.1937 64.1157 60.1152C63.934 60.0365 63.779 59.9055 63.6697 59.7385C63.5607 59.5712 63.5026 59.3752 63.5024 59.1749C63.5052 59.0376 63.5346 58.9022 63.5893 58.7766C63.6437 58.6509 63.722 58.5373 63.8198 58.4423C63.9176 58.3474 64.0328 58.2726 64.1591 58.2228C64.2853 58.1729 64.4199 58.149 64.5552 58.1518ZM63.7437 61.4656H65.4107V68.1375H63.7437V61.4656Z" fill="white"/>
<path d="M67.5159 62.8222V61.4656H68.6785V59.5084H70.3236V61.4656H71.9907V62.8222H70.3236V65.958C70.3236 66.5584 70.4552 67.0033 71.201 67.0033C71.4416 67.0086 71.6808 66.9631 71.903 66.8698V68.2042C71.5423 68.3256 71.1644 68.3856 70.7843 68.3821C69.0295 68.3821 68.5907 67.2923 68.5907 65.9802V62.8222H67.5159Z" fill="white"/>
<path d="M80.414 64.0006V68.2262H78.7469V64.5121C78.7469 63.7115 78.5714 62.7329 77.5186 62.7329C77.2935 62.7378 77.0719 62.7901 76.8677 62.8864C76.6637 62.9826 76.4817 63.121 76.3332 63.2925C76.1847 63.4639 76.0728 63.665 76.005 63.8827C75.9373 64.1002 75.9149 64.3297 75.9392 64.5566V68.2484H74.2722V57.5733H75.9392V62.3993C76.1368 62.0424 76.4277 61.7478 76.7798 61.5476C77.132 61.3474 77.532 61.2498 77.9353 61.2651C78.2822 61.2568 78.6267 61.3236 78.9461 61.4612C79.2652 61.5987 79.5519 61.804 79.7867 62.063C80.0213 62.3219 80.1986 62.6289 80.307 62.9631C80.415 63.2974 80.4515 63.651 80.414 64.0006Z" fill="white"/>
<path d="M88.0255 58.2625H94.606V59.8193H89.7585V62.3547H94.321V63.8448H89.7585V66.6692H94.7819V68.2482H88.0255V58.2625Z" fill="white"/>
<path d="M101.603 67.3587C101.373 67.6925 101.063 67.9615 100.703 68.1404C100.342 68.3193 99.9425 68.4024 99.5413 68.3817C99.2387 68.4253 98.9311 68.4049 98.6375 68.3213C98.3439 68.2374 98.0705 68.0927 97.8362 67.896C97.6 67.6992 97.4079 67.4551 97.2712 67.1786C97.1345 66.9023 97.0551 66.6001 97.04 66.2913C97.04 64.2674 99.5413 64.0672 101.624 64.0672V63.8894C101.624 63.0665 100.923 62.6439 100.089 62.6439C99.4066 62.6583 98.7551 62.9368 98.2685 63.4223L97.413 62.3992C98.167 61.6921 99.1502 61.2888 100.177 61.2651C100.563 61.2132 100.955 61.2501 101.325 61.3732C101.695 61.4961 102.032 61.702 102.312 61.9756C102.593 62.2491 102.809 62.5834 102.944 62.9533C103.079 63.3228 103.13 63.719 103.094 64.1117V68.2261H101.537L101.603 67.3587ZM101.603 65.1347H101.23C100.177 65.1347 98.6858 65.2682 98.6858 66.2689C98.6858 66.9139 99.2779 67.114 99.8479 67.114C100.081 67.1414 100.317 67.1159 100.54 67.0391C100.762 66.9621 100.964 66.8361 101.133 66.67C101.301 66.5038 101.43 66.3019 101.512 66.0786C101.593 65.8553 101.624 65.6165 101.603 65.3794V65.1347Z" fill="white"/>
<path d="M109.807 63.2669C109.634 63.0434 109.415 62.8615 109.165 62.7344C108.914 62.6075 108.64 62.5388 108.359 62.533C107.832 62.533 107.285 62.7331 107.285 63.2669C107.285 63.8006 107.789 63.9341 108.732 64.1565C109.675 64.3789 110.926 64.8459 110.926 66.1803C110.926 67.5147 109.61 68.4042 108.14 68.4042C107.632 68.4167 107.128 68.3244 106.656 68.1334C106.185 67.9421 105.757 67.6562 105.398 67.2923L106.494 66.247C106.699 66.509 106.959 66.7212 107.255 66.8675C107.551 67.0138 107.876 67.0905 108.205 67.0922C108.688 67.0922 109.28 66.892 109.28 66.2915C109.28 65.691 108.775 65.5576 107.745 65.313C106.715 65.0683 105.771 64.668 105.771 63.4004C105.771 62.1326 107.109 61.1763 108.425 61.1763C108.89 61.1537 109.355 61.2335 109.786 61.4101C110.217 61.5867 110.606 61.8561 110.926 62.1994L109.807 63.2669Z" fill="white"/>
<path d="M119.7 65.3809H114.633C114.687 65.8506 114.914 66.2825 115.267 66.5913C115.62 66.9001 116.074 67.0634 116.541 67.0491C116.882 67.0667 117.223 66.9964 117.529 66.8447C117.836 66.6931 118.099 66.4649 118.296 66.1816L119.414 67.0936C118.944 67.672 118.311 68.0918 117.6 68.2965C116.889 68.5016 116.133 68.482 115.432 68.2405C114.732 67.999 114.121 67.5471 113.681 66.945C113.24 66.3428 112.991 65.6189 112.966 64.8696C112.944 64.3923 113.02 63.916 113.19 63.4705C113.36 63.0249 113.618 62.6199 113.95 62.2812C114.283 61.9425 114.68 61.6774 115.118 61.5027C115.558 61.3279 116.026 61.2477 116.498 61.2666C116.959 61.2519 117.419 61.3402 117.844 61.525C118.268 61.7101 118.648 61.9873 118.956 62.3372C119.263 62.6873 119.491 63.1014 119.623 63.5504C119.756 63.9996 119.789 64.4727 119.722 64.9361C119.722 65.0918 119.722 65.2253 119.7 65.3809ZM118.055 64.18C118.071 63.9647 118.041 63.7481 117.967 63.5452C117.894 63.3424 117.779 63.1579 117.629 63.0039C117.48 62.8502 117.299 62.7306 117.1 62.6535C116.901 62.5763 116.688 62.5434 116.476 62.5565C116.022 62.5374 115.578 62.6948 115.236 62.9968C114.893 63.2986 114.677 63.7221 114.633 64.18H118.055Z" fill="white"/>
</g>
</g>
</g>
</svg>
