<svg width="181" height="72" viewBox="0 0 181 72" fill="none" xmlns="http://www.w3.org/2000/svg">
<path fill-rule="evenodd" clip-rule="evenodd" d="M142.797 28.529V26.1133L146.79 28.529V49.4652H142.797V28.529ZM82.0047 46.876L80.0725 43.8172C78.7842 44.9824 77.6079 45.6816 75.8996 45.6816C73.0709 45.6816 71.1106 43.2929 71.1106 39.2437V38.9524C71.1106 34.9906 73.099 32.5727 75.8716 32.5727C77.4401 32.5727 78.7003 33.2719 79.9605 34.3788L81.8646 30.9705C80.3804 29.5722 78.6722 28.6401 75.7876 28.6401C70.6345 28.6401 66.9097 32.8058 66.9097 39.0106V39.2728C66.9097 45.5068 70.6345 49.6141 75.5913 49.6141C78.5321 49.6141 80.3523 48.5946 82.0047 46.876ZM117.499 28.6401V32.7305H113.011V28.6401H117.499ZM117.499 34.2869V49.6141H113.011V34.2869H117.499ZM95.4679 49.6141V39.6425C95.4679 35.5225 93.4467 33.1639 89.173 33.1639C86.9209 33.1639 85.477 33.5819 83.9755 34.2686L84.7553 37.702C85.9968 37.1944 87.0654 36.866 88.5089 36.866C90.4725 36.866 91.4831 37.8512 91.4831 39.6724V40.1203C90.5301 39.7321 89.5483 39.4933 88.22 39.4933C85.0438 39.4933 82.8205 41.0756 82.8205 44.5986V44.8075C82.8205 47.8826 84.8705 49.6141 87.4406 49.6141C89.2598 49.6141 90.5917 48.868 91.5155 47.6438V49.6141H95.4679ZM91.5119 44.1209C91.5119 45.5838 90.3857 46.569 88.7689 46.569C87.6139 46.569 86.7765 45.9122 86.7765 44.5986V44.3896C86.7765 42.9565 87.7295 42.24 89.231 42.24C90.0972 42.24 90.9346 42.449 91.5119 42.7475V44.1209ZM141.57 49.6141V39.6425C141.57 35.5225 139.484 33.1639 135.072 33.1639C132.747 33.1639 131.257 33.5819 129.707 34.2686L130.512 37.702C131.793 37.1944 132.896 36.866 134.387 36.866C136.413 36.866 137.457 37.8512 137.457 39.6724V40.1203C136.473 39.7321 135.459 39.4933 134.088 39.4933C130.81 39.4933 128.514 41.0756 128.514 44.5986V44.8075C128.514 47.8826 130.631 49.6141 133.284 49.6141C135.162 49.6141 136.536 48.868 137.49 47.6438V49.6141H141.57ZM137.486 44.1209C137.486 45.5838 136.324 46.569 134.655 46.569C133.462 46.569 132.598 45.9122 132.598 44.5986V44.3896C132.598 42.9565 133.582 42.24 135.132 42.24C136.026 42.24 136.89 42.449 137.486 42.7475V44.1209ZM153.453 32.7305V28.6401H148.965V32.7305H153.453ZM153.453 49.6141V34.2869H148.965V49.6141H153.453ZM162.33 39.7856C164.513 40.914 166.487 42.0127 166.487 44.6851C166.487 47.9514 164.035 49.6141 160.865 49.6141C158.981 49.6141 156.858 49.0205 155.064 47.7139L156.439 44.596C157.994 45.665 159.549 46.2292 160.865 46.2292C162.002 46.2292 162.599 45.7541 162.599 44.982C162.599 44.234 161.777 43.8629 160.504 43.2884C160.261 43.1787 160.002 43.0617 159.729 42.9332C157.665 41.983 155.572 40.7952 155.572 37.9743C155.572 34.9159 157.964 33.1639 161.045 33.1639C162.749 33.1639 164.543 33.6687 166.039 34.5892L164.813 37.7961C163.467 37.0241 162.121 36.549 161.045 36.549C160.028 36.549 159.489 36.9944 159.489 37.6774C159.489 38.3474 160.283 38.7479 161.539 39.3814C161.786 39.5059 162.05 39.6393 162.33 39.7856ZM170.849 29.737L168.851 28.5291V30.9447V34.1826H167.296V37.4133H168.851V45.3927C168.851 48.5761 170.483 49.4652 172.845 49.4652C174.084 49.4652 175.093 49.1784 175.871 48.7195V45.45C175.352 45.7369 174.747 45.8803 174.113 45.8803C173.249 45.8803 172.845 45.45 172.845 44.561V37.4133H175.242V34.1826H172.845V30.9448L170.849 29.737ZM127.698 45.5129V48.8524C126.884 49.3211 125.828 49.6141 124.531 49.6141C122.059 49.6141 120.351 48.7061 120.351 45.4543V37.3037H118.722V34.0037H120.351V30.6963H120.355V28.6401L122.395 29.6682L124.435 30.6963H124.531V34.0037H127.084V37.3037H124.531V44.6047C124.531 45.5129 124.954 45.9523 125.858 45.9523C126.522 45.9523 127.155 45.8058 127.698 45.5129ZM111.644 41.6208V41.1587C111.644 35.8732 108.78 33.3604 105.653 33.3604C103.578 33.3604 102.166 34.4868 101.26 35.7865V33.3604H97.2658V52.6863L101.259 55.1021V53.1604L101.26 47.1662C102.166 48.2926 103.549 49.4191 105.653 49.4191C108.809 49.4191 111.644 46.9062 111.644 41.6208ZM107.65 41.563C107.65 44.2202 106.15 45.8376 104.426 45.8376C102.731 45.8376 101.23 44.1913 101.23 41.563V41.2164C101.23 38.5881 102.731 36.9418 104.426 36.9418C106.15 36.9418 107.65 38.5881 107.65 41.2164V41.563Z" fill="white"/>
<path d="M29.2726 69C44.8872 69 57.5453 56.2401 57.5453 40.5C57.5453 24.7599 44.8872 12 29.2726 12C13.6581 12 1 24.7599 1 40.5C1 56.2401 13.6581 69 29.2726 69Z" fill="#80BD1C"/>
<path d="M37.2314 21.6885H21.3145L22.5011 31.4656H36.0302L37.2314 21.6885Z" fill="white"/>
<path d="M35.7726 33.5566H22.7646L23.3087 37.9413C23.5611 38.0912 23.7278 38.2319 23.9916 38.3631C25.6273 39.1767 27.4283 39.6014 29.2546 39.6043C31.0809 39.6072 32.8833 39.1881 34.5216 38.3797C34.7935 38.2455 34.9635 38.1011 35.2235 37.9471L35.7726 33.5566Z" fill="white"/>
<path d="M38.7133 37.1391C37.603 38.5912 36.1729 39.7672 34.5347 40.5756C32.8964 41.384 31.0941 41.8031 29.2678 41.8002C27.4415 41.7973 25.6404 41.3726 24.0047 40.559C22.369 39.7454 20.9427 38.5649 19.8367 37.1094L17.9277 38.5643C19.2572 40.314 20.9716 41.7329 22.9377 42.7108C24.9039 43.6888 27.0687 44.1993 29.264 44.2028C31.4592 44.2062 33.6257 43.7025 35.5949 42.7308C37.5641 41.759 39.2831 40.3455 40.6179 38.6L38.7133 37.1391Z" fill="white"/>
<path fill-rule="evenodd" clip-rule="evenodd" d="M28.2213 49.4631C27.9172 51.1408 26.4513 52.413 24.6887 52.413C22.7057 52.413 21.0981 50.8028 21.0981 48.8169C21.0981 46.8307 22.7057 45.2207 24.6887 45.2207C26.3064 45.2207 27.6742 46.2922 28.1232 47.7652C28.2665 47.6868 28.4166 47.6228 28.5714 47.5739C28.8118 47.4978 29.0635 47.458 29.3182 47.4568C29.5728 47.4557 29.8248 47.4933 30.0659 47.5672C30.2272 47.6167 30.3835 47.6824 30.5325 47.7636C30.982 46.2914 32.3495 45.2207 33.9666 45.2207C35.9495 45.2207 37.5572 46.8307 37.5572 48.8169C37.5572 50.8028 35.9495 52.413 33.9666 52.413C32.1997 52.413 30.731 51.1347 30.4318 49.4512C30.3327 49.2428 30.1768 49.0667 29.982 48.9436C29.7852 48.8187 29.5568 48.753 29.3239 48.7541C29.091 48.7552 28.8633 48.8227 28.6675 48.9494C28.4731 49.0747 28.3184 49.2533 28.2213 49.4631ZM24.6887 50.5443C25.6412 50.5443 26.4134 49.7706 26.4134 48.8169C26.4134 47.8627 25.6412 47.0894 24.6887 47.0894C23.7361 47.0894 22.964 47.8627 22.964 48.8169C22.964 49.7706 23.7361 50.5443 24.6887 50.5443ZM33.9666 50.5443C34.9191 50.5443 35.6913 49.7706 35.6913 48.8169C35.6913 47.8627 34.9191 47.0894 33.9666 47.0894C33.014 47.0894 32.2418 47.8627 32.2418 48.8169C32.2418 49.7706 33.014 50.5443 33.9666 50.5443Z" fill="white"/>
<path d="M25.0683 58.1079C26.5054 58.1079 28.7144 57.1654 29.3848 56.1906C30.0551 57.1654 32.2641 58.1079 33.7012 58.1079C35.1743 58.1079 36.1253 57.8076 37.1265 57.0285C37.7698 56.5289 38.5459 55.3831 38.5459 54.2624C38.3965 54.3662 38.2596 54.4653 38.1299 54.5594C37.4103 55.0814 36.9229 55.4354 35.7779 55.4354C34.2425 55.4354 33.2626 54.5256 32.4463 53.7679C31.8637 53.2269 31.3645 52.7637 30.8062 52.7637C30.2823 52.7637 29.971 53.0868 29.682 53.387C29.5828 53.4902 29.4863 53.5904 29.3848 53.6739C29.2832 53.5904 29.1867 53.4902 29.0875 53.387C28.7985 53.0868 28.4872 52.7637 27.9633 52.7637C27.405 52.7637 26.9058 53.2269 26.3232 53.7679C25.5069 54.5256 24.527 55.4354 22.9916 55.4354C21.8466 55.4354 21.3591 55.0814 20.6395 54.5594C20.5101 54.4657 20.3732 54.3662 20.2236 54.2624C20.2236 55.3831 20.9999 56.5289 21.6428 57.0285C22.6442 57.8076 23.5952 58.1079 25.0683 58.1079Z" fill="white"/>
</svg>
