<svg width="46" height="46" viewBox="0 0 46 46" fill="none" xmlns="http://www.w3.org/2000/svg">
<g clip-path="url(#clip0_1_1226)">
<path d="M32.6667 7.17717V1.95731C32.6667 1.61121 32.8072 1.27929 33.0572 1.03456C33.3073 0.789831 33.6464 0.652344 34 0.652344C34.3536 0.652344 34.6928 0.789831 34.9428 1.03456C35.1929 1.27929 35.3334 1.61121 35.3334 1.95731V7.17717C35.3334 7.52327 35.1929 7.85519 34.9428 8.09992C34.6928 8.34464 34.3536 8.48213 34 8.48213C33.6464 8.48213 33.3073 8.34464 33.0572 8.09992C32.8072 7.85519 32.6667 7.52327 32.6667 7.17717ZM22 5.21972V3.91476C22.0014 3.04993 22.3531 2.22093 22.9779 1.60941C23.6027 0.997885 24.4497 0.653724 25.3334 0.652344H26.6667C27.5503 0.653724 28.3973 0.997885 29.0222 1.60941C29.647 2.22093 29.9986 3.04993 30 3.91476V5.21972C29.9986 6.08454 29.647 6.91355 29.0222 7.52507C28.3973 8.13659 27.5503 8.48075 26.6667 8.48213H25.3334C24.4497 8.48075 23.6027 8.13659 22.9779 7.52507C22.3531 6.91355 22.0014 6.08454 22 5.21972ZM24.6667 5.21972C24.6667 5.39277 24.7369 5.55873 24.8619 5.6811C24.987 5.80346 25.1565 5.8722 25.3334 5.8722H26.6667C26.8435 5.8722 27.0131 5.80346 27.1381 5.6811C27.2631 5.55873 27.3334 5.39277 27.3334 5.21972V3.91476C27.3334 3.74171 27.2631 3.57574 27.1381 3.45338C27.0131 3.33102 26.8435 3.26227 26.6667 3.26227H25.3334C25.1565 3.26227 24.987 3.33102 24.8619 3.45338C24.7369 3.57574 24.6667 3.74171 24.6667 3.91476V5.21972ZM18 8.48213C18.3536 8.48213 18.6928 8.34464 18.9428 8.09992C19.1929 7.85519 19.3334 7.52327 19.3334 7.17717V1.95731C19.3334 1.61121 19.1929 1.27929 18.9428 1.03456C18.6928 0.789831 18.3536 0.652344 18 0.652344C17.6464 0.652344 17.3073 0.789831 17.0572 1.03456C16.8072 1.27929 16.6667 1.61121 16.6667 1.95731V7.17717C16.6667 7.52327 16.8072 7.85519 17.0572 8.09992C17.3073 8.34464 17.6464 8.48213 18 8.48213ZM6.00002 5.21972V3.91476C6.00143 3.04993 6.35307 2.22093 6.97789 1.60941C7.6027 0.997885 8.44973 0.653724 9.33335 0.652344H10.6667C11.5503 0.653724 12.3973 0.997885 13.0222 1.60941C13.647 2.22093 13.9986 3.04993 14 3.91476V5.21972C13.9986 6.08454 13.647 6.91355 13.0222 7.52507C12.3973 8.13659 11.5503 8.48075 10.6667 8.48213H9.33335C8.44973 8.48075 7.6027 8.13659 6.97789 7.52507C6.35307 6.91355 6.00143 6.08454 6.00002 5.21972ZM8.66669 5.21972C8.66669 5.39277 8.73692 5.55873 8.86195 5.6811C8.98697 5.80346 9.15654 5.8722 9.33335 5.8722H10.6667C10.8435 5.8722 11.0131 5.80346 11.1381 5.6811C11.2631 5.55873 11.3334 5.39277 11.3334 5.21972V3.91476C11.3334 3.74171 11.2631 3.57574 11.1381 3.45338C11.0131 3.33102 10.8435 3.26227 10.6667 3.26227H9.33335C9.15654 3.26227 8.98697 3.33102 8.86195 3.45338C8.73692 3.57574 8.66669 3.74171 8.66669 3.91476V5.21972ZM9.33335 34.5814H10C10.3536 34.5814 10.6928 34.4439 10.9428 34.1992C11.1929 33.9545 11.3334 33.6226 11.3334 33.2765C11.3334 32.9304 11.1929 32.5984 10.9428 32.3537C10.6928 32.109 10.3536 31.9715 10 31.9715H9.33335C8.44973 31.9729 7.6027 32.317 6.97789 32.9286C6.35307 33.5401 6.00143 34.3691 6.00002 35.2339V36.5389C6.00143 37.4037 6.35307 38.2327 6.97789 38.8442C7.6027 39.4557 8.44973 39.7999 9.33335 39.8013H10.6667C11.5503 39.7999 12.3973 39.4557 13.0222 38.8442C13.647 38.2327 13.9986 37.4037 14 36.5389V35.8864C14 35.5403 13.8595 35.2084 13.6095 34.9636C13.3594 34.7189 13.0203 34.5814 12.6667 34.5814C12.3131 34.5814 11.9739 34.7189 11.7239 34.9636C11.4738 35.2084 11.3334 35.5403 11.3334 35.8864V36.5389C11.3334 36.7119 11.2631 36.8779 11.1381 37.0002C11.0131 37.1226 10.8435 37.1914 10.6667 37.1914H9.33335C9.15654 37.1914 8.98697 37.1226 8.86195 37.0002C8.73692 36.8779 8.66669 36.7119 8.66669 36.5389V35.2339C8.66669 35.0609 8.73692 34.8949 8.86195 34.7725C8.98697 34.6502 9.15654 34.5814 9.33335 34.5814ZM9.33335 18.9218H10C10.3536 18.9218 10.6928 18.7844 10.9428 18.5396C11.1929 18.2949 11.3334 17.963 11.3334 17.6169C11.3334 17.2708 11.1929 16.9389 10.9428 16.6941C10.6928 16.4494 10.3536 16.3119 10 16.3119H9.33335C9.15654 16.3119 8.98697 16.2432 8.86195 16.1208C8.73692 15.9984 8.66669 15.8325 8.66669 15.6594V14.3545C8.66669 14.1814 8.73692 14.0155 8.86195 13.8931C8.98697 13.7707 9.15654 13.702 9.33335 13.702H10.6667C10.8435 13.702 11.0131 13.7707 11.1381 13.8931C11.2631 14.0155 11.3334 14.1814 11.3334 14.3545V15.007C11.3334 15.3531 11.4738 15.685 11.7239 15.9297C11.9739 16.1744 12.3131 16.3119 12.6667 16.3119C13.0203 16.3119 13.3594 16.1744 13.6095 15.9297C13.8595 15.685 14 15.3531 14 15.007V14.3545C13.9986 13.4897 13.647 12.6606 13.0222 12.0491C12.3973 11.4376 11.5503 11.0934 10.6667 11.0921H9.33335C8.44973 11.0934 7.6027 11.4376 6.97789 12.0491C6.35307 12.6606 6.00143 13.4897 6.00002 14.3545V15.6594C6.00143 16.5243 6.35307 17.3533 6.97789 17.9648C7.6027 18.5763 8.44973 18.9205 9.33335 18.9218ZM45.6 42.7923C45.8504 43.0373 45.991 43.3696 45.991 43.7162C45.991 44.0627 45.8504 44.3951 45.6 44.6401C45.3497 44.8851 45.0101 45.0228 44.656 45.0228C44.302 45.0228 43.9624 44.8851 43.712 44.6401L35.368 36.471C32.4631 38.8393 28.7371 40.0202 24.9652 39.7682C21.1933 39.5162 17.6659 37.8507 15.1167 35.1181C12.5675 32.3855 11.1929 28.7962 11.2788 25.0969C11.3647 21.3976 12.9045 17.8731 15.5778 15.2566C18.2512 12.6402 21.8523 11.1332 25.632 11.0491C29.4117 10.9651 33.079 12.3104 35.871 14.8054C38.663 17.3003 40.3648 20.7527 40.6222 24.4443C40.8797 28.136 39.6731 31.7827 37.2534 34.6258L45.6 42.7923ZM38 25.4467C38 23.1238 37.2962 20.8531 35.9777 18.9217C34.6591 16.9903 32.7849 15.4849 30.5922 14.596C28.3995 13.7071 25.9867 13.4745 23.6589 13.9277C21.3312 14.3808 19.193 15.4994 17.5147 17.1419C15.8365 18.7845 14.6936 20.8772 14.2306 23.1554C13.7676 25.4336 14.0052 27.7951 14.9135 29.9412C15.8217 32.0872 17.3598 33.9215 19.3332 35.212C21.3066 36.5025 23.6266 37.1914 26 37.1914C29.1815 37.1879 32.2317 35.9494 34.4814 33.7476C36.7311 31.5458 37.9965 28.5605 38 25.4467ZM44.6667 21.5318C44.3131 21.5318 43.9739 21.6693 43.7239 21.914C43.4738 22.1587 43.3334 22.4906 43.3334 22.8367V28.0566C43.3334 28.4027 43.4738 28.7346 43.7239 28.9794C43.9739 29.2241 44.3131 29.3616 44.6667 29.3616C45.0203 29.3616 45.3595 29.2241 45.6095 28.9794C45.8595 28.7346 46 28.4027 46 28.0566V22.8367C46 22.4906 45.8595 22.1587 45.6095 21.914C45.3595 21.6693 45.0203 21.5318 44.6667 21.5318ZM42.6667 11.0921H41.3334C40.4497 11.0934 39.6027 11.4376 38.9779 12.0491C38.3531 12.6606 38.0014 13.4897 38 14.3545V15.007C38 15.3531 38.1405 15.685 38.3905 15.9297C38.6406 16.1744 38.9797 16.3119 39.3334 16.3119C39.687 16.3119 40.0261 16.1744 40.2762 15.9297C40.5262 15.685 40.6667 15.3531 40.6667 15.007V14.3545C40.6667 14.1814 40.7369 14.0155 40.8619 13.8931C40.987 13.7707 41.1565 13.702 41.3334 13.702H42.6667C42.8435 13.702 43.0131 13.7707 43.1381 13.8931C43.2631 14.0155 43.3334 14.1814 43.3334 14.3545V15.6594C43.3334 15.8325 43.2631 15.9984 43.1381 16.1208C43.0131 16.2432 42.8435 16.3119 42.6667 16.3119H42C41.6464 16.3119 41.3073 16.4494 41.0572 16.6941C40.8072 16.9389 40.6667 17.2708 40.6667 17.6169C40.6667 17.963 40.8072 18.2949 41.0572 18.5396C41.3073 18.7844 41.6464 18.9218 42 18.9218H42.6667C43.5503 18.9205 44.3973 18.5763 45.0222 17.9648C45.647 17.3533 45.9986 16.5243 46 15.6594V14.3545C45.9986 13.4897 45.647 12.6606 45.0222 12.0491C44.3973 11.4376 43.5503 11.0934 42.6667 11.0921ZM46 3.91476V5.21972C45.9986 6.08454 45.647 6.91355 45.0222 7.52507C44.3973 8.13659 43.5503 8.48075 42.6667 8.48213H41.3334C40.4497 8.48075 39.6027 8.13659 38.9779 7.52507C38.3531 6.91355 38.0014 6.08454 38 5.21972V3.91476C38.0014 3.04993 38.3531 2.22093 38.9779 1.60941C39.6027 0.997885 40.4497 0.653724 41.3334 0.652344H42.6667C43.5503 0.653724 44.3973 0.997885 45.0222 1.60941C45.647 2.22093 45.9986 3.04993 46 3.91476ZM43.3334 3.91476C43.3334 3.74171 43.2631 3.57574 43.1381 3.45338C43.0131 3.33102 42.8435 3.26227 42.6667 3.26227H41.3334C41.1565 3.26227 40.987 3.33102 40.8619 3.45338C40.7369 3.57574 40.6667 3.74171 40.6667 3.91476V5.21972C40.6667 5.39277 40.7369 5.55873 40.8619 5.6811C40.987 5.80346 41.1565 5.8722 41.3334 5.8722H42.6667C42.8435 5.8722 43.0131 5.80346 43.1381 5.6811C43.2631 5.55873 43.3334 5.39277 43.3334 5.21972V3.91476ZM42.6667 31.9715H42C41.6464 31.9715 41.3073 32.109 41.0572 32.3537C40.8072 32.5984 40.6667 32.9304 40.6667 33.2765C40.6667 33.6226 40.8072 33.9545 41.0572 34.1992C41.3073 34.4439 41.6464 34.5814 42 34.5814H42.6667C42.8435 34.5814 43.0131 34.6502 43.1381 34.7725C43.2631 34.8949 43.3334 35.0609 43.3334 35.2339V35.8864C43.3334 36.2325 43.4738 36.5644 43.7239 36.8091C43.9739 37.0539 44.3131 37.1914 44.6667 37.1914C45.0203 37.1914 45.3595 37.0539 45.6095 36.8091C45.8595 36.5644 46 36.2325 46 35.8864V35.2339C45.9986 34.3691 45.647 33.5401 45.0222 32.9286C44.3973 32.317 43.5503 31.9729 42.6667 31.9715ZM2.00002 8.48213C2.35364 8.48213 2.69278 8.34464 2.94283 8.09992C3.19288 7.85519 3.33335 7.52327 3.33335 7.17717V1.95731C3.33335 1.61121 3.19288 1.27929 2.94283 1.03456C2.69278 0.789831 2.35364 0.652344 2.00002 0.652344C1.6464 0.652344 1.30726 0.789831 1.05721 1.03456C0.807163 1.27929 0.666687 1.61121 0.666687 1.95731V7.17717C0.666687 7.52327 0.807163 7.85519 1.05721 8.09992C1.30726 8.34464 1.6464 8.48213 2.00002 8.48213ZM35.3334 24.1417H32L30.4 22.0538C30.2589 21.8701 30.0706 21.7262 29.8544 21.6366C29.6381 21.5469 29.4016 21.5148 29.1686 21.5434C28.9355 21.572 28.7144 21.6603 28.5275 21.7995C28.3405 21.9386 28.1945 22.1235 28.104 22.3356L26.1787 26.8534L23.9387 19.8379C23.8558 19.5787 23.6923 19.3513 23.471 19.1874C23.2498 19.0235 22.9817 18.9312 22.7044 18.9235C22.427 18.9157 22.154 18.9928 21.9235 19.1441C21.6931 19.2954 21.5166 19.5133 21.4187 19.7675L19.7414 24.1417H16.6667C16.3131 24.1417 15.9739 24.2792 15.7239 24.5239C15.4738 24.7687 15.3334 25.1006 15.3334 25.4467C15.3334 25.7928 15.4738 26.1247 15.7239 26.3694C15.9739 26.6142 16.3131 26.7516 16.6667 26.7516H20.6667C20.9379 26.7516 21.2027 26.6707 21.4256 26.5196C21.6486 26.3685 21.8192 26.1545 21.9147 25.906L22.552 24.2435L24.728 31.0554C24.8101 31.3104 24.9703 31.5345 25.1868 31.6975C25.4033 31.8605 25.6658 31.9545 25.9386 31.9667C26.2115 31.979 26.4816 31.9089 26.7125 31.766C26.9433 31.6231 27.1238 31.4142 27.2294 31.1676L29.6667 25.4467L30.2667 26.2297C30.3909 26.3917 30.5519 26.5233 30.7371 26.6139C30.9222 26.7045 31.1264 26.7516 31.3334 26.7516H35.3334C35.687 26.7516 36.0261 26.6142 36.2762 26.3694C36.5262 26.1247 36.6667 25.7928 36.6667 25.4467C36.6667 25.1006 36.5262 24.7687 36.2762 24.5239C36.0261 24.2792 35.687 24.1417 35.3334 24.1417ZM2.00002 39.8013C2.35364 39.8013 2.69278 39.6638 2.94283 39.4191C3.19288 39.1743 3.33335 38.8424 3.33335 38.4963V33.2765C3.33335 32.9304 3.19288 32.5984 2.94283 32.3537C2.69278 32.109 2.35364 31.9715 2.00002 31.9715C1.6464 31.9715 1.30726 32.109 1.05721 32.3537C0.807163 32.5984 0.666687 32.9304 0.666687 33.2765V38.4963C0.666687 38.8424 0.807163 39.1743 1.05721 39.4191C1.30726 39.6638 1.6464 39.8013 2.00002 39.8013ZM2.00002 18.9218C2.35364 18.9218 2.69278 18.7844 2.94283 18.5396C3.19288 18.2949 3.33335 17.963 3.33335 17.6169V12.397C3.33335 12.0509 3.19288 11.719 2.94283 11.4743C2.69278 11.2295 2.35364 11.0921 2.00002 11.0921C1.6464 11.0921 1.30726 11.2295 1.05721 11.4743C0.807163 11.719 0.666687 12.0509 0.666687 12.397V17.6169C0.666687 17.963 0.807163 18.2949 1.05721 18.5396C1.30726 18.7844 1.6464 18.9218 2.00002 18.9218ZM0.666687 26.0992V24.7942C0.668097 23.9294 1.01974 23.1004 1.64456 22.4888C2.26937 21.8773 3.1164 21.5332 4.00002 21.5318H5.33335C6.21698 21.5332 7.064 21.8773 7.68882 22.4888C8.31363 23.1004 8.66528 23.9294 8.66669 24.7942V26.0992C8.66528 26.964 8.31363 27.793 7.68882 28.4045C7.064 29.016 6.21698 29.3602 5.33335 29.3616H4.00002C3.1164 29.3602 2.26937 29.016 1.64456 28.4045C1.01974 27.793 0.668097 26.964 0.666687 26.0992ZM3.33335 26.0992C3.33335 26.2722 3.40359 26.4382 3.52862 26.5605C3.65364 26.6829 3.82321 26.7516 4.00002 26.7516H5.33335C5.51016 26.7516 5.67973 26.6829 5.80476 26.5605C5.92978 26.4382 6.00002 26.2722 6.00002 26.0992V24.7942C6.00002 24.6211 5.92978 24.4552 5.80476 24.3328C5.67973 24.2105 5.51016 24.1417 5.33335 24.1417H4.00002C3.82321 24.1417 3.65364 24.2105 3.52862 24.3328C3.40359 24.4552 3.33335 24.6211 3.33335 24.7942V26.0992Z" fill="white"/>
</g>
<defs>
<clipPath id="clip0_1_1226">
<rect width="46" height="46" fill="white"/>
</clipPath>
</defs>
</svg>
