<svg width="46" height="46" viewBox="0 0 46 46" fill="none" xmlns="http://www.w3.org/2000/svg">
<g clip-path="url(#clip0_0_179)">
<path d="M39.3333 0.748047H7.33332C5.56521 0.748047 3.86952 1.53608 2.61928 2.93879C1.36904 4.3415 0.666656 6.24399 0.666656 8.22772V38.1464C0.666656 40.1302 1.36904 42.0326 2.61928 43.4353C3.86952 44.8381 5.56521 45.6261 7.33332 45.6261H39.3333C41.1014 45.6261 42.7971 44.8381 44.0474 43.4353C45.2976 42.0326 46 40.1302 46 38.1464V8.22772C46 6.24399 45.2976 4.3415 44.0474 2.93879C42.7971 1.53608 41.1014 0.748047 39.3333 0.748047ZM7.33332 3.73992H39.3333C40.1577 3.74375 40.9608 4.03325 41.6329 4.5688C42.305 5.10435 42.8132 5.85979 43.088 6.73179H3.57866C3.85343 5.85979 4.36163 5.10435 5.03372 4.5688C5.70582 4.03325 6.50898 3.74375 7.33332 3.73992ZM39.3333 42.6342H7.33332C6.27246 42.6342 5.25504 42.1614 4.5049 41.3198C3.75475 40.4781 3.33332 39.3367 3.33332 38.1464V9.72366H43.3333V38.1464C43.3333 39.3367 42.9119 40.4781 42.1618 41.3198C41.4116 42.1614 40.3942 42.6342 39.3333 42.6342ZM36.6667 18.6993H30V17.2033C30 16.0131 29.5786 14.8716 28.8284 14.03C28.0783 13.1883 27.0609 12.7155 26 12.7155H20.6667C19.6058 12.7155 18.5884 13.1883 17.8382 14.03C17.0881 14.8716 16.6667 16.0131 16.6667 17.2033V24.683H9.99999C8.93912 24.683 7.92171 25.1558 7.17156 25.9975C6.42142 26.8391 5.99999 27.9806 5.99999 29.1708V35.1546C5.99999 36.3448 6.42142 37.4863 7.17156 38.3279C7.92171 39.1695 8.93912 39.6424 9.99999 39.6424H36.6667C37.7275 39.6424 38.7449 39.1695 39.4951 38.3279C40.2452 37.4863 40.6667 36.3448 40.6667 35.1546V23.1871C40.6667 21.9968 40.2452 20.8553 39.4951 20.0137C38.7449 19.1721 37.7275 18.6993 36.6667 18.6993ZM8.66666 35.1546V29.1708C8.66666 28.7741 8.80713 28.3936 9.05718 28.113C9.30723 27.8325 9.64637 27.6749 9.99999 27.6749H16.6667V36.6505H9.99999C9.64637 36.6505 9.30723 36.4929 9.05718 36.2123C8.80713 35.9318 8.66666 35.5513 8.66666 35.1546ZM27.3333 36.6505H19.3333V17.2033C19.3333 16.8066 19.4738 16.4261 19.7238 16.1455C19.9739 15.865 20.313 15.7074 20.6667 15.7074H26C26.3536 15.7074 26.6928 15.865 26.9428 16.1455C27.1929 16.4261 27.3333 16.8066 27.3333 17.2033V36.6505ZM38 35.1546C38 35.5513 37.8595 35.9318 37.6095 36.2123C37.3594 36.4929 37.0203 36.6505 36.6667 36.6505H30V21.6911H36.6667C37.0203 21.6911 37.3594 21.8487 37.6095 22.1293C37.8595 22.4098 38 22.7903 38 23.1871V35.1546Z" fill="white"/>
</g>
<defs>
<clipPath id="clip0_0_179">
<rect width="46" height="46" fill="white"/>
</clipPath>
</defs>
</svg>
