<svg width="46" height="46" viewBox="0 0 46 46" fill="none" xmlns="http://www.w3.org/2000/svg">
<g clip-path="url(#clip0_0_173)">
<path d="M44.6666 21.9998C44.313 21.9998 43.9739 22.1403 43.7238 22.3904C43.4738 22.6404 43.3333 22.9795 43.3333 23.3332V39.3332C43.3333 40.394 42.9119 41.4115 42.1617 42.1616C41.4116 42.9117 40.3942 43.3332 39.3333 43.3332H33.04L34.88 35.9758C34.9776 35.5828 34.9844 35.1726 34.8998 34.7766C34.8153 34.3805 34.6417 34.0089 34.3921 33.6899C34.1425 33.3709 33.8236 33.113 33.4595 32.9357C33.0953 32.7584 32.6956 32.6663 32.2906 32.6665H25.0746C24.2031 30.835 22.7587 29.3372 20.96 28.3998C22.0072 27.5185 22.7577 26.3362 23.1097 25.0135C23.4617 23.6908 23.398 22.2919 22.9273 21.0066C22.4566 19.7214 21.6018 18.6122 20.4788 17.8296C19.3559 17.0471 18.0193 16.6291 16.6506 16.6325C15.2819 16.6359 13.9474 17.0605 12.8284 17.8487C11.7094 18.6368 10.86 19.7503 10.3958 21.0379C9.93152 22.3254 9.87482 23.7247 10.2334 25.0456C10.5919 26.3665 11.3484 27.5451 12.4 28.4212C10.8777 29.2009 9.5996 30.3848 8.70584 31.8431C7.81209 33.3013 7.33721 34.9775 7.33329 36.6878V43.3332C6.80801 43.3332 6.28786 43.2297 5.80256 43.0287C5.31726 42.8277 4.8763 42.533 4.50487 42.1616C4.13343 41.7902 3.83879 41.3492 3.63777 40.8639C3.43676 40.3786 3.33329 39.8585 3.33329 39.3332V13.9998H18C18.3536 13.9998 18.6927 13.8594 18.9428 13.6093C19.1928 13.3593 19.3333 13.0201 19.3333 12.6665C19.3333 12.3129 19.1928 11.9737 18.9428 11.7237C18.6927 11.4736 18.3536 11.3332 18 11.3332H3.57863C3.8534 10.556 4.3616 9.88263 5.03369 9.40529C5.70579 8.92795 6.50895 8.66992 7.33329 8.6665H18C18.3536 8.6665 18.6927 8.52603 18.9428 8.27598C19.1928 8.02593 19.3333 7.68679 19.3333 7.33317C19.3333 6.97955 19.1928 6.64041 18.9428 6.39036C18.6927 6.14031 18.3536 5.99984 18 5.99984H7.33329C5.56518 5.99984 3.86949 6.70222 2.61925 7.95246C1.369 9.2027 0.666626 10.8984 0.666626 12.6665V39.3332C0.666626 41.1013 1.369 42.797 2.61925 44.0472C3.86949 45.2975 5.56518 45.9998 7.33329 45.9998H39.3333C41.1014 45.9998 42.7971 45.2975 44.0473 44.0472C45.2976 42.797 46 41.1013 46 39.3332V23.3332C46 22.9795 45.8595 22.6404 45.6094 22.3904C45.3594 22.1403 45.0202 21.9998 44.6666 21.9998ZM16.6666 19.3332C17.4578 19.3332 18.2311 19.5678 18.8889 20.0073C19.5467 20.4468 20.0594 21.0715 20.3621 21.8024C20.6649 22.5333 20.7441 23.3376 20.5898 24.1135C20.4354 24.8895 20.0545 25.6022 19.4951 26.1616C18.9356 26.721 18.2229 27.102 17.447 27.2563C16.6711 27.4107 15.8668 27.3314 15.1359 27.0287C14.405 26.7259 13.7803 26.2132 13.3407 25.5555C12.9012 24.8977 12.6666 24.1243 12.6666 23.3332C12.6666 22.2723 13.0881 21.2549 13.8382 20.5047C14.5883 19.7546 15.6058 19.3332 16.6666 19.3332ZM14.2933 43.3332H9.99996V36.6665C9.99996 35.2673 10.4402 33.9035 11.2583 32.7684C12.0765 31.6333 13.231 30.7844 14.5584 30.3419C15.8859 29.8995 17.3188 29.8859 18.6544 30.3031C19.99 30.7203 21.1604 31.5471 22 32.6665H19.744C18.9495 32.6653 18.1775 32.9305 17.5515 33.4197C16.9254 33.909 16.4815 34.5939 16.2906 35.3652L14.2933 43.3332ZM30.2933 43.3332H17.04L18.872 36.0105C18.9197 35.8169 19.0311 35.6449 19.1882 35.5221C19.3454 35.3993 19.5392 35.3327 19.7386 35.3332H32.2933L30.2933 43.3332ZM40.6666 0.666504H27.3333C25.9188 0.666504 24.5623 1.22841 23.5621 2.2286C22.5619 3.22879 22 4.58535 22 5.99984V13.9998C22 15.4143 22.5619 16.7709 23.5621 17.7711C24.5623 18.7713 25.9188 19.3332 27.3333 19.3332V21.9998C27.3332 22.2357 27.3958 22.4674 27.5145 22.6713C27.6333 22.8751 27.804 23.0438 28.0092 23.1601C28.2145 23.2764 28.4469 23.3362 28.6828 23.3334C28.9187 23.3305 29.1496 23.2651 29.352 23.1438L35.704 19.3332H40.6666C42.0811 19.3332 43.4377 18.7713 44.4379 17.7711C45.4381 16.7709 46 15.4143 46 13.9998V5.99984C46 4.58535 45.4381 3.22879 44.4379 2.2286C43.4377 1.22841 42.0811 0.666504 40.6666 0.666504ZM43.3333 13.9998C43.3333 14.7071 43.0523 15.3854 42.5522 15.8855C42.0522 16.3856 41.3739 16.6665 40.6666 16.6665H35.3333C35.0918 16.6653 34.8546 16.7309 34.648 16.8558L30 19.6452V17.9998C30 17.6462 29.8595 17.3071 29.6094 17.057C29.3594 16.807 29.0202 16.6665 28.6666 16.6665H27.3333C26.626 16.6665 25.9478 16.3856 25.4477 15.8855C24.9476 15.3854 24.6666 14.7071 24.6666 13.9998V5.99984C24.6666 5.29259 24.9476 4.61432 25.4477 4.11422C25.9478 3.61412 26.626 3.33317 27.3333 3.33317H40.6666C41.3739 3.33317 42.0522 3.61412 42.5522 4.11422C43.0523 4.61432 43.3333 5.29259 43.3333 5.99984V13.9998ZM40.6666 7.33317C40.6666 7.68679 40.5262 8.02593 40.2761 8.27598C40.0261 8.52603 39.6869 8.6665 39.3333 8.6665H28.6666C28.313 8.6665 27.9739 8.52603 27.7238 8.27598C27.4738 8.02593 27.3333 7.68679 27.3333 7.33317C27.3333 6.97955 27.4738 6.64041 27.7238 6.39036C27.9739 6.14031 28.313 5.99984 28.6666 5.99984H39.3333C39.6869 5.99984 40.0261 6.14031 40.2761 6.39036C40.5262 6.64041 40.6666 6.97955 40.6666 7.33317ZM38 12.6665C38 13.0201 37.8595 13.3593 37.6094 13.6093C37.3594 13.8594 37.0202 13.9998 36.6666 13.9998H28.6666C28.313 13.9998 27.9739 13.8594 27.7238 13.6093C27.4738 13.3593 27.3333 13.0201 27.3333 12.6665C27.3333 12.3129 27.4738 11.9737 27.7238 11.7237C27.9739 11.4736 28.313 11.3332 28.6666 11.3332H36.6666C37.0202 11.3332 37.3594 11.4736 37.6094 11.7237C37.8595 11.9737 38 12.3129 38 12.6665Z" fill="white"/>
</g>
<defs>
<clipPath id="clip0_0_173">
<rect width="46" height="46" fill="white"/>
</clipPath>
</defs>
</svg>
