<svg width="20" height="20" viewBox="0 0 20 20" fill="none" xmlns="http://www.w3.org/2000/svg">
<path d="M10 0C8.61979 0 7.32422 0.260416 6.11328 0.78125C4.88932 1.30208 3.82487 2.01497 2.91992 2.91992C2.01497 3.82487 1.30208 4.88932 0.78125 6.11328C0.260417 7.32422 0 8.61979 0 10C0 11.3802 0.260417 12.6758 0.78125 13.8867C1.30208 15.1107 2.01497 16.1751 2.91992 17.0801C3.82487 17.985 4.88932 18.6979 6.11328 19.2188C7.32422 19.7396 8.61979 20 10 20C11.3802 20 12.6758 19.7396 13.8867 19.2188C15.1107 18.6979 16.1751 17.985 17.0801 17.0801C17.985 16.1751 18.6979 15.1107 19.2188 13.8867C19.7396 12.6758 20 11.3802 20 10C20 8.61979 19.7396 7.32422 19.2188 6.11328C18.6979 4.88932 17.985 3.82487 17.0801 2.91992C16.1751 2.01497 15.1107 1.30208 13.8867 0.78125C12.6758 0.260416 11.3802 0 10 0ZM7.08984 15.1172H4.66797V7.79297H7.08984V15.1172ZM5.87891 6.79688H5.85938C5.45573 6.79688 5.13021 6.67318 4.88281 6.42578C4.63542 6.17839 4.51172 5.87891 4.51172 5.52734C4.51172 5.16276 4.63867 4.86003 4.89258 4.61914C5.14648 4.37825 5.48177 4.25781 5.89844 4.25781C6.3151 4.25781 6.64388 4.37825 6.88477 4.61914C7.12565 4.86003 7.24609 5.16276 7.24609 5.52734C7.24609 5.87891 7.1224 6.17839 6.875 6.42578C6.6276 6.67318 6.29557 6.79688 5.87891 6.79688ZM15.8789 15.1172H13.4375V11.1914C13.4375 10.6966 13.3431 10.2962 13.1543 9.99023C12.9655 9.68425 12.6497 9.53125 12.207 9.53125C11.8685 9.53125 11.5983 9.62565 11.3965 9.81445C11.1947 10.0033 11.0482 10.2083 10.957 10.4297C10.931 10.5078 10.9115 10.599 10.8984 10.7031C10.8854 10.8073 10.8789 10.918 10.8789 11.0352V15.1172H8.4375C8.4375 15.1172 8.4375 14.7656 8.4375 14.0625C8.45052 13.3724 8.45703 12.5911 8.45703 11.7188C8.45703 10.8464 8.45703 10.013 8.45703 9.21875C8.45703 8.4375 8.45052 7.96224 8.4375 7.79297H10.8789V8.82812C11.0352 8.58073 11.2793 8.31706 11.6113 8.03711C11.9434 7.75716 12.4284 7.61719 13.0664 7.61719C13.8737 7.61719 14.5443 7.88411 15.0781 8.41797C15.612 8.95182 15.8789 9.78516 15.8789 10.918V15.1172Z" fill="white"/>
</svg>
