<svg width="119" height="58" viewBox="0 0 119 58" fill="none" xmlns="http://www.w3.org/2000/svg">
<path d="M41.9565 2.33094C41.9571 1.92022 41.9615 1.61017 41.9579 1.3002C41.9479 0.442525 42.3996 0.0299606 43.2273 0.0152544C44.1571 -0.00126856 45.0876 -0.00706025 46.0172 0.0116015C47.0869 0.0330769 47.4399 0.369544 47.4508 1.45035C47.4739 3.75803 47.461 6.06607 47.4637 8.37397C47.4706 14.2643 47.4803 20.1546 47.4835 26.0449C47.4843 27.4361 47.3218 27.5934 45.9492 27.6069C45.3981 27.6124 44.8469 27.6094 44.2958 27.609C42.523 27.6077 42.523 27.6075 41.863 26.1067C41.5844 26.0123 41.4074 26.2141 41.2193 26.3468C38.1931 28.4821 34.9646 28.6556 31.7642 26.9693C28.4498 25.2229 26.8734 22.2504 26.664 18.5446C26.4752 15.2043 27.42 12.2749 29.9452 9.98318C32.7452 7.4421 37.8766 6.46028 41.8335 9.45997C42.0794 7.05083 41.903 4.73659 41.9565 2.33094ZM39.6435 13.2443C37.7654 12.3447 35.8882 12.2888 34.1862 13.5611C32.4983 14.8228 31.9397 16.6451 32.2128 18.69C32.6026 21.6088 35.1794 23.5798 37.7998 23.0396C39.9537 22.5957 41.4195 21.3519 41.9319 19.2095C42.5038 16.8185 41.8057 14.8055 39.6435 13.2443Z" fill="white"/>
<path d="M43.2314 0.249023C44.1595 0.232531 45.0871 0.226536 46.0127 0.245117C46.537 0.255662 46.8108 0.345939 46.9658 0.5C47.1199 0.653109 47.2115 0.924876 47.2168 1.45312C47.2399 3.75926 47.2268 6.06419 47.2295 8.37402C47.2364 14.2644 47.2467 20.1547 47.25 26.0449C47.2502 26.3922 47.2398 26.6452 47.207 26.834C47.1746 27.0209 47.1235 27.1179 47.0645 27.1777C47.0055 27.2374 46.9099 27.2883 46.7256 27.3223C46.5392 27.3566 46.2899 27.3697 45.9473 27.373C45.3978 27.3785 44.8485 27.3754 44.2959 27.375C43.8486 27.3747 43.5288 27.374 43.2822 27.3516C43.0376 27.3293 42.8924 27.2869 42.7852 27.2207C42.6799 27.1557 42.5864 27.0526 42.4756 26.8584C42.3626 26.6604 42.2441 26.3924 42.0771 26.0127L42.0361 25.918L41.9385 25.8848L41.8594 25.8633C41.6784 25.8241 41.5233 25.8673 41.3965 25.9355C41.3287 25.972 41.2685 26.0158 41.2188 26.0537C41.1636 26.0957 41.1266 26.1252 41.084 26.1553C38.1303 28.2393 34.9962 28.4083 31.873 26.7627C28.6439 25.0612 27.1031 22.1703 26.8975 18.5312C26.712 15.2485 27.6385 12.3924 30.1025 10.1562C32.8328 7.67863 37.8391 6.72538 41.6924 9.64648L42.0244 9.89844L42.0664 9.4834C42.3131 7.0651 42.1376 4.70862 42.1904 2.33594V2.33105C42.191 1.9246 42.195 1.60948 42.1914 1.29785C42.1869 0.909024 42.2869 0.661172 42.4424 0.507812C42.5997 0.352675 42.8525 0.255759 43.2314 0.249023ZM39.7441 13.0332C37.809 12.1064 35.8347 12.0369 34.0459 13.374C32.2769 14.6966 31.6987 16.6101 31.9805 18.7207C32.3857 21.7547 35.0753 23.8396 37.8467 23.2686C38.9555 23.04 39.9018 22.6025 40.6387 21.9346C41.3767 21.2655 41.8932 20.3758 42.1592 19.2637C42.4537 18.0322 42.4247 16.8828 42.0322 15.834C41.6396 14.7852 40.8909 13.8566 39.7803 13.0547L39.7637 13.042L39.7441 13.0332Z" stroke="white" stroke-opacity="0.01" stroke-width="0.467949"/>
<path d="M25.0904 37.0385C22.9226 35.4212 20.5651 34.741 17.9433 35.0277C17.6044 35.0647 17.2624 35.1359 16.9393 35.2435C15.9615 35.5693 15.168 36.1681 15.0764 37.2378C14.9841 38.3159 15.7967 38.875 16.6644 39.3109C18.0652 40.0147 19.6026 40.276 21.0978 40.6699C22.4323 41.0214 23.7566 41.4029 24.9948 42.0188C27.5196 43.2748 29.2849 45.1114 29.4887 48.0886C29.7258 51.5505 28.3592 54.2111 25.3585 55.9348C21.0018 58.4376 13.5533 57.611 9.76282 54.3064C9.05714 53.6912 8.82692 53.0919 9.39822 52.2587C9.88418 51.55 10.2673 50.7712 10.7463 50.0573C11.4576 48.9969 11.9112 48.9237 12.9193 49.7466C15.0119 51.4548 17.3557 52.3536 20.0839 52.0799C20.5262 52.0356 20.9751 51.9739 21.3993 51.8476C22.7968 51.4312 23.5311 50.6073 23.6075 49.4316C23.6856 48.2298 23.1073 47.4828 21.64 46.8548C20.2385 46.255 18.7526 45.9495 17.2836 45.5855C15.775 45.2116 14.2795 44.7836 12.9437 43.9728C10.3651 42.4075 9.25805 40.0367 9.46835 37.0827C9.70529 33.7547 11.4639 31.4199 14.6051 30.3875C19.177 28.8848 23.5167 29.7399 27.5578 32.2271C28.6842 32.9204 28.7235 33.376 28.0342 34.5159C27.5888 35.2525 27.1346 35.984 26.686 36.7187C26.2958 37.3577 25.8079 37.5747 25.0904 37.0385Z" fill="white"/>
<path d="M14.6777 30.6096C19.1724 29.1324 23.4417 29.9678 27.4355 32.426C27.9977 32.772 28.2031 33.0131 28.2471 33.2473C28.2931 33.4923 28.1823 33.8187 27.834 34.3948C27.3886 35.1313 26.9365 35.8597 26.4863 36.5969C26.303 36.8971 26.1248 37.0485 25.9521 37.093C25.7883 37.1351 25.5601 37.0971 25.2305 36.8508C23.018 35.2001 20.6018 34.5018 17.918 34.7952C17.5642 34.8338 17.2056 34.9083 16.8652 35.0217C15.8495 35.3602 14.947 36.0119 14.8438 37.218C14.7915 37.8294 14.9991 38.3016 15.3379 38.6731C15.6683 39.0353 16.121 39.2995 16.5596 39.5198C17.9893 40.2381 19.57 40.5091 21.0381 40.8958C22.3714 41.247 23.6756 41.6244 24.8906 42.2288C27.3688 43.4616 29.0585 45.2374 29.2549 48.1047C29.371 49.8003 29.0943 51.2863 28.4307 52.5549C27.7672 53.8231 26.7096 54.8887 25.2422 55.7317C23.1188 56.9515 20.2207 57.369 17.373 57.0657C14.5258 56.7623 11.7663 55.7423 9.91699 54.1301C9.57772 53.8343 9.38817 53.5713 9.33008 53.3127C9.27456 53.0654 9.32858 52.7733 9.59082 52.3909C9.83947 52.0283 10.0614 51.6493 10.2773 51.2776C10.4946 50.9035 10.706 50.5372 10.9404 50.1877C11.2981 49.6546 11.5387 49.4588 11.7549 49.427C11.9719 49.3953 12.2644 49.5141 12.7715 49.928C14.9024 51.6674 17.3062 52.5937 20.1074 52.3127C20.5537 52.268 21.0201 52.2043 21.4658 52.0715C22.1932 51.8548 22.7678 51.5262 23.1719 51.0813C23.5784 50.6337 23.7995 50.0823 23.8408 49.4465C23.8827 48.8012 23.748 48.2545 23.3887 47.7854C23.0354 47.3244 22.4822 46.9609 21.7324 46.6399C20.3084 46.0305 18.7958 45.7195 17.3398 45.3586C15.8332 44.9853 14.3683 44.5635 13.0654 43.7727C10.5672 42.2562 9.49761 39.9718 9.70215 37.0989C9.818 35.4727 10.3041 34.1024 11.1338 33.0159C11.9632 31.9299 13.146 31.1131 14.6777 30.6096Z" stroke="white" stroke-opacity="0.01" stroke-width="0.467949"/>
<path d="M70.327 11.6126C73.9049 6.62927 81.0824 6.6709 84.8422 9.72496C87.5911 11.9579 88.5393 14.9196 88.3827 18.3368C88.3407 19.2539 87.7833 19.5385 86.9238 19.535C83.0341 19.5191 79.1443 19.5306 75.2546 19.5403C74.8852 19.5413 74.4967 19.4432 74.152 19.6637C74.1247 21.3704 75.6416 22.9327 77.7212 23.3238C79.8914 23.7319 81.9089 23.2901 83.706 22.044C84.5331 21.4705 85.0726 21.5807 85.7426 22.2711C87.8579 24.4508 87.8802 24.9035 85.2181 26.3896C81.1333 28.6698 76.9116 28.8992 72.8743 26.3601C68.0525 23.3276 66.9773 16.7749 70.327 11.6126ZM79.3426 15.6838C80.2381 15.6823 81.1341 15.6615 82.029 15.685C82.8395 15.7063 82.9715 15.3729 82.7025 14.663C82.0438 12.9245 80.554 12.026 78.3266 12.0783C76.444 12.1226 74.7989 13.2855 74.2588 14.8973C74.0328 15.572 74.3518 15.6856 74.8997 15.6839C76.3118 15.6794 77.724 15.6832 79.3426 15.6838Z" fill="white"/>
<path d="M77.5361 7.88806C80.1953 7.66177 82.8673 8.42262 84.6943 9.90662C87.3724 12.082 88.3035 14.9646 88.1494 18.3265C88.1306 18.736 88.0005 18.9602 87.8213 19.0922C87.6295 19.2332 87.3362 19.3028 86.9248 19.3011C83.0342 19.2853 79.1434 19.2963 75.2539 19.306C75.1705 19.3062 75.0851 19.301 74.9893 19.2953C74.8963 19.2897 74.7937 19.2838 74.6904 19.2855C74.4811 19.2891 74.249 19.3239 74.0264 19.4662L73.9199 19.5345L73.918 19.6595C73.8883 21.514 75.5232 23.1488 77.6777 23.5541C79.91 23.9739 81.9918 23.5181 83.8398 22.2367C84.2317 21.965 84.5138 21.8841 84.7529 21.9154C84.9962 21.9473 85.252 22.102 85.5742 22.434C86.1035 22.9794 86.4897 23.4037 86.7354 23.7582C86.9827 24.115 87.0611 24.3639 87.0391 24.5648C87.0174 24.7622 86.8912 24.9763 86.5703 25.2465C86.2499 25.5161 85.7694 25.8138 85.1045 26.1849C81.082 28.4304 76.9525 28.6487 72.999 26.1625C68.4522 23.3029 67.3032 17.2077 70.2275 12.2191L70.5234 11.7396C72.2662 9.31845 74.8846 8.11373 77.5361 7.88806ZM78.3213 11.8441C76.3507 11.8904 74.6118 13.1081 74.0371 14.8226C73.9196 15.1732 73.8999 15.5004 74.1289 15.7152C74.233 15.8127 74.3647 15.8607 74.4902 15.8861C74.6166 15.9117 74.7577 15.9188 74.9004 15.9183L79.3428 15.9174C80.245 15.9159 81.1319 15.8959 82.0225 15.9193C82.4319 15.9301 82.7982 15.8597 82.9717 15.5677C83.0561 15.4256 83.0733 15.2623 83.0576 15.1019C83.0419 14.9422 82.9915 14.7668 82.9209 14.5804C82.5746 13.6664 82.0055 12.9624 81.2227 12.4974C80.4425 12.0342 79.4667 11.8172 78.3213 11.8441Z" stroke="white" stroke-opacity="0.01" stroke-width="0.467949"/>
<path d="M82.009 53.0206C80.8496 48.7841 83.0582 45.782 87.7654 45.0493C89.9395 44.7109 92.1229 44.568 94.3078 44.7282C94.5376 42.9695 93.3975 41.7924 91.4596 41.6569C89.5836 41.5256 87.8285 41.9811 86.1893 42.8379C85.2313 43.3386 84.5771 43.1828 84.0428 42.2648C83.8188 41.8798 83.5288 41.5331 83.2683 41.1693C82.5946 40.2288 82.6257 39.574 83.6008 39.0281C87.4803 36.8559 91.5586 36.1859 95.7908 37.8619C98.7543 39.0355 99.8878 41.4909 99.9271 44.5184C99.9745 48.1668 99.961 51.8161 99.9513 55.465C99.9485 56.5164 99.5689 56.8679 98.4998 56.9012C97.8465 56.9215 97.1905 56.8721 96.5381 56.9029C95.4671 56.9535 94.6206 56.6964 94.3931 55.3132C93.0028 56.3941 91.5717 57.1012 89.9248 57.2812C86.8714 57.6149 83.1411 56.6073 82.009 53.0206ZM89.0194 48.7576C88.559 48.9051 88.1066 49.0654 87.7301 49.3882C86.7618 50.2184 86.7263 51.5697 87.7387 52.3408C89.1109 53.386 90.6313 53.3292 92.142 52.6715C93.5744 52.0478 94.4669 51.0174 94.519 49.357C94.5435 48.5761 94.3439 48.2036 93.4889 48.2649C92.0476 48.3681 90.6052 48.4405 89.0194 48.7576Z" fill="white"/>
<path d="M83.7148 39.2327C87.5475 37.0868 91.5522 36.4347 95.7051 38.0793C97.1408 38.648 98.1223 39.5221 98.7529 40.6125C99.3857 41.7068 99.6741 43.0349 99.6934 44.5217C99.7407 48.1677 99.7275 51.8149 99.7178 55.4641C99.7164 55.9721 99.6215 56.2419 99.4619 56.3977C99.2991 56.5566 99.014 56.651 98.4922 56.6672C98.1726 56.6772 97.8515 56.6703 97.5225 56.6643C97.1959 56.6584 96.8619 56.6534 96.5273 56.6692C96.0058 56.6938 95.5851 56.6395 95.2725 56.4465C94.9722 56.2612 94.7303 55.9213 94.624 55.2756L94.5605 54.887L94.25 55.1282C92.9681 56.1248 91.6646 56.7878 90.1953 57.01L89.8994 57.0491C86.9839 57.3677 83.5367 56.4383 82.3408 53.2639L82.2324 52.9504C81.6698 50.8873 81.9337 49.1581 82.877 47.8586C83.8247 46.553 85.4877 45.6407 87.8018 45.2805C89.9623 44.9442 92.1277 44.8025 94.291 44.9612L94.5107 44.9778L94.54 44.7581C94.6625 43.8195 94.42 43.013 93.8672 42.4241C93.318 41.8391 92.4864 41.4938 91.4756 41.4231C89.5495 41.2884 87.7516 41.757 86.0811 42.6301C85.625 42.8685 85.2847 42.9267 85.0156 42.8567C84.7502 42.7874 84.496 42.5779 84.2451 42.1467C84.014 41.7496 83.7043 41.3773 83.458 41.0334C83.1298 40.5752 83.0143 40.2386 83.0479 39.9807C83.0795 39.738 83.2558 39.4898 83.7148 39.2327ZM93.4727 48.0315C92.0375 48.1343 90.5773 48.2079 88.9736 48.5286L88.9609 48.5305L88.9482 48.5344C88.4886 48.6817 87.9941 48.8537 87.5781 49.2102C87.047 49.6656 86.7617 50.2737 86.7578 50.885C86.754 51.4987 87.034 52.0979 87.5967 52.5266C89.0563 53.6384 90.673 53.5662 92.2354 52.886C92.9778 52.5627 93.596 52.1268 94.0352 51.5432C94.4758 50.9575 94.7255 50.2372 94.7529 49.3645C94.7653 48.9703 94.7275 48.6008 94.5127 48.345C94.2855 48.0743 93.924 47.9992 93.4727 48.0315Z" stroke="white" stroke-opacity="0.01" stroke-width="0.467949"/>
<path d="M0.363873 26.2017C-0.313159 25.7702 0.13337 25.2752 0.286106 24.8594C2.08821 19.9525 3.91671 15.0553 5.74546 10.1583C6.62379 7.80626 7.51621 5.45952 8.40447 3.11125C8.94056 1.69399 9.5412 1.24814 11.0136 1.23174C12.5623 1.2145 14.1113 1.22702 15.6601 1.22936C16.7054 1.23093 17.5985 1.59311 18.0192 2.58662C19.0514 5.02459 20.048 7.47903 20.8615 10.0018C20.8995 10.1198 20.8664 10.2607 20.8664 10.4617C19.9558 10.4617 19.0726 10.4546 18.1897 10.4642C17.6351 10.4703 16.9856 10.4399 16.9201 11.1887C16.8614 11.8602 17.3727 12.1252 17.9674 12.2401C18.3006 12.3044 18.6288 12.3954 18.941 12.4699C19.0974 12.9429 18.75 13.1356 18.5248 13.365C17.199 14.7161 15.8468 16.0416 14.5365 17.4075C14.0199 17.9461 13.6537 17.9903 13.111 17.4078C11.4097 15.5818 11.3694 15.6142 9.57557 17.3811C6.80512 20.11 4.01569 22.8196 1.22924 25.5322C0.984941 25.77 0.703068 25.9692 0.363873 26.2017Z" fill="white"/>
<path d="M15.6602 1.46301C16.6514 1.46459 17.4331 1.80252 17.8037 2.67786C18.8353 5.1143 19.8285 7.56089 20.6387 10.0734C20.6439 10.0896 20.6479 10.1185 20.6445 10.1896C20.644 10.2008 20.6435 10.2136 20.6426 10.2277C19.8125 10.2267 18.9992 10.2217 18.1875 10.2306C17.9298 10.2334 17.5786 10.2246 17.292 10.3282C17.1402 10.3832 16.9947 10.4726 16.8828 10.6183C16.7713 10.7636 16.7069 10.947 16.6875 11.1681C16.6517 11.5772 16.7932 11.8865 17.0479 12.1017C17.2883 12.3047 17.6116 12.4097 17.9229 12.4698C18.2011 12.5236 18.4699 12.5936 18.7432 12.6613C18.7459 12.6922 18.7457 12.7183 18.7422 12.7404C18.7348 12.786 18.7164 12.8287 18.6846 12.8741C18.6511 12.9218 18.6054 12.9688 18.5469 13.0236C18.4951 13.0719 18.418 13.1396 18.3574 13.2013C17.0368 14.547 15.6777 15.8791 14.3672 17.2452C14.1155 17.5076 13.9525 17.5906 13.8281 17.5939C13.7092 17.5968 13.5428 17.5278 13.2822 17.2482C12.8603 16.7953 12.5279 16.4428 12.2432 16.2052C11.9594 15.9684 11.685 15.8132 11.3779 15.8136C11.0732 15.8141 10.7941 15.9681 10.501 16.1993C10.2059 16.4322 9.85565 16.7761 9.41113 17.214C6.64139 19.9422 3.85304 22.6516 1.06641 25.3644C0.869996 25.5556 0.643116 25.7197 0.367188 25.9113C0.308249 25.8581 0.275313 25.8116 0.257812 25.7726C0.231722 25.7143 0.227082 25.6506 0.243164 25.5704C0.260221 25.4857 0.298914 25.3936 0.350586 25.2843C0.397784 25.1844 0.462859 25.0567 0.505859 24.9396C2.30764 20.0336 4.13614 15.1373 5.96484 10.2404C6.84288 7.88913 7.73465 5.5431 8.62305 3.19446C8.88569 2.50012 9.14983 2.08631 9.49512 1.83606C9.83863 1.5872 10.2994 1.47393 11.0166 1.46594C12.5632 1.44873 14.1094 1.46068 15.6602 1.46301Z" stroke="white" stroke-opacity="0.01" stroke-width="0.467949"/>
<path d="M69.9233 55.4462C65.9242 58.0461 61.1402 58.1109 57.4247 55.5307C53.7998 53.0133 52.7042 49.386 53.3797 45.1958C54.0194 41.2273 56.3705 38.5616 60.2241 37.4459C64.2097 36.2919 67.9302 36.9731 71.1806 39.6685C72.3749 40.6588 72.3629 41.1363 71.203 42.1112C70.6232 42.5985 70.0276 43.0685 69.4663 43.5763C68.6866 44.2818 67.9985 44.2575 67.2154 43.5244C65.8069 42.2058 64.126 41.7701 62.2439 42.2748C59.6875 42.9604 58.5762 45.0806 58.688 47.4393C58.8209 50.2439 60.7338 52.1519 63.2308 52.318C64.8505 52.4257 66.1889 51.873 67.3943 50.8491C68.5397 49.8763 68.785 49.8929 69.9341 50.9005C70.4779 51.3773 71.0148 51.862 71.5637 52.3329C72.2461 52.9182 72.194 53.513 71.5697 54.0809C71.0611 54.5435 70.5143 54.964 69.9233 55.4462Z" fill="white"/>
<path d="M60.2891 37.6708C64.2036 36.5374 67.8431 37.2048 71.0312 39.8485C71.3249 40.092 71.531 40.2937 71.6631 40.4706C71.7938 40.6458 71.8404 40.781 71.8408 40.8964C71.8412 41.0115 71.7964 41.1453 71.6689 41.3182C71.5399 41.4932 71.3382 41.6925 71.0527 41.9325C70.4806 42.4134 69.8748 42.8918 69.3096 43.4032C68.944 43.7339 68.6329 43.8635 68.3486 43.8563C68.062 43.8489 67.7458 43.7005 67.375 43.3534C65.9084 41.9805 64.1446 41.5229 62.1836 42.0487C60.8518 42.4059 59.8849 43.1415 59.2686 44.1034C58.6543 45.0622 58.3964 46.232 58.4541 47.4501C58.5924 50.3669 60.593 52.3771 63.2148 52.5516C64.906 52.6641 66.3029 52.0829 67.5459 51.0272C67.8315 50.7847 68.0483 50.6151 68.2314 50.5067C68.412 50.3999 68.5427 50.3633 68.6572 50.3661C68.7727 50.3689 68.9054 50.4122 69.0889 50.5282C69.2743 50.6455 69.4932 50.8243 69.7803 51.076C70.3202 51.5495 70.8614 52.0391 71.4111 52.5106C71.7233 52.7784 71.8271 53.0123 71.8232 53.2089C71.8193 53.4103 71.7014 53.645 71.4121 53.9081C70.9127 54.3623 70.3789 54.7716 69.7852 55.2557C65.8603 57.8022 61.1856 57.8573 57.5586 55.3387C55.7824 54.1053 54.6335 52.6066 54.0088 50.91C53.3833 49.2112 53.2774 47.2987 53.6104 45.2333C54.2358 41.3538 56.5229 38.7612 60.2891 37.6708Z" stroke="white" stroke-opacity="0.01" stroke-width="0.467949"/>
<path d="M53.8371 21.7003C52.3102 17.7786 50.8113 13.9319 49.3234 10.0808C48.7169 8.51104 49.0217 8.06213 50.677 8.04766C51.5721 8.03983 52.4695 8.08622 53.3616 8.03488C54.3087 7.98037 54.8252 8.39717 55.1115 9.27549C56.2626 12.8068 57.4423 16.3287 58.6058 19.856C58.7009 20.1441 58.7255 20.4595 58.9886 20.6706C59.3042 20.6027 59.278 20.3248 59.349 20.1108C60.5625 16.4543 61.788 12.8017 62.9778 9.13747C63.2138 8.4107 63.617 8.03388 64.3835 8.03994C65.485 8.04866 66.5874 8.01963 67.6881 8.05204C68.741 8.08304 69.0972 8.55877 68.7407 9.50325C66.5906 15.1999 64.4195 20.8886 62.2559 26.5802C61.9815 27.3021 61.5131 27.6722 60.6885 27.6345C59.5547 27.5826 58.4153 27.5824 57.2814 27.6316C56.4125 27.6692 55.9561 27.2765 55.6724 26.4982C55.095 24.9147 54.4731 23.3474 53.8371 21.7003Z" fill="white"/>
<path d="M53.375 8.26843C53.8116 8.2433 54.1194 8.3278 54.3467 8.49402C54.5762 8.66194 54.7544 8.93575 54.8887 9.34753C56.0399 12.8791 57.2208 16.4038 58.3838 19.9296C58.4049 19.9938 58.422 20.06 58.4424 20.1356C58.4621 20.2088 58.4846 20.2912 58.5137 20.3719C58.5731 20.5366 58.665 20.7116 58.8418 20.8534L58.9287 20.9227L59.0381 20.8993C59.1511 20.8749 59.2476 20.8279 59.3252 20.7577C59.4018 20.6883 59.4476 20.607 59.4775 20.5321C59.5064 20.4597 59.5238 20.3857 59.5361 20.329C59.5499 20.2659 59.5584 20.2232 59.5713 20.1844C60.7844 16.529 62.0101 12.8749 63.2002 9.20984C63.3106 8.86979 63.4517 8.64023 63.6299 8.495C63.804 8.35323 64.0393 8.27158 64.3818 8.27429C65.496 8.28311 66.5824 8.25364 67.6816 8.28601C68.1894 8.30102 68.4442 8.42359 68.5537 8.57312C68.6582 8.7161 68.6911 8.97147 68.5215 9.42078C66.3715 15.117 64.2008 20.8051 62.0371 26.4969C61.9105 26.8301 61.748 27.0573 61.5439 27.2001C61.3418 27.3414 61.0736 27.4184 60.6992 27.4012C59.5585 27.3491 58.4121 27.3479 57.2715 27.3973C56.875 27.4145 56.6006 27.3333 56.3965 27.1825C56.1891 27.0292 56.0258 26.7833 55.8926 26.4178C55.3142 24.8317 54.6906 23.2604 54.0557 21.6161L54.0547 21.6151C52.5279 17.6936 51.0297 13.8473 49.542 9.99695C49.3929 9.61105 49.3058 9.30993 49.2783 9.07605C49.251 8.84315 49.2856 8.70267 49.3467 8.61121C49.4074 8.5203 49.5218 8.4372 49.7432 8.37683C49.966 8.31609 50.272 8.28568 50.6787 8.2821C51.5527 8.27446 52.4774 8.32008 53.375 8.26843Z" stroke="white" stroke-opacity="0.01" stroke-width="0.467949"/>
<path d="M118.373 11.7459C118.367 12.5805 117.854 12.7649 117.266 12.7883C116.409 12.8223 115.549 12.8299 114.693 12.7955C113.986 12.767 113.741 13.0262 113.756 13.7523C113.806 16.126 113.775 18.5012 113.803 20.8755C113.825 22.6252 114.737 23.449 116.446 23.066C117.462 22.8384 117.843 23.195 118.081 24.0495C118.229 24.5788 118.422 25.0952 118.579 25.6221C118.911 26.7374 118.774 27.0338 117.694 27.3868C116.065 27.9196 114.392 28.071 112.706 27.7501C110.247 27.2823 108.382 24.9898 108.331 22.3102C108.278 19.5236 108.282 16.7348 108.327 13.9481C108.342 13.039 108.08 12.7699 107.148 12.8174C104.363 12.9594 104.361 12.9182 104.265 10.1459C104.201 8.30684 104.448 8.05447 106.283 8.04797C108.512 8.04007 108.297 8.2706 108.303 5.97029C108.304 5.31642 108.327 4.66149 108.298 4.00894C108.258 3.10305 108.653 2.65689 109.57 2.66643C110.533 2.67646 111.497 2.68265 112.46 2.66169C113.276 2.64394 113.691 3.05208 113.72 3.82903C113.758 4.85982 113.774 5.89356 113.741 6.92415C113.715 7.74533 113.991 8.13474 114.87 8.06854C115.657 8.0092 116.452 8.05475 117.243 8.04685C118.006 8.03924 118.393 8.39072 118.38 9.17322C118.366 9.99896 118.376 10.8251 118.373 11.7459Z" fill="white"/>
<path d="M112.465 2.89551C112.835 2.88745 113.075 2.97706 113.225 3.11816C113.375 3.25918 113.473 3.48747 113.486 3.83789C113.524 4.86547 113.54 5.89371 113.507 6.91699C113.493 7.34187 113.554 7.72508 113.794 7.9873C114.042 8.25751 114.421 8.33691 114.888 8.30176C115.666 8.24312 116.432 8.28937 117.246 8.28125C117.596 8.27782 117.811 8.35702 117.939 8.48145C118.066 8.60428 118.151 8.81354 118.146 9.16895C118.132 9.99599 118.143 10.8287 118.14 11.7441C118.137 12.1103 118.026 12.2868 117.896 12.3848C117.753 12.4937 117.537 12.5435 117.256 12.5547C116.404 12.5885 115.551 12.5956 114.702 12.5615C114.331 12.5466 114.006 12.602 113.786 12.8281C113.57 13.051 113.515 13.3808 113.522 13.7568C113.572 16.133 113.54 18.4919 113.569 20.8779C113.58 21.7861 113.823 22.5104 114.341 22.9492C114.862 23.3912 115.604 23.4942 116.498 23.2939C116.981 23.1858 117.252 23.2315 117.426 23.3467C117.605 23.4656 117.74 23.6979 117.855 24.1123C117.931 24.3828 118.018 24.6489 118.104 24.9102C118.191 25.1727 118.277 25.4294 118.354 25.6885C118.436 25.9633 118.485 26.1736 118.5 26.3398C118.515 26.5037 118.494 26.6092 118.456 26.6865C118.377 26.8457 118.17 26.9849 117.622 27.1641C116.026 27.686 114.393 27.8333 112.749 27.5205C110.408 27.075 108.614 24.8835 108.565 22.3057C108.513 19.5224 108.517 16.7365 108.562 13.9521C108.569 13.4943 108.513 13.1061 108.256 12.8564C107.999 12.6066 107.607 12.5601 107.137 12.584C106.436 12.6197 105.929 12.6422 105.553 12.6162C105.175 12.5901 104.978 12.5171 104.858 12.4043C104.738 12.2907 104.651 12.0963 104.596 11.7188C104.541 11.3432 104.522 10.8363 104.498 10.1377C104.482 9.67949 104.487 9.33742 104.526 9.07812C104.565 8.82093 104.636 8.67068 104.73 8.57227C104.825 8.47385 104.973 8.39818 105.229 8.34961C105.486 8.3007 105.827 8.28385 106.284 8.28223C106.828 8.28031 107.25 8.29316 107.551 8.27734C107.844 8.26191 108.112 8.21837 108.294 8.03223C108.474 7.84786 108.516 7.57668 108.531 7.27637C108.547 6.96713 108.535 6.53343 108.536 5.9707C108.538 5.32725 108.562 4.65774 108.532 3.99805C108.513 3.5751 108.599 3.31225 108.746 3.1543C108.892 2.99818 109.143 2.89597 109.567 2.90039C110.531 2.91042 111.498 2.91654 112.465 2.89551Z" stroke="white" stroke-opacity="0.01" stroke-width="0.467949"/>
<path d="M17.8951 16.8386C18.7246 16.0303 19.4651 15.2271 20.4064 14.6807C21.0553 15.3036 20.4384 16.258 21.1148 16.735C21.945 17.3204 22.2854 16.4039 22.7554 16.0563C23.1934 16.2525 23.235 16.6228 23.3468 16.9317C24.3411 19.6808 25.3384 22.4291 26.3054 25.1879C26.7629 26.4932 26.0216 27.5773 24.6182 27.5821C17.5258 27.6064 10.4332 27.5966 3.34064 27.595C3.14241 27.595 2.92337 27.6296 2.71484 27.3794C2.84903 26.8619 3.29008 26.5099 3.65977 26.1409C5.99852 23.8065 8.3661 21.5011 10.7053 19.1671C11.2409 18.6328 11.6853 18.6031 12.1537 19.2097C12.3218 19.4275 12.4987 19.6392 12.6809 19.8455C13.4098 20.6711 13.9861 20.7157 14.7726 19.9534C15.8107 18.9473 16.821 17.9126 17.8951 16.8386Z" fill="white"/>
<path d="M20.3564 14.9873C20.4936 15.1982 20.5069 15.4511 20.5166 15.7695C20.5275 16.1284 20.5344 16.6112 20.9805 16.9258C21.2175 17.0929 21.4456 17.1711 21.6689 17.1582C21.8909 17.1453 22.0713 17.0449 22.2168 16.9277C22.3592 16.813 22.4856 16.6673 22.5928 16.5459C22.6624 16.4671 22.7243 16.3984 22.7832 16.3408C22.9882 16.4869 23.0142 16.7001 23.127 17.0117C24.1214 19.7611 25.1185 22.5083 26.085 25.2656C26.2936 25.8612 26.22 26.3767 25.9678 26.7383C25.7157 27.0993 25.2577 27.3455 24.6172 27.3477C17.5254 27.3719 10.4336 27.3629 3.34082 27.3613C3.21667 27.3613 3.15441 27.3682 3.08105 27.3525C3.05088 27.3461 3.01888 27.3342 2.98438 27.3115C3.0479 27.1522 3.14784 27.0048 3.27539 26.8584C3.44194 26.6673 3.62686 26.5046 3.8252 26.3066C4.99397 25.1401 6.16996 23.9803 7.34668 22.8203C8.52308 21.6606 9.70007 20.5004 10.8701 19.333C11.1248 19.0789 11.3124 18.9932 11.4531 18.9941C11.5842 18.995 11.7528 19.0729 11.9688 19.3525C12.1405 19.575 12.3209 19.7905 12.5059 20C12.8814 20.4253 13.2615 20.7038 13.6914 20.7285C14.1246 20.7533 14.5276 20.5165 14.9355 20.1211C15.9746 19.114 16.988 18.0764 18.0586 17.0059C18.8488 16.236 19.5262 15.5101 20.3564 14.9873Z" stroke="white" stroke-opacity="0.01" stroke-width="0.467949"/>
<path d="M108.035 35.8044C108.036 42.2729 108.039 48.638 108.039 55.0031C108.039 56.5307 107.793 56.7991 106.274 56.8773C105.656 56.9091 105.035 56.8942 104.416 56.8911C102.797 56.8828 102.546 56.6404 102.544 55.0486C102.538 50.1974 102.536 45.3461 102.534 40.4949C102.532 37.3984 102.527 34.3018 102.531 31.2053C102.533 29.7717 102.763 29.5532 104.227 29.5441C105.018 29.5391 105.81 29.5287 106.601 29.5435C107.711 29.5643 108.02 29.8617 108.031 30.953C108.046 32.5356 108.035 34.1184 108.035 35.8044Z" fill="white"/>
<path d="M106.597 29.7771C107.149 29.7874 107.418 29.8697 107.564 30.0134C107.709 30.1552 107.792 30.4149 107.797 30.9558C107.812 32.5367 107.801 34.1163 107.801 35.8044L107.805 55.0027C107.805 55.3815 107.789 55.6664 107.747 55.8845C107.705 56.1001 107.641 56.2333 107.556 56.324C107.471 56.4144 107.343 56.4864 107.133 56.5398C106.973 56.5804 106.774 56.6074 106.526 56.6267L106.262 56.6433C105.653 56.6747 105.042 56.6602 104.417 56.657C104.015 56.6549 103.714 56.6378 103.485 56.5935C103.259 56.5496 103.126 56.4832 103.038 56.3972C102.951 56.3116 102.883 56.1817 102.839 55.9617C102.794 55.7387 102.779 55.444 102.778 55.0486C102.772 50.1975 102.77 45.3462 102.768 40.4949C102.766 37.3981 102.76 34.302 102.765 31.2058C102.765 30.85 102.78 30.5867 102.82 30.3884C102.86 30.193 102.919 30.0807 102.994 30.0076C103.07 29.9339 103.187 29.8751 103.39 29.8357C103.594 29.7959 103.865 29.7804 104.229 29.7781C105.022 29.7731 105.809 29.7624 106.597 29.7771Z" stroke="white" stroke-opacity="0.01" stroke-width="0.467949"/>
<path d="M49.2082 53.7238C44.917 58.5032 37.4278 58.3756 33.5255 53.5478C32.8763 52.7446 32.8367 52.1899 33.6517 51.4805C35.1829 50.1478 36.6538 48.7445 38.1218 47.3414C38.6945 46.7941 39.1152 46.7537 39.6327 47.4219C40.1149 48.0447 40.6976 48.5922 41.2557 49.1534C42.1746 50.0776 42.6415 50.0732 43.6038 49.1678C45.6596 47.2336 47.7154 45.2993 49.772 43.3657C49.9707 43.1789 50.1413 42.951 50.433 42.8938C52.026 44.4126 52.3645 50.1917 49.2082 53.7238Z" fill="white"/>
<path d="M50.3643 43.1624C50.677 43.5108 50.9477 44.0684 51.1309 44.7874C51.3307 45.5721 51.4225 46.5237 51.3682 47.5413C51.2662 49.4514 50.6518 51.5679 49.3115 53.2395L49.0342 53.5676C44.835 58.2444 37.5149 58.1116 33.707 53.4006C33.3905 53.009 33.2655 52.7261 33.2734 52.4866C33.2811 52.2555 33.4167 51.996 33.8057 51.6575C35.3414 50.3208 36.8158 48.9135 38.2832 47.511C38.5617 47.2448 38.7511 47.1565 38.8936 47.1594C39.0264 47.1624 39.202 47.2481 39.4473 47.5647C39.9411 48.2024 40.5398 48.7654 41.0898 49.3186C41.5495 49.7808 41.957 50.0787 42.4131 50.0803C42.8662 50.0817 43.284 49.7894 43.7637 49.3381C45.8196 47.4039 47.8761 45.4699 49.9326 43.5364C49.9858 43.4864 50.0385 43.4324 50.084 43.387C50.1315 43.3394 50.174 43.2969 50.2178 43.26C50.2671 43.2185 50.3152 43.1863 50.3643 43.1624Z" stroke="white" stroke-opacity="0.01" stroke-width="0.467949"/>
<path d="M96.9788 14.6883C96.31 15.5321 96.0187 16.4255 96.0195 17.4279C96.0218 20.2171 96.0187 23.0064 96.0037 25.7956C95.995 27.3993 95.734 27.6322 94.1368 27.6298C93.3804 27.6287 92.6237 27.7005 91.8675 27.6955C91.0155 27.6899 90.5343 27.3138 90.536 26.3739C90.5459 20.6575 90.5382 14.9411 90.5195 9.22477C90.5167 8.36745 90.9573 8.05571 91.7339 8.05175C92.5948 8.04737 93.4572 8.07806 94.3162 8.03605C95.2937 7.98823 95.7211 8.40729 95.6554 9.3823C95.6332 9.71055 95.6974 10.0446 95.739 10.6029C97.0426 9.1837 98.3399 8.13057 100.123 7.93914C100.396 7.90981 100.668 7.85807 100.942 7.84484C102.575 7.76606 102.893 8.0682 102.89 9.68263C102.889 10.268 102.891 10.8536 102.878 11.4388C102.853 12.6086 102.577 12.9014 101.401 12.9197C99.7247 12.9459 98.1905 13.3066 96.9788 14.6883Z" fill="white"/>
<path d="M100.953 8.07861C101.357 8.05913 101.663 8.0647 101.897 8.10303C102.13 8.14103 102.273 8.20864 102.369 8.29932C102.465 8.38974 102.539 8.52663 102.588 8.75244C102.637 8.98135 102.657 9.28286 102.656 9.68213C102.655 10.2691 102.656 10.8519 102.644 11.4341C102.631 12.0218 102.552 12.2976 102.404 12.4468C102.258 12.5945 101.986 12.6769 101.397 12.686C99.7954 12.711 98.2785 13.0371 97.0459 14.2739L96.8027 14.5337L96.7949 14.5435C96.093 15.4293 95.7843 16.3743 95.7852 17.4282C95.7874 20.2171 95.7846 23.0059 95.7695 25.7944C95.7674 26.1927 95.7499 26.4889 95.7041 26.7124C95.6589 26.9332 95.5902 27.0622 95.5029 27.147C95.4153 27.2321 95.2825 27.2975 95.0586 27.3394C94.8322 27.3817 94.534 27.3966 94.1367 27.396C93.7522 27.3954 93.3681 27.413 92.9912 27.4302C92.6124 27.4474 92.2401 27.4639 91.8691 27.4614C91.4722 27.4588 91.2079 27.3695 91.042 27.2144C90.8795 27.0622 90.7688 26.8067 90.7695 26.3745C90.7794 20.6577 90.7725 14.9407 90.7539 9.22412C90.7526 8.83362 90.8513 8.61754 90.9902 8.49268C91.135 8.36276 91.3713 8.2875 91.7354 8.28564C92.5826 8.28134 93.4623 8.3123 94.3271 8.27002C94.7893 8.24741 95.0598 8.33876 95.2119 8.49072C95.3629 8.64163 95.4528 8.90765 95.4219 9.3667C95.4095 9.55044 95.4217 9.73144 95.4404 9.92822C95.4595 10.1293 95.4852 10.3442 95.5059 10.6206L95.5459 11.1587L95.9111 10.7612C97.2052 9.35235 98.4534 8.35336 100.148 8.17139C100.45 8.13897 100.685 8.0916 100.953 8.07861Z" stroke="white" stroke-opacity="0.01" stroke-width="0.467949"/>
<path d="M43.7904 46.0395C42.3728 47.4246 42.373 47.4244 41.0442 46.0766C40.7785 45.8071 40.5118 45.5385 40.2431 45.2719C38.9976 44.0359 38.6631 44.0313 37.3482 45.2518C35.9109 46.5859 34.4842 47.9314 33.0409 49.259C32.6444 49.6237 32.2897 50.0618 31.6264 50.2421C30.931 48.7532 30.8473 47.1776 31.0844 45.6279C31.6915 41.659 33.8403 38.8023 37.6962 37.5377C41.684 36.2299 45.3733 36.9583 48.556 39.7859C49.4848 40.6111 49.478 40.7884 48.5519 41.6575C46.9967 43.117 45.4135 44.5467 43.7904 46.0395Z" fill="white"/>
<path d="M37.7695 37.7604C41.679 36.4783 45.2809 37.1892 48.4004 39.9606C48.6326 40.1668 48.7922 40.3206 48.8936 40.4489C48.9939 40.5759 49.0158 40.6517 49.0156 40.7037C49.0153 40.7574 48.991 40.8375 48.8877 40.9723C48.7843 41.1071 48.6233 41.2695 48.3916 41.4869C46.8375 42.9453 45.2571 44.3721 43.6318 45.8668L43.627 45.8717C43.2686 46.2218 43.0127 46.4712 42.8047 46.6354C42.5948 46.801 42.4724 46.848 42.3809 46.8492C42.2924 46.8504 42.1776 46.8095 41.9814 46.652C41.7856 46.4947 41.5472 46.2538 41.2109 45.9127C40.9449 45.6429 40.6776 45.3734 40.4082 45.1061C40.0959 44.7962 39.8281 44.5506 39.582 44.3824C39.3338 44.2128 39.0887 44.1091 38.8232 44.1071C38.5586 44.1051 38.3098 44.2048 38.0537 44.3698C37.7993 44.5337 37.5191 44.7747 37.1895 45.0807C35.7501 46.4168 34.3259 47.7592 32.8828 49.0865C32.5068 49.4324 32.2263 49.7677 31.7539 49.9518C31.1621 48.5725 31.0935 47.1149 31.3154 45.6637C31.9108 41.7717 34.0069 38.9944 37.7695 37.7604Z" stroke="white" stroke-opacity="0.01" stroke-width="0.467949"/>
<path d="M79.6631 51.516C79.6692 52.8595 79.696 54.1 79.6752 55.3396C79.6552 56.5375 79.2963 56.8904 78.1204 56.8892C77.1914 56.8882 76.2622 56.8437 75.3334 56.8086C74.5742 56.7798 74.2182 56.3638 74.2182 55.6153C74.2177 49.9312 74.2172 44.2472 74.2129 38.5631C74.2123 37.7919 74.6103 37.4154 75.3537 37.4032C76.3524 37.3867 77.3516 37.4025 78.3506 37.3963C79.1004 37.3916 79.5048 37.7775 79.595 38.4983C79.6419 38.8728 79.6575 39.2533 79.658 39.6311C79.6631 43.5583 79.6622 47.4855 79.6631 51.516Z" fill="white"/>
<path d="M78.3516 37.6298C78.6862 37.6277 78.9126 37.7125 79.0635 37.8485C79.2153 37.9855 79.3227 38.2031 79.3633 38.5272C79.4086 38.889 79.4234 39.2597 79.4238 39.6317C79.4289 43.5586 79.4278 47.4859 79.4287 51.5165V51.5175C79.4349 52.8662 79.4621 54.0994 79.4414 55.3358C79.4315 55.9274 79.3349 56.2304 79.166 56.3983C78.998 56.5651 78.7005 56.6557 78.1211 56.6552C77.1978 56.6542 76.2746 56.6104 75.3428 56.5751C75.0035 56.5622 74.7927 56.4647 74.6641 56.3241C74.5335 56.1812 74.4522 55.9554 74.4521 55.6151C74.4517 49.9313 74.4516 44.2473 74.4473 38.5634C74.447 38.2161 74.536 37.9979 74.6699 37.8641C74.8046 37.7297 75.022 37.6431 75.3574 37.6376C76.3566 37.6211 77.3437 37.6361 78.3516 37.6298Z" stroke="white" stroke-opacity="0.01" stroke-width="0.467949"/>
<path d="M73.5938 32.6735C73.6706 30.7481 74.5335 29.6298 76.1908 29.2153C77.4403 28.9029 79.0909 29.6519 79.8017 30.8539C80.7639 32.481 80.1767 34.5426 78.4959 35.4383C76.7548 36.3662 74.8001 35.7634 73.9535 34.038C73.7557 33.6349 73.5894 33.2236 73.5938 32.6735Z" fill="white"/>
<path d="M76.2471 29.4421C76.8083 29.3018 77.4791 29.397 78.1016 29.6794C78.723 29.9614 79.2735 30.4203 79.6006 30.9734C80.4937 32.4842 79.9503 34.3984 78.3857 35.2322C76.7562 36.1005 74.9488 35.5364 74.1631 33.9353C73.9711 33.5441 73.8232 33.1706 73.8271 32.6746C73.8652 31.748 74.0921 31.0408 74.4863 30.5193C74.88 29.9985 75.4589 29.6393 76.2471 29.4421Z" stroke="white" stroke-opacity="0.01" stroke-width="0.467949"/>
</svg>
