<svg width="1600" height="146" viewBox="0 0 1600 146" fill="none" xmlns="http://www.w3.org/2000/svg">
<g clip-path="url(#clip0_649_4352)">
<path d="M1600 145.414V29.0829L1236 2.90829C1216.64 1.45415 1200 15.4139 1200 33.0091C1200 50.6042 1183.36 64.7094 1164 63.2553L836 39.5527C816.64 38.0986 800 52.0583 800 69.7989C800 87.5395 783.36 101.354 764 100.045L436 76.3425C416.64 74.8884 400 88.8482 400 106.589C400 124.329 383.36 138.144 364 136.69L-2.38419e-05 110.515V145.414H1600Z" fill="white"/>
</g>
<defs>
<clipPath id="clip0_649_4352">
<rect width="1600" height="145.414" fill="white" transform="matrix(-1 0 0 -1 1600 145.414)"/>
</clipPath>
</defs>
</svg>
