<svg width="400" height="400" viewBox="0 0 400 400" fill="none" xmlns="http://www.w3.org/2000/svg">
<path d="M360 24C360 32.8366 367.163 40 376 40H384C392.837 40 400 47.1634 400 56V157C400 161.418 396.418 165 392 165C387.582 165 384 168.582 384 173V227C384 231.418 387.582 235 392 235C396.418 235 400 238.582 400 243V384C400 392.837 392.837 400 384 400H16C7.16345 400 0 392.837 0 384V153.5C0 147.149 5.14873 142 11.5 142C17.8513 142 23 136.851 23 130.5V83.5C23 77.1487 17.8513 72 11.5 72C5.14873 72 0 66.8513 0 60.5V16C0 7.16344 7.16344 0 16 0H344C352.837 0 360 7.16344 360 16V24Z" fill="url(#paint0_linear_917_4347)"/>
<defs>
<linearGradient id="paint0_linear_917_4347" x1="200" y1="0" x2="200" y2="400" gradientUnits="userSpaceOnUse">
<stop stop-color="#6A0DAD"/>
<stop offset="1" stop-color="#10C67E"/>
</linearGradient>
</defs>
</svg>
