<svg width="94" height="94" viewBox="0 0 94 94" fill="none" xmlns="http://www.w3.org/2000/svg">
<rect x="0.5" y="0.5" width="93" height="93" rx="11.5" fill="#282828"/>
<rect x="0.5" y="0.5" width="93" height="93" rx="11.5" stroke="url(#paint0_linear_646_933)"/>
<g clip-path="url(#clip0_646_933)">
<path d="M68.667 46.0001C68.3134 46.0001 67.9742 46.1406 67.7242 46.3906C67.4741 46.6407 67.3337 46.9798 67.3337 47.3334V63.3334C67.3337 64.3943 66.9122 65.4117 66.1621 66.1618C65.4119 66.912 64.3945 67.3334 63.3337 67.3334H57.0403L58.8803 59.9761C58.9779 59.583 58.9847 59.1729 58.9002 58.7768C58.8157 58.3807 58.642 58.0091 58.3925 57.6902C58.1429 57.3712 57.8239 57.1133 57.4598 56.9359C57.0957 56.7586 56.696 56.6666 56.291 56.6667H49.075C48.2035 54.8352 46.7591 53.3374 44.9603 52.4001C46.0075 51.5188 46.7581 50.3365 47.1101 49.0138C47.462 47.6911 47.3984 46.2921 46.9277 45.0069C46.457 43.7216 45.6021 42.6124 44.4792 41.8299C43.3563 41.0473 42.0197 40.6294 40.651 40.6328C39.2823 40.6362 37.9478 41.0608 36.8287 41.8489C35.7097 42.6371 34.8604 43.7505 34.3961 45.0381C33.9319 46.3257 33.8752 47.7249 34.2337 49.0459C34.5923 50.3668 35.3487 51.5453 36.4003 52.4214C34.8781 53.2012 33.6 54.3851 32.7062 55.8433C31.8125 57.3015 31.3376 58.9777 31.3337 60.6881V67.3334C30.8084 67.3334 30.2882 67.2299 29.8029 67.0289C29.3176 66.8279 28.8767 66.5333 28.5052 66.1618C28.1338 65.7904 27.8392 65.3494 27.6381 64.8641C27.4371 64.3788 27.3337 63.8587 27.3337 63.3334V38.0001H42.0003C42.3539 38.0001 42.6931 37.8596 42.9431 37.6096C43.1932 37.3595 43.3337 37.0204 43.3337 36.6667C43.3337 36.3131 43.1932 35.974 42.9431 35.7239C42.6931 35.4739 42.3539 35.3334 42.0003 35.3334H27.579C27.8538 34.5562 28.362 33.8829 29.0341 33.4055C29.7062 32.9282 30.5093 32.6702 31.3337 32.6667H42.0003C42.3539 32.6667 42.6931 32.5263 42.9431 32.2762C43.1932 32.0262 43.3337 31.687 43.3337 31.3334C43.3337 30.9798 43.1932 30.6407 42.9431 30.3906C42.6931 30.1406 42.3539 30.0001 42.0003 30.0001H31.3337C29.5655 30.0001 27.8699 30.7025 26.6196 31.9527C25.3694 33.2029 24.667 34.8986 24.667 36.6667V63.3334C24.667 65.1015 25.3694 66.7972 26.6196 68.0475C27.8699 69.2977 29.5655 70.0001 31.3337 70.0001H63.3337C65.1018 70.0001 66.7975 69.2977 68.0477 68.0475C69.2979 66.7972 70.0003 65.1015 70.0003 63.3334V47.3334C70.0003 46.9798 69.8599 46.6407 69.6098 46.3906C69.3598 46.1406 69.0206 46.0001 68.667 46.0001ZM40.667 43.3334C41.4581 43.3334 42.2315 43.568 42.8893 44.0075C43.5471 44.4471 44.0598 45.0718 44.3625 45.8027C44.6653 46.5336 44.7445 47.3379 44.5901 48.1138C44.4358 48.8897 44.0548 49.6024 43.4954 50.1618C42.936 50.7213 42.2233 51.1022 41.4474 51.2566C40.6714 51.4109 39.8672 51.3317 39.1363 51.0289C38.4054 50.7262 37.7806 50.2135 37.3411 49.5557C36.9016 48.8979 36.667 48.1245 36.667 47.3334C36.667 46.2725 37.0884 45.2551 37.8386 44.505C38.5887 43.7548 39.6061 43.3334 40.667 43.3334ZM38.2937 67.3334H34.0003V60.6667C34.0003 59.2675 34.4406 57.9038 35.2587 56.7687C36.0768 55.6336 37.2314 54.7847 38.5588 54.3422C39.8862 53.8997 41.3192 53.8861 42.6548 54.3033C43.9903 54.7205 45.1608 55.5474 46.0003 56.6667H43.7443C42.9498 56.6656 42.1778 56.9308 41.5518 57.42C40.9258 57.9092 40.4819 58.5942 40.291 59.3654L38.2937 67.3334ZM54.2937 67.3334H41.0403L42.8723 60.0107C42.9201 59.8171 43.0315 59.6451 43.1886 59.5223C43.3457 59.3995 43.5396 59.333 43.739 59.3334H56.2937L54.2937 67.3334ZM64.667 24.6667H51.3337C49.9192 24.6667 48.5626 25.2287 47.5624 26.2288C46.5622 27.229 46.0003 28.5856 46.0003 30.0001V38.0001C46.0003 39.4146 46.5622 40.7711 47.5624 41.7713C48.5626 42.7715 49.9192 43.3334 51.3337 43.3334V46.0001C51.3336 46.236 51.3962 46.4677 51.5149 46.6715C51.6337 46.8754 51.8044 47.0441 52.0096 47.1604C52.2148 47.2767 52.4473 47.3365 52.6832 47.3336C52.9191 47.3307 53.15 47.2653 53.3523 47.1441L59.7043 43.3334H64.667C66.0815 43.3334 67.438 42.7715 68.4382 41.7713C69.4384 40.7711 70.0003 39.4146 70.0003 38.0001V30.0001C70.0003 28.5856 69.4384 27.229 68.4382 26.2288C67.438 25.2287 66.0815 24.6667 64.667 24.6667ZM67.3337 38.0001C67.3337 38.7073 67.0527 39.3856 66.5526 39.8857C66.0525 40.3858 65.3742 40.6667 64.667 40.6667H59.3337C59.0921 40.6656 58.855 40.7311 58.6483 40.8561L54.0003 43.6454V42.0001C54.0003 41.6465 53.8599 41.3073 53.6098 41.0573C53.3598 40.8072 53.0206 40.6667 52.667 40.6667H51.3337C50.6264 40.6667 49.9481 40.3858 49.448 39.8857C48.9479 39.3856 48.667 38.7073 48.667 38.0001V30.0001C48.667 29.2928 48.9479 28.6146 49.448 28.1145C49.9481 27.6144 50.6264 27.3334 51.3337 27.3334H64.667C65.3742 27.3334 66.0525 27.6144 66.5526 28.1145C67.0527 28.6146 67.3337 29.2928 67.3337 30.0001V38.0001ZM64.667 31.3334C64.667 31.687 64.5265 32.0262 64.2765 32.2762C64.0264 32.5263 63.6873 32.6667 63.3337 32.6667H52.667C52.3134 32.6667 51.9742 32.5263 51.7242 32.2762C51.4741 32.0262 51.3337 31.687 51.3337 31.3334C51.3337 30.9798 51.4741 30.6407 51.7242 30.3906C51.9742 30.1406 52.3134 30.0001 52.667 30.0001H63.3337C63.6873 30.0001 64.0264 30.1406 64.2765 30.3906C64.5265 30.6407 64.667 30.9798 64.667 31.3334ZM62.0003 36.6667C62.0003 37.0204 61.8599 37.3595 61.6098 37.6096C61.3598 37.8596 61.0206 38.0001 60.667 38.0001H52.667C52.3134 38.0001 51.9742 37.8596 51.7242 37.6096C51.4741 37.3595 51.3337 37.0204 51.3337 36.6667C51.3337 36.3131 51.4741 35.974 51.7242 35.7239C51.9742 35.4739 52.3134 35.3334 52.667 35.3334H60.667C61.0206 35.3334 61.3598 35.4739 61.6098 35.7239C61.8599 35.974 62.0003 36.3131 62.0003 36.6667Z" fill="white"/>
</g>
<defs>
<linearGradient id="paint0_linear_646_933" x1="2.01953" y1="90.8667" x2="110.695" y2="51.0443" gradientUnits="userSpaceOnUse">
<stop stop-color="#00E676"/>
<stop offset="0.79" stop-color="#6A0DAD"/>
</linearGradient>
<clipPath id="clip0_646_933">
<rect width="46" height="46" fill="white" transform="translate(24 24)"/>
</clipPath>
</defs>
</svg>
