<svg width="94" height="94" viewBox="0 0 94 94" fill="none" xmlns="http://www.w3.org/2000/svg">
<rect x="0.5" y="0.5" width="93" height="93" rx="11.5" fill="#282828"/>
<rect x="0.5" y="0.5" width="93" height="93" rx="11.5" stroke="url(#paint0_linear_646_2123)"/>
<g clip-path="url(#clip0_646_2123)">
<path d="M63.3327 24.748H31.3327C29.5646 24.748 27.8689 25.5361 26.6186 26.9388C25.3684 28.3415 24.666 30.244 24.666 32.2277V62.1464C24.666 64.1302 25.3684 66.0326 26.6186 67.4353C27.8689 68.8381 29.5646 69.6261 31.3327 69.6261H63.3327C65.1008 69.6261 66.7965 68.8381 68.0467 67.4353C69.297 66.0326 69.9994 64.1302 69.9994 62.1464V32.2277C69.9994 30.244 69.297 28.3415 68.0467 26.9388C66.7965 25.5361 65.1008 24.748 63.3327 24.748ZM31.3327 27.7399H63.3327C64.157 27.7438 64.9602 28.0332 65.6323 28.5688C66.3044 29.1043 66.8126 29.8598 67.0874 30.7318H27.578C27.8528 29.8598 28.361 29.1043 29.0331 28.5688C29.7052 28.0332 30.5083 27.7438 31.3327 27.7399ZM63.3327 66.6342H31.3327C30.2718 66.6342 29.2544 66.1614 28.5043 65.3198C27.7541 64.4781 27.3327 63.3367 27.3327 62.1464V33.7237H67.3327V62.1464C67.3327 63.3367 66.9113 64.4781 66.1611 65.3198C65.411 66.1614 64.3935 66.6342 63.3327 66.6342ZM60.666 42.6993H53.9993V41.2033C53.9993 40.0131 53.5779 38.8716 52.8278 38.03C52.0776 37.1883 51.0602 36.7155 49.9993 36.7155H44.666C43.6052 36.7155 42.5877 37.1883 41.8376 38.03C41.0874 38.8716 40.666 40.0131 40.666 41.2033V48.683H33.9993C32.9385 48.683 31.9211 49.1558 31.1709 49.9975C30.4208 50.8391 29.9993 51.9806 29.9993 53.1708V59.1546C29.9993 60.3448 30.4208 61.4863 31.1709 62.3279C31.9211 63.1695 32.9385 63.6424 33.9993 63.6424H60.666C61.7269 63.6424 62.7443 63.1695 63.4944 62.3279C64.2446 61.4863 64.666 60.3448 64.666 59.1546V47.1871C64.666 45.9968 64.2446 44.8553 63.4944 44.0137C62.7443 43.1721 61.7269 42.6993 60.666 42.6993ZM32.666 59.1546V53.1708C32.666 52.7741 32.8065 52.3936 33.0565 52.113C33.3066 51.8325 33.6457 51.6749 33.9993 51.6749H40.666V60.6505H33.9993C33.6457 60.6505 33.3066 60.4929 33.0565 60.2123C32.8065 59.9318 32.666 59.5513 32.666 59.1546ZM51.3327 60.6505H43.3327V41.2033C43.3327 40.8066 43.4732 40.4261 43.7232 40.1455C43.9733 39.865 44.3124 39.7074 44.666 39.7074H49.9993C50.353 39.7074 50.6921 39.865 50.9422 40.1455C51.1922 40.4261 51.3327 40.8066 51.3327 41.2033V60.6505ZM61.9994 59.1546C61.9994 59.5513 61.8589 59.9318 61.6088 60.2123C61.3588 60.4929 61.0196 60.6505 60.666 60.6505H53.9993V45.6911H60.666C61.0196 45.6911 61.3588 45.8487 61.6088 46.1293C61.8589 46.4098 61.9994 46.7903 61.9994 47.1871V59.1546Z" fill="white"/>
</g>
<defs>
<linearGradient id="paint0_linear_646_2123" x1="2.01953" y1="90.8667" x2="110.695" y2="51.0443" gradientUnits="userSpaceOnUse">
<stop stop-color="#00E676"/>
<stop offset="0.79" stop-color="#6A0DAD"/>
</linearGradient>
<clipPath id="clip0_646_2123">
<rect width="46" height="46" fill="white" transform="translate(24 24)"/>
</clipPath>
</defs>
</svg>
