<svg width="132" height="148" viewBox="0 0 132 148" fill="none" xmlns="http://www.w3.org/2000/svg">
<rect width="132" height="148" rx="66" fill="url(#paint0_linear_516_5139)"/>
<path d="M58.6244 58.168C57.691 58.168 56.879 57.9627 56.1884 57.552C55.4977 57.132 54.961 56.5487 54.5784 55.802C54.1957 55.046 54.0044 54.1687 54.0044 53.17C54.0044 52.162 54.2004 51.2753 54.5924 50.51C54.9844 49.7353 55.549 49.1287 56.2864 48.69C57.0237 48.2513 57.9057 48.032 58.9324 48.032C60.0804 48.032 61.0324 48.3073 61.7884 48.858C62.5537 49.4087 63.0484 50.174 63.2724 51.154H61.1584C61.0184 50.7247 60.757 50.3887 60.3744 50.146C60.001 49.894 59.5157 49.768 58.9184 49.768C58.2837 49.768 57.7424 49.908 57.2944 50.188C56.8464 50.468 56.5057 50.86 56.2724 51.364C56.039 51.868 55.9224 52.47 55.9224 53.17C55.9224 53.8793 56.039 54.4813 56.2724 54.976C56.5057 55.4707 56.837 55.8487 57.2664 56.11C57.705 56.362 58.2184 56.488 58.8064 56.488C59.665 56.488 60.3137 56.2593 60.7524 55.802C61.2004 55.3353 61.4664 54.7333 61.5504 53.996H59.1424V52.582H63.4544V58H61.7044L61.5644 56.754C61.359 57.062 61.1164 57.3233 60.8364 57.538C60.5657 57.7433 60.2484 57.8973 59.8844 58C59.5204 58.112 59.1004 58.168 58.6244 58.168ZM68.5688 58.168C67.8595 58.168 67.2295 58.0187 66.6788 57.72C66.1375 57.412 65.7128 56.9873 65.4048 56.446C65.1062 55.8953 64.9568 55.2607 64.9568 54.542C64.9568 53.8047 65.1062 53.156 65.4048 52.596C65.7128 52.0267 66.1375 51.5833 66.6788 51.266C67.2202 50.9393 67.8502 50.776 68.5688 50.776C69.2688 50.776 69.8802 50.93 70.4028 51.238C70.9255 51.546 71.3315 51.9613 71.6208 52.484C71.9102 53.0067 72.0548 53.5993 72.0548 54.262C72.0548 54.3553 72.0548 54.4627 72.0548 54.584C72.0548 54.696 72.0455 54.8127 72.0268 54.934H66.3008V53.786H70.1508C70.1228 53.3287 69.9595 52.9693 69.6608 52.708C69.3715 52.4467 69.0075 52.316 68.5688 52.316C68.2515 52.316 67.9575 52.3907 67.6868 52.54C67.4162 52.68 67.2015 52.8993 67.0428 53.198C66.8935 53.4967 66.8188 53.8747 66.8188 54.332V54.738C66.8188 55.1207 66.8888 55.4567 67.0288 55.746C67.1782 56.026 67.3835 56.2453 67.6448 56.404C67.9062 56.5533 68.2095 56.628 68.5548 56.628C68.9002 56.628 69.1848 56.5533 69.4088 56.404C69.6422 56.2547 69.8148 56.0633 69.9268 55.83H71.8588C71.7282 56.2687 71.5088 56.6653 71.2008 57.02C70.8928 57.3747 70.5148 57.6547 70.0668 57.86C69.6188 58.0653 69.1195 58.168 68.5688 58.168ZM76.685 58C76.1903 58 75.7563 57.9253 75.383 57.776C75.019 57.6173 74.7343 57.3607 74.529 57.006C74.3237 56.642 74.221 56.1473 74.221 55.522V52.526H73.017V50.944H74.221L74.431 49.026H76.111V50.944H77.973V52.526H76.111V55.55C76.111 55.8673 76.181 56.0867 76.321 56.208C76.461 56.3293 76.699 56.39 77.035 56.39H77.959V58H76.685ZM44.3839 74.168C43.6746 74.168 43.0399 74.0467 42.4799 73.804C41.9293 73.5613 41.4906 73.2067 41.1639 72.74C40.8466 72.2733 40.6833 71.7087 40.6739 71.046H42.6759C42.6853 71.3353 42.7599 71.5967 42.8999 71.83C43.0399 72.0633 43.2313 72.25 43.4739 72.39C43.7259 72.5207 44.0246 72.586 44.3699 72.586C44.6686 72.586 44.9253 72.5393 45.1399 72.446C45.3639 72.3433 45.5366 72.2033 45.6579 72.026C45.7793 71.8487 45.8399 71.6387 45.8399 71.396C45.8399 71.116 45.7699 70.8827 45.6299 70.696C45.4993 70.5093 45.3126 70.3507 45.0699 70.22C44.8366 70.0893 44.5613 69.9727 44.2439 69.87C43.9359 69.758 43.6093 69.6413 43.2639 69.52C42.4893 69.268 41.8966 68.932 41.4859 68.512C41.0846 68.092 40.8839 67.5367 40.8839 66.846C40.8839 66.258 41.0239 65.754 41.3039 65.334C41.5933 64.914 41.9899 64.592 42.4939 64.368C42.9979 64.144 43.5719 64.032 44.2159 64.032C44.8786 64.032 45.4573 64.1487 45.9519 64.382C46.4559 64.606 46.8526 64.9327 47.1419 65.362C47.4406 65.7913 47.5946 66.2953 47.6039 66.874H45.5879C45.5786 66.6593 45.5133 66.4587 45.3919 66.272C45.2799 66.076 45.1213 65.922 44.9159 65.81C44.7106 65.6887 44.4679 65.628 44.1879 65.628C43.9453 65.6187 43.7213 65.656 43.5159 65.74C43.3199 65.824 43.1613 65.95 43.0399 66.118C42.9279 66.2767 42.8719 66.4773 42.8719 66.72C42.8719 66.9533 42.9279 67.1493 43.0399 67.308C43.1613 67.4667 43.3246 67.6067 43.5299 67.728C43.7353 67.84 43.9779 67.9473 44.2579 68.05C44.5379 68.1433 44.8413 68.2413 45.1679 68.344C45.6533 68.512 46.1013 68.7127 46.5119 68.946C46.9226 69.17 47.2493 69.464 47.4919 69.828C47.7346 70.192 47.8559 70.6727 47.8559 71.27C47.8559 71.7833 47.7206 72.2593 47.4499 72.698C47.1793 73.1367 46.7873 73.4913 46.2739 73.762C45.7699 74.0327 45.1399 74.168 44.3839 74.168ZM52.5952 74C52.1005 74 51.6665 73.9253 51.2932 73.776C50.9292 73.6173 50.6445 73.3607 50.4392 73.006C50.2338 72.642 50.1312 72.1473 50.1312 71.522V68.526H48.9272V66.944H50.1312L50.3412 65.026H52.0212V66.944H53.8832V68.526H52.0212V71.55C52.0212 71.8673 52.0912 72.0867 52.2312 72.208C52.3712 72.3293 52.6092 72.39 52.9452 72.39H53.8692V74H52.5952ZM57.8538 74.168C57.2658 74.168 56.7805 74.0747 56.3978 73.888C56.0151 73.692 55.7305 73.4353 55.5438 73.118C55.3665 72.7913 55.2778 72.432 55.2778 72.04C55.2778 71.6107 55.3851 71.2327 55.5998 70.906C55.8238 70.5793 56.1551 70.3227 56.5938 70.136C57.0418 69.9493 57.6018 69.856 58.2738 69.856H60.0238C60.0238 69.5107 59.9771 69.226 59.8838 69.002C59.7905 68.7687 59.6458 68.596 59.4498 68.484C59.2538 68.372 58.9925 68.316 58.6658 68.316C58.3111 68.316 58.0078 68.3953 57.7558 68.554C57.5131 68.7033 57.3638 68.9367 57.3078 69.254H55.4738C55.5205 68.75 55.6838 68.316 55.9638 67.952C56.2531 67.5787 56.6311 67.2893 57.0978 67.084C57.5738 66.8787 58.1011 66.776 58.6798 66.776C59.3425 66.776 59.9165 66.888 60.4018 67.112C60.8871 67.336 61.2605 67.658 61.5218 68.078C61.7831 68.498 61.9138 69.016 61.9138 69.632V74H60.3178L60.1078 72.922C60.0051 73.1087 59.8838 73.2767 59.7438 73.426C59.6038 73.5753 59.4405 73.706 59.2538 73.818C59.0671 73.93 58.8571 74.014 58.6238 74.07C58.3905 74.1353 58.1338 74.168 57.8538 74.168ZM58.3018 72.712C58.5445 72.712 58.7591 72.67 58.9458 72.586C59.1418 72.4927 59.3098 72.3713 59.4498 72.222C59.5898 72.0633 59.6971 71.886 59.7718 71.69C59.8558 71.4847 59.9118 71.2653 59.9398 71.032V71.018H58.4978C58.2085 71.018 57.9705 71.0553 57.7838 71.13C57.6065 71.1953 57.4758 71.2933 57.3918 71.424C57.3078 71.5547 57.2658 71.704 57.2658 71.872C57.2658 72.0587 57.3078 72.2127 57.3918 72.334C57.4758 72.4553 57.5971 72.5487 57.7558 72.614C57.9145 72.6793 58.0965 72.712 58.3018 72.712ZM63.6769 74V66.944H65.3569L65.5389 68.246C65.7069 67.938 65.9169 67.6767 66.1689 67.462C66.4303 67.2473 66.7243 67.0793 67.0509 66.958C67.3869 66.8367 67.7556 66.776 68.1569 66.776V68.778H67.5129C67.2329 68.778 66.9716 68.8107 66.7289 68.876C66.4956 68.9413 66.2903 69.0487 66.1129 69.198C65.9356 69.338 65.8003 69.534 65.7069 69.786C65.6136 70.038 65.5669 70.3553 65.5669 70.738V74H63.6769ZM72.5834 74C72.0888 74 71.6548 73.9253 71.2814 73.776C70.9174 73.6173 70.6328 73.3607 70.4274 73.006C70.2221 72.642 70.1194 72.1473 70.1194 71.522V68.526H68.9154V66.944H70.1194L70.3294 65.026H72.0094V66.944H73.8714V68.526H72.0094V71.55C72.0094 71.8673 72.0794 72.0867 72.2194 72.208C72.3594 72.3293 72.5974 72.39 72.9334 72.39H73.8574V74H72.5834ZM78.6724 74.168C77.963 74.168 77.333 74.0187 76.7824 73.72C76.241 73.412 75.8164 72.9873 75.5084 72.446C75.2097 71.8953 75.0604 71.2607 75.0604 70.542C75.0604 69.8047 75.2097 69.156 75.5084 68.596C75.8164 68.0267 76.241 67.5833 76.7824 67.266C77.3237 66.9393 77.9537 66.776 78.6724 66.776C79.3724 66.776 79.9837 66.93 80.5064 67.238C81.029 67.546 81.435 67.9613 81.7244 68.484C82.0137 69.0067 82.1584 69.5993 82.1584 70.262C82.1584 70.3553 82.1584 70.4627 82.1584 70.584C82.1584 70.696 82.149 70.8127 82.1304 70.934H76.4044V69.786H80.2544C80.2264 69.3287 80.063 68.9693 79.7644 68.708C79.475 68.4467 79.111 68.316 78.6724 68.316C78.355 68.316 78.061 68.3907 77.7904 68.54C77.5197 68.68 77.305 68.8993 77.1464 69.198C76.997 69.4967 76.9224 69.8747 76.9224 70.332V70.738C76.9224 71.1207 76.9924 71.4567 77.1324 71.746C77.2817 72.026 77.487 72.2453 77.7484 72.404C78.0097 72.5533 78.313 72.628 78.6584 72.628C79.0037 72.628 79.2884 72.5533 79.5124 72.404C79.7457 72.2547 79.9184 72.0633 80.0304 71.83H81.9624C81.8317 72.2687 81.6124 72.6653 81.3044 73.02C80.9964 73.3747 80.6184 73.6547 80.1704 73.86C79.7224 74.0653 79.223 74.168 78.6724 74.168ZM86.8422 74.168C86.1982 74.168 85.6196 74.0093 85.1062 73.692C84.6022 73.3747 84.2056 72.936 83.9162 72.376C83.6269 71.816 83.4822 71.186 83.4822 70.486C83.4822 69.7673 83.6269 69.1327 83.9162 68.582C84.2149 68.022 84.6209 67.5833 85.1342 67.266C85.6569 66.9393 86.2402 66.776 86.8842 66.776C87.3882 66.776 87.8316 66.8693 88.2142 67.056C88.5969 67.2427 88.9049 67.5087 89.1382 67.854V63.92H91.0282V74H89.3482L89.1382 73.034C88.9982 73.23 88.8209 73.4167 88.6062 73.594C88.4009 73.7713 88.1536 73.9113 87.8642 74.014C87.5749 74.1167 87.2342 74.168 86.8422 74.168ZM87.2902 72.516C87.6636 72.516 87.9902 72.432 88.2702 72.264C88.5596 72.0867 88.7836 71.844 88.9422 71.536C89.1009 71.228 89.1802 70.8733 89.1802 70.472C89.1802 70.0707 89.1009 69.716 88.9422 69.408C88.7836 69.1 88.5596 68.862 88.2702 68.694C87.9902 68.5167 87.6636 68.428 87.2902 68.428C86.9356 68.428 86.6136 68.5167 86.3242 68.694C86.0349 68.862 85.8062 69.1 85.6382 69.408C85.4796 69.716 85.4002 70.066 85.4002 70.458C85.4002 70.8687 85.4796 71.228 85.6382 71.536C85.8062 71.844 86.0302 72.0867 86.3102 72.264C86.5996 72.432 86.9262 72.516 87.2902 72.516Z" fill="white"/>
<g clip-path="url(#clip0_516_5139)">
<path d="M59.5 93H72M72 93L66 87M72 93L66 99" stroke="white" stroke-width="1.5" stroke-linecap="round" stroke-linejoin="round"/>
</g>
<defs>
<linearGradient id="paint0_linear_516_5139" x1="2.83593" y1="143.067" x2="159.231" y2="91.9538" gradientUnits="userSpaceOnUse">
<stop stop-color="#00E676"/>
<stop offset="0.79" stop-color="#6A0DAD"/>
</linearGradient>
<clipPath id="clip0_516_5139">
<rect width="15" height="14" fill="white" transform="translate(58.5 86)"/>
</clipPath>
</defs>
</svg>
