<svg width="94" height="94" viewBox="0 0 94 94" fill="none" xmlns="http://www.w3.org/2000/svg">
<rect width="94" height="94" rx="12" fill="url(#paint0_linear_516_4784)"/>
<g clip-path="url(#clip0_516_4784)">
<path d="M56.667 31.1774V25.9576C56.667 25.6115 56.8075 25.2795 57.0575 25.0348C57.3076 24.7901 57.6467 24.6526 58.0003 24.6526C58.3539 24.6526 58.6931 24.7901 58.9431 25.0348C59.1932 25.2795 59.3337 25.6115 59.3337 25.9576V31.1774C59.3337 31.5235 59.1932 31.8554 58.9431 32.1002C58.6931 32.3449 58.3539 32.4824 58.0003 32.4824C57.6467 32.4824 57.3076 32.3449 57.0575 32.1002C56.8075 31.8554 56.667 31.5235 56.667 31.1774ZM46.0003 29.22V27.915C46.0017 27.0502 46.3534 26.2212 46.9782 25.6097C47.603 24.9981 48.45 24.654 49.3337 24.6526H50.667C51.5506 24.654 52.3976 24.9981 53.0225 25.6097C53.6473 26.2212 53.9989 27.0502 54.0003 27.915V29.22C53.9989 30.0848 53.6473 30.9138 53.0225 31.5253C52.3976 32.1368 51.5506 32.481 50.667 32.4824H49.3337C48.45 32.481 47.603 32.1368 46.9782 31.5253C46.3534 30.9138 46.0017 30.0848 46.0003 29.22ZM48.667 29.22C48.667 29.393 48.7372 29.559 48.8623 29.6813C48.9873 29.8037 49.1568 29.8724 49.3337 29.8724H50.667C50.8438 29.8724 51.0134 29.8037 51.1384 29.6813C51.2634 29.559 51.3337 29.393 51.3337 29.22V27.915C51.3337 27.742 51.2634 27.576 51.1384 27.4536C51.0134 27.3313 50.8438 27.2625 50.667 27.2625H49.3337C49.1568 27.2625 48.9873 27.3313 48.8623 27.4536C48.7372 27.576 48.667 27.742 48.667 27.915V29.22ZM42.0003 32.4824C42.3539 32.4824 42.6931 32.3449 42.9431 32.1002C43.1932 31.8554 43.3337 31.5235 43.3337 31.1774V25.9576C43.3337 25.6115 43.1932 25.2795 42.9431 25.0348C42.6931 24.7901 42.3539 24.6526 42.0003 24.6526C41.6467 24.6526 41.3076 24.7901 41.0575 25.0348C40.8075 25.2795 40.667 25.6115 40.667 25.9576V31.1774C40.667 31.5235 40.8075 31.8554 41.0575 32.1002C41.3076 32.3449 41.6467 32.4824 42.0003 32.4824ZM30.0003 29.22V27.915C30.0017 27.0502 30.3534 26.2212 30.9782 25.6097C31.603 24.9981 32.45 24.654 33.3337 24.6526H34.667C35.5506 24.654 36.3976 24.9981 37.0225 25.6097C37.6473 26.2212 37.9989 27.0502 38.0003 27.915V29.22C37.9989 30.0848 37.6473 30.9138 37.0225 31.5253C36.3976 32.1368 35.5506 32.481 34.667 32.4824H33.3337C32.45 32.481 31.603 32.1368 30.9782 31.5253C30.3534 30.9138 30.0017 30.0848 30.0003 29.22ZM32.667 29.22C32.667 29.393 32.7372 29.559 32.8623 29.6813C32.9873 29.8037 33.1568 29.8724 33.3337 29.8724H34.667C34.8438 29.8724 35.0134 29.8037 35.1384 29.6813C35.2634 29.559 35.3337 29.393 35.3337 29.22V27.915C35.3337 27.742 35.2634 27.576 35.1384 27.4536C35.0134 27.3313 34.8438 27.2625 34.667 27.2625H33.3337C33.1568 27.2625 32.9873 27.3313 32.8623 27.4536C32.7372 27.576 32.667 27.742 32.667 27.915V29.22ZM33.3337 58.5817H34.0003C34.3539 58.5817 34.6931 58.4442 34.9431 58.1995C35.1932 57.9547 35.3337 57.6228 35.3337 57.2767C35.3337 56.9306 35.1932 56.5987 34.9431 56.354C34.6931 56.1092 34.3539 55.9717 34.0003 55.9717H33.3337C32.45 55.9731 31.603 56.3173 30.9782 56.9288C30.3534 57.5403 30.0017 58.3693 30.0003 59.2341V60.5391C30.0017 61.4039 30.3534 62.2329 30.9782 62.8445C31.603 63.456 32.45 63.8001 33.3337 63.8015H34.667C35.5506 63.8001 36.3976 63.456 37.0225 62.8445C37.6473 62.2329 37.9989 61.4039 38.0003 60.5391V59.8866C38.0003 59.5405 37.8599 59.2086 37.6098 58.9639C37.3598 58.7192 37.0206 58.5817 36.667 58.5817C36.3134 58.5817 35.9742 58.7192 35.7242 58.9639C35.4741 59.2086 35.3337 59.5405 35.3337 59.8866V60.5391C35.3337 60.7122 35.2634 60.8781 35.1384 61.0005C35.0134 61.1229 34.8438 61.1916 34.667 61.1916H33.3337C33.1568 61.1916 32.9873 61.1229 32.8623 61.0005C32.7372 60.8781 32.667 60.7122 32.667 60.5391V59.2341C32.667 59.0611 32.7372 58.8951 32.8623 58.7728C32.9873 58.6504 33.1568 58.5817 33.3337 58.5817ZM33.3337 42.9221H34.0003C34.3539 42.9221 34.6931 42.7846 34.9431 42.5399C35.1932 42.2951 35.3337 41.9632 35.3337 41.6171C35.3337 41.271 35.1932 40.9391 34.9431 40.6944C34.6931 40.4496 34.3539 40.3122 34.0003 40.3122H33.3337C33.1568 40.3122 32.9873 40.2434 32.8623 40.1211C32.7372 39.9987 32.667 39.8327 32.667 39.6597V38.3547C32.667 38.1817 32.7372 38.0157 32.8623 37.8933C32.9873 37.771 33.1568 37.7022 33.3337 37.7022H34.667C34.8438 37.7022 35.0134 37.771 35.1384 37.8933C35.2634 38.0157 35.3337 38.1817 35.3337 38.3547V39.0072C35.3337 39.3533 35.4741 39.6852 35.7242 39.9299C35.9742 40.1747 36.3134 40.3122 36.667 40.3122C37.0206 40.3122 37.3598 40.1747 37.6098 39.9299C37.8599 39.6852 38.0003 39.3533 38.0003 39.0072V38.3547C37.9989 37.4899 37.6473 36.6609 37.0225 36.0494C36.3976 35.4378 35.5506 35.0937 34.667 35.0923H33.3337C32.45 35.0937 31.603 35.4378 30.9782 36.0494C30.3534 36.6609 30.0017 37.4899 30.0003 38.3547V39.6597C30.0017 40.5245 30.3534 41.3535 30.9782 41.965C31.603 42.5765 32.45 42.9207 33.3337 42.9221ZM69.6003 66.7925C69.8507 67.0375 69.9913 67.3699 69.9913 67.7164C69.9913 68.063 69.8507 68.3953 69.6003 68.6403C69.35 68.8854 69.0104 69.023 68.6563 69.023C68.3023 69.023 67.9627 68.8854 67.7123 68.6403L59.3683 60.4713C56.4634 62.8395 52.7374 64.0205 48.9655 63.7685C45.1936 63.5165 41.6662 61.8509 39.117 59.1183C36.5678 56.3857 35.1932 52.7964 35.2791 49.0971C35.365 45.3978 36.9048 41.8734 39.5781 39.2569C42.2515 36.6404 45.8526 35.1334 49.6323 35.0494C53.412 34.9653 57.0793 36.3107 59.8713 38.8056C62.6633 41.3005 64.3651 44.7529 64.6225 48.4446C64.88 52.1362 63.6734 55.7829 61.2537 58.626L69.6003 66.7925ZM62.0003 49.4469C62.0003 47.124 61.2965 44.8533 59.978 42.9219C58.6594 40.9905 56.7852 39.4852 54.5925 38.5962C52.3998 37.7073 49.987 37.4747 47.6592 37.9279C45.3315 38.3811 43.1933 39.4996 41.515 41.1422C39.8368 42.7847 38.6939 44.8774 38.2309 47.1556C37.7679 49.4339 38.0055 51.7953 38.9138 53.9414C39.822 56.0875 41.3601 57.9217 43.3335 59.2123C45.3069 60.5028 47.627 61.1916 50.0003 61.1916C53.1818 61.1881 56.232 59.9496 58.4817 57.7478C60.7314 55.546 61.9968 52.5607 62.0003 49.4469ZM68.667 45.532C68.3134 45.532 67.9742 45.6695 67.7242 45.9142C67.4741 46.159 67.3337 46.4909 67.3337 46.837V52.0568C67.3337 52.4029 67.4741 52.7349 67.7242 52.9796C67.9742 53.2243 68.3134 53.3618 68.667 53.3618C69.0206 53.3618 69.3598 53.2243 69.6098 52.9796C69.8599 52.7349 70.0003 52.4029 70.0003 52.0568V46.837C70.0003 46.4909 69.8599 46.159 69.6098 45.9142C69.3598 45.6695 69.0206 45.532 68.667 45.532ZM66.667 35.0923H65.3337C64.45 35.0937 63.603 35.4378 62.9782 36.0494C62.3534 36.6609 62.0017 37.4899 62.0003 38.3547V39.0072C62.0003 39.3533 62.1408 39.6852 62.3909 39.9299C62.6409 40.1747 62.98 40.3122 63.3337 40.3122C63.6873 40.3122 64.0264 40.1747 64.2765 39.9299C64.5265 39.6852 64.667 39.3533 64.667 39.0072V38.3547C64.667 38.1817 64.7372 38.0157 64.8623 37.8933C64.9873 37.771 65.1568 37.7022 65.3337 37.7022H66.667C66.8438 37.7022 67.0134 37.771 67.1384 37.8933C67.2634 38.0157 67.3337 38.1817 67.3337 38.3547V39.6597C67.3337 39.8327 67.2634 39.9987 67.1384 40.1211C67.0134 40.2434 66.8438 40.3122 66.667 40.3122H66.0003C65.6467 40.3122 65.3076 40.4496 65.0575 40.6944C64.8075 40.9391 64.667 41.271 64.667 41.6171C64.667 41.9632 64.8075 42.2951 65.0575 42.5399C65.3076 42.7846 65.6467 42.9221 66.0003 42.9221H66.667C67.5506 42.9207 68.3976 42.5765 69.0225 41.965C69.6473 41.3535 69.9989 40.5245 70.0003 39.6597V38.3547C69.9989 37.4899 69.6473 36.6609 69.0225 36.0494C68.3976 35.4378 67.5506 35.0937 66.667 35.0923ZM70.0003 27.915V29.22C69.9989 30.0848 69.6473 30.9138 69.0225 31.5253C68.3976 32.1368 67.5506 32.481 66.667 32.4824H65.3337C64.45 32.481 63.603 32.1368 62.9782 31.5253C62.3534 30.9138 62.0017 30.0848 62.0003 29.22V27.915C62.0017 27.0502 62.3534 26.2212 62.9782 25.6097C63.603 24.9981 64.45 24.654 65.3337 24.6526H66.667C67.5506 24.654 68.3976 24.9981 69.0225 25.6097C69.6473 26.2212 69.9989 27.0502 70.0003 27.915ZM67.3337 27.915C67.3337 27.742 67.2634 27.576 67.1384 27.4536C67.0134 27.3313 66.8438 27.2625 66.667 27.2625H65.3337C65.1568 27.2625 64.9873 27.3313 64.8623 27.4536C64.7372 27.576 64.667 27.742 64.667 27.915V29.22C64.667 29.393 64.7372 29.559 64.8623 29.6813C64.9873 29.8037 65.1568 29.8724 65.3337 29.8724H66.667C66.8438 29.8724 67.0134 29.8037 67.1384 29.6813C67.2634 29.559 67.3337 29.393 67.3337 29.22V27.915ZM66.667 55.9717H66.0003C65.6467 55.9717 65.3076 56.1092 65.0575 56.354C64.8075 56.5987 64.667 56.9306 64.667 57.2767C64.667 57.6228 64.8075 57.9547 65.0575 58.1995C65.3076 58.4442 65.6467 58.5817 66.0003 58.5817H66.667C66.8438 58.5817 67.0134 58.6504 67.1384 58.7728C67.2634 58.8951 67.3337 59.0611 67.3337 59.2341V59.8866C67.3337 60.2327 67.4741 60.5647 67.7242 60.8094C67.9742 61.0541 68.3134 61.1916 68.667 61.1916C69.0206 61.1916 69.3598 61.0541 69.6098 60.8094C69.8599 60.5647 70.0003 60.2327 70.0003 59.8866V59.2341C69.9989 58.3693 69.6473 57.5403 69.0225 56.9288C68.3976 56.3173 67.5506 55.9731 66.667 55.9717ZM26.0003 32.4824C26.3539 32.4824 26.6931 32.3449 26.9431 32.1002C27.1932 31.8554 27.3337 31.5235 27.3337 31.1774V25.9576C27.3337 25.6115 27.1932 25.2795 26.9431 25.0348C26.6931 24.7901 26.3539 24.6526 26.0003 24.6526C25.6467 24.6526 25.3076 24.7901 25.0575 25.0348C24.8075 25.2795 24.667 25.6115 24.667 25.9576V31.1774C24.667 31.5235 24.8075 31.8554 25.0575 32.1002C25.3076 32.3449 25.6467 32.4824 26.0003 32.4824ZM59.3337 48.1419H56.0003L54.4003 46.054C54.2592 45.8703 54.0709 45.7264 53.8547 45.6368C53.6385 45.5472 53.4019 45.5151 53.1689 45.5437C52.9359 45.5723 52.7147 45.6606 52.5278 45.7997C52.3408 45.9388 52.1948 46.1238 52.1043 46.3359L50.179 50.8537L47.939 43.8382C47.8561 43.579 47.6926 43.3516 47.4713 43.1877C47.2501 43.0237 46.9821 42.9315 46.7047 42.9237C46.4273 42.9159 46.1543 42.9931 45.9239 43.1444C45.6934 43.2957 45.5169 43.5136 45.419 43.7677L43.7417 48.1419H40.667C40.3134 48.1419 39.9742 48.2794 39.7242 48.5242C39.4741 48.7689 39.3337 49.1008 39.3337 49.4469C39.3337 49.793 39.4741 50.1249 39.7242 50.3697C39.9742 50.6144 40.3134 50.7519 40.667 50.7519H44.667C44.9382 50.7519 45.203 50.6709 45.4259 50.5198C45.6489 50.3688 45.8195 50.1547 45.915 49.9063L46.5523 48.2437L48.7283 55.0557C48.8104 55.3106 48.9706 55.5348 49.1871 55.6978C49.4036 55.8608 49.6661 55.9547 49.9389 55.967C50.2118 55.9792 50.4819 55.9091 50.7128 55.7662C50.9436 55.6233 51.1241 55.4144 51.2297 55.1679L53.667 49.4469L54.267 50.2299C54.3912 50.392 54.5522 50.5235 54.7374 50.6141C54.9225 50.7047 55.1267 50.7519 55.3337 50.7519H59.3337C59.6873 50.7519 60.0264 50.6144 60.2765 50.3697C60.5265 50.1249 60.667 49.793 60.667 49.4469C60.667 49.1008 60.5265 48.7689 60.2765 48.5242C60.0264 48.2794 59.6873 48.1419 59.3337 48.1419ZM26.0003 63.8015C26.3539 63.8015 26.6931 63.664 26.9431 63.4193C27.1932 63.1746 27.3337 62.8427 27.3337 62.4966V57.2767C27.3337 56.9306 27.1932 56.5987 26.9431 56.354C26.6931 56.1092 26.3539 55.9717 26.0003 55.9717C25.6467 55.9717 25.3076 56.1092 25.0575 56.354C24.8075 56.5987 24.667 56.9306 24.667 57.2767V62.4966C24.667 62.8427 24.8075 63.1746 25.0575 63.4193C25.3076 63.664 25.6467 63.8015 26.0003 63.8015ZM26.0003 42.9221C26.3539 42.9221 26.6931 42.7846 26.9431 42.5399C27.1932 42.2951 27.3337 41.9632 27.3337 41.6171V36.3973C27.3337 36.0512 27.1932 35.7192 26.9431 35.4745C26.6931 35.2298 26.3539 35.0923 26.0003 35.0923C25.6467 35.0923 25.3076 35.2298 25.0575 35.4745C24.8075 35.7192 24.667 36.0512 24.667 36.3973V41.6171C24.667 41.9632 24.8075 42.2951 25.0575 42.5399C25.3076 42.7846 25.6467 42.9221 26.0003 42.9221ZM24.667 50.0994V48.7944C24.6684 47.9296 25.02 47.1006 25.6449 46.4891C26.2697 45.8776 27.1167 45.5334 28.0003 45.532H29.3337C30.2173 45.5334 31.0643 45.8776 31.6891 46.4891C32.3139 47.1006 32.6656 47.9296 32.667 48.7944V50.0994C32.6656 50.9642 32.3139 51.7932 31.6891 52.4047C31.0643 53.0163 30.2173 53.3604 29.3337 53.3618H28.0003C27.1167 53.3604 26.2697 53.0163 25.6449 52.4047C25.02 51.7932 24.6684 50.9642 24.667 50.0994ZM27.3337 50.0994C27.3337 50.2724 27.4039 50.4384 27.5289 50.5608C27.6539 50.6831 27.8235 50.7519 28.0003 50.7519H29.3337C29.5105 50.7519 29.68 50.6831 29.8051 50.5608C29.9301 50.4384 30.0003 50.2724 30.0003 50.0994V48.7944C30.0003 48.6214 29.9301 48.4554 29.8051 48.3331C29.68 48.2107 29.5105 48.1419 29.3337 48.1419H28.0003C27.8235 48.1419 27.6539 48.2107 27.5289 48.3331C27.4039 48.4554 27.3337 48.6214 27.3337 48.7944V50.0994Z" fill="white"/>
</g>
<defs>
<linearGradient id="paint0_linear_516_4784" x1="2.01953" y1="90.8667" x2="110.695" y2="51.0443" gradientUnits="userSpaceOnUse">
<stop stop-color="#00E676"/>
<stop offset="0.79" stop-color="#6A0DAD"/>
</linearGradient>
<clipPath id="clip0_516_4784">
<rect width="46" height="46" fill="white" transform="translate(24 24)"/>
</clipPath>
</defs>
</svg>
