<svg width="194" height="234" viewBox="0 0 194 234" fill="none" xmlns="http://www.w3.org/2000/svg">
<mask id="path-1-inside-1_516_4693" fill="white">
<path d="M194 31.5007C194 28.7089 192.833 26.0443 190.781 24.1512L167.479 2.65054C165.632 0.946304 163.211 0 160.698 0H10C4.47715 0 0 4.47716 0 10V223.242C0 228.765 4.47715 233.242 10 233.242H184C189.523 233.242 194 228.765 194 223.242V31.5007Z"/>
</mask>
<path d="M194 31.5007C194 28.7089 192.833 26.0443 190.781 24.1512L167.479 2.65054C165.632 0.946304 163.211 0 160.698 0H10C4.47715 0 0 4.47716 0 10V223.242C0 228.765 4.47715 233.242 10 233.242H184C189.523 233.242 194 228.765 194 223.242V31.5007Z" fill="#282828"/>
<path d="M167.479 2.65054L168.157 1.9156L167.479 2.65054ZM190.781 24.1512L190.103 24.8861L190.781 24.1512ZM190.781 24.1512L190.103 24.8861L166.801 3.3855L167.479 2.65054L168.157 1.9156L191.459 23.4163L190.781 24.1512ZM160.698 0V1H10V0V-1H160.698V0ZM0 10H1V223.242H0H-1V10H0ZM10 233.242V232.242H184V233.242V234.242H10V233.242ZM194 223.242H193V31.5007H194H195V223.242H194ZM184 233.242V232.242C188.971 232.242 193 228.213 193 223.242H194H195C195 229.317 190.075 234.242 184 234.242V233.242ZM0 223.242H1C1 228.213 5.02944 232.242 10 232.242V233.242V234.242C3.92487 234.242 -1 229.317 -1 223.242H0ZM10 0V1C5.02944 1 1 5.02943 1 10H0H-1C-1 3.92487 3.92487 -1 10 -1V0ZM167.479 2.65054L166.801 3.3855C165.139 1.85167 162.96 1 160.698 1V0V-1C163.462 -1 166.125 0.0409241 168.157 1.9156L167.479 2.65054ZM190.781 24.1512L191.459 23.4163C193.716 25.4987 195 28.4298 195 31.5007H194H193C193 28.9881 191.95 26.59 190.103 24.8861L190.781 24.1512Z" fill="url(#paint0_linear_516_4693)" mask="url(#path-1-inside-1_516_4693)"/>
<rect x="50" y="51" width="94" height="94" rx="12" fill="url(#paint1_linear_516_4693)"/>
<g clip-path="url(#clip0_516_4693)">
<path d="M106.667 82.1773V76.9574C106.667 76.6113 106.807 76.2794 107.058 76.0347C107.308 75.79 107.647 75.6525 108 75.6525C108.354 75.6525 108.693 75.79 108.943 76.0347C109.193 76.2794 109.334 76.6113 109.334 76.9574V82.1773C109.334 82.5234 109.193 82.8553 108.943 83.1C108.693 83.3448 108.354 83.4823 108 83.4823C107.647 83.4823 107.308 83.3448 107.058 83.1C106.807 82.8553 106.667 82.5234 106.667 82.1773ZM96.0003 80.2198V78.9149C96.0017 78.0501 96.3534 77.2211 96.9782 76.6095C97.603 75.998 98.45 75.6538 99.3337 75.6525H100.667C101.551 75.6538 102.398 75.998 103.022 76.6095C103.647 77.2211 103.999 78.0501 104 78.9149V80.2198C103.999 81.0847 103.647 81.9137 103.022 82.5252C102.398 83.1367 101.551 83.4809 100.667 83.4823H99.3337C98.45 83.4809 97.603 83.1367 96.9782 82.5252C96.3534 81.9137 96.0017 81.0847 96.0003 80.2198ZM98.667 80.2198C98.667 80.3929 98.7372 80.5589 98.8623 80.6812C98.9873 80.8036 99.1568 80.8723 99.3337 80.8723H100.667C100.844 80.8723 101.013 80.8036 101.138 80.6812C101.263 80.5589 101.334 80.3929 101.334 80.2198V78.9149C101.334 78.7418 101.263 78.5759 101.138 78.4535C101.013 78.3311 100.844 78.2624 100.667 78.2624H99.3337C99.1568 78.2624 98.9873 78.3311 98.8623 78.4535C98.7372 78.5759 98.667 78.7418 98.667 78.9149V80.2198ZM92.0003 83.4823C92.3539 83.4823 92.6931 83.3448 92.9431 83.1C93.1932 82.8553 93.3337 82.5234 93.3337 82.1773V76.9574C93.3337 76.6113 93.1932 76.2794 92.9431 76.0347C92.6931 75.79 92.3539 75.6525 92.0003 75.6525C91.6467 75.6525 91.3076 75.79 91.0575 76.0347C90.8075 76.2794 90.667 76.6113 90.667 76.9574V82.1773C90.667 82.5234 90.8075 82.8553 91.0575 83.1C91.3076 83.3448 91.6467 83.4823 92.0003 83.4823ZM80.0003 80.2198V78.9149C80.0017 78.0501 80.3534 77.2211 80.9782 76.6095C81.603 75.998 82.45 75.6538 83.3337 75.6525H84.667C85.5506 75.6538 86.3976 75.998 87.0225 76.6095C87.6473 77.2211 87.9989 78.0501 88.0003 78.9149V80.2198C87.9989 81.0847 87.6473 81.9137 87.0225 82.5252C86.3976 83.1367 85.5506 83.4809 84.667 83.4823H83.3337C82.45 83.4809 81.603 83.1367 80.9782 82.5252C80.3534 81.9137 80.0017 81.0847 80.0003 80.2198ZM82.667 80.2198C82.667 80.3929 82.7372 80.5589 82.8623 80.6812C82.9873 80.8036 83.1568 80.8723 83.3337 80.8723H84.667C84.8438 80.8723 85.0134 80.8036 85.1384 80.6812C85.2634 80.5589 85.3337 80.3929 85.3337 80.2198V78.9149C85.3337 78.7418 85.2634 78.5759 85.1384 78.4535C85.0134 78.3311 84.8438 78.2624 84.667 78.2624H83.3337C83.1568 78.2624 82.9873 78.3311 82.8623 78.4535C82.7372 78.5759 82.667 78.7418 82.667 78.9149V80.2198ZM83.3337 109.582H84.0003C84.3539 109.582 84.6931 109.444 84.9431 109.199C85.1932 108.955 85.3337 108.623 85.3337 108.277C85.3337 107.93 85.1932 107.599 84.9431 107.354C84.6931 107.109 84.3539 106.972 84.0003 106.972H83.3337C82.45 106.973 81.603 107.317 80.9782 107.929C80.3534 108.54 80.0017 109.369 80.0003 110.234V111.539C80.0017 112.404 80.3534 113.233 80.9782 113.844C81.603 114.456 82.45 114.8 83.3337 114.801H84.667C85.5506 114.8 86.3976 114.456 87.0225 113.844C87.6473 113.233 87.9989 112.404 88.0003 111.539V110.887C88.0003 110.54 87.8599 110.208 87.6098 109.964C87.3598 109.719 87.0206 109.582 86.667 109.582C86.3134 109.582 85.9742 109.719 85.7242 109.964C85.4741 110.208 85.3337 110.54 85.3337 110.887V111.539C85.3337 111.712 85.2634 111.878 85.1384 112C85.0134 112.123 84.8438 112.191 84.667 112.191H83.3337C83.1568 112.191 82.9873 112.123 82.8623 112C82.7372 111.878 82.667 111.712 82.667 111.539V110.234C82.667 110.061 82.7372 109.895 82.8623 109.773C82.9873 109.65 83.1568 109.582 83.3337 109.582ZM83.3337 93.922H84.0003C84.3539 93.922 84.6931 93.7845 84.9431 93.5398C85.1932 93.295 85.3337 92.9631 85.3337 92.617C85.3337 92.2709 85.1932 91.939 84.9431 91.6943C84.6931 91.4495 84.3539 91.312 84.0003 91.312H83.3337C83.1568 91.312 82.9873 91.2433 82.8623 91.1209C82.7372 90.9986 82.667 90.8326 82.667 90.6596V89.3546C82.667 89.1815 82.7372 89.0156 82.8623 88.8932C82.9873 88.7709 83.1568 88.7021 83.3337 88.7021H84.667C84.8438 88.7021 85.0134 88.7709 85.1384 88.8932C85.2634 89.0156 85.3337 89.1815 85.3337 89.3546V90.0071C85.3337 90.3532 85.4741 90.6851 85.7242 90.9298C85.9742 91.1746 86.3134 91.312 86.667 91.312C87.0206 91.312 87.3598 91.1746 87.6098 90.9298C87.8599 90.6851 88.0003 90.3532 88.0003 90.0071V89.3546C87.9989 88.4898 87.6473 87.6608 87.0225 87.0492C86.3976 86.4377 85.5506 86.0936 84.667 86.0922H83.3337C82.45 86.0936 81.603 86.4377 80.9782 87.0492C80.3534 87.6608 80.0017 88.4898 80.0003 89.3546V90.6596C80.0017 91.5244 80.3534 92.3534 80.9782 92.9649C81.603 93.5764 82.45 93.9206 83.3337 93.922ZM119.6 117.792C119.851 118.037 119.991 118.37 119.991 118.716C119.991 119.063 119.851 119.395 119.6 119.64C119.35 119.885 119.01 120.023 118.656 120.023C118.302 120.023 117.963 119.885 117.712 119.64L109.368 111.471C106.463 113.839 102.737 115.02 98.9655 114.768C95.1936 114.516 91.6662 112.851 89.117 110.118C86.5678 107.386 85.1932 103.796 85.2791 100.097C85.365 96.3977 86.9048 92.8732 89.5781 90.2568C92.2515 87.6403 95.8526 86.1333 99.6323 86.0492C103.412 85.9652 107.079 87.3106 109.871 89.8055C112.663 92.3004 114.365 95.7528 114.623 99.4445C114.88 103.136 113.673 106.783 111.254 109.626L119.6 117.792ZM112 100.447C112 98.1239 111.297 95.8532 109.978 93.9218C108.659 91.9904 106.785 90.485 104.593 89.5961C102.4 88.7072 99.987 88.4746 97.6592 88.9278C95.3315 89.381 93.1933 90.4995 91.515 92.142C89.8368 93.7846 88.6939 95.8773 88.2309 98.1555C87.7679 100.434 88.0055 102.795 88.9138 104.941C89.822 107.087 91.3601 108.922 93.3335 110.212C95.3069 111.503 97.627 112.191 100 112.191C103.182 112.188 106.232 110.95 108.482 108.748C110.731 106.546 111.997 103.561 112 100.447ZM118.667 96.5319C118.313 96.5319 117.974 96.6694 117.724 96.9141C117.474 97.1588 117.334 97.4908 117.334 97.8369V103.057C117.334 103.403 117.474 103.735 117.724 103.979C117.974 104.224 118.313 104.362 118.667 104.362C119.021 104.362 119.36 104.224 119.61 103.979C119.86 103.735 120 103.403 120 103.057V97.8369C120 97.4908 119.86 97.1588 119.61 96.9141C119.36 96.6694 119.021 96.5319 118.667 96.5319ZM116.667 86.0922H115.334C114.45 86.0936 113.603 86.4377 112.978 87.0492C112.353 87.6608 112.002 88.4898 112 89.3546V90.0071C112 90.3532 112.141 90.6851 112.391 90.9298C112.641 91.1746 112.98 91.312 113.334 91.312C113.687 91.312 114.026 91.1746 114.276 90.9298C114.527 90.6851 114.667 90.3532 114.667 90.0071V89.3546C114.667 89.1815 114.737 89.0156 114.862 88.8932C114.987 88.7709 115.157 88.7021 115.334 88.7021H116.667C116.844 88.7021 117.013 88.7709 117.138 88.8932C117.263 89.0156 117.334 89.1815 117.334 89.3546V90.6596C117.334 90.8326 117.263 90.9986 117.138 91.1209C117.013 91.2433 116.844 91.312 116.667 91.312H116C115.647 91.312 115.308 91.4495 115.058 91.6943C114.807 91.939 114.667 92.2709 114.667 92.617C114.667 92.9631 114.807 93.295 115.058 93.5398C115.308 93.7845 115.647 93.922 116 93.922H116.667C117.551 93.9206 118.398 93.5764 119.022 92.9649C119.647 92.3534 119.999 91.5244 120 90.6596V89.3546C119.999 88.4898 119.647 87.6608 119.022 87.0492C118.398 86.4377 117.551 86.0936 116.667 86.0922ZM120 78.9149V80.2198C119.999 81.0847 119.647 81.9137 119.022 82.5252C118.398 83.1367 117.551 83.4809 116.667 83.4823H115.334C114.45 83.4809 113.603 83.1367 112.978 82.5252C112.353 81.9137 112.002 81.0847 112 80.2198V78.9149C112.002 78.0501 112.353 77.2211 112.978 76.6095C113.603 75.998 114.45 75.6538 115.334 75.6525H116.667C117.551 75.6538 118.398 75.998 119.022 76.6095C119.647 77.2211 119.999 78.0501 120 78.9149ZM117.334 78.9149C117.334 78.7418 117.263 78.5759 117.138 78.4535C117.013 78.3311 116.844 78.2624 116.667 78.2624H115.334C115.157 78.2624 114.987 78.3311 114.862 78.4535C114.737 78.5759 114.667 78.7418 114.667 78.9149V80.2198C114.667 80.3929 114.737 80.5589 114.862 80.6812C114.987 80.8036 115.157 80.8723 115.334 80.8723H116.667C116.844 80.8723 117.013 80.8036 117.138 80.6812C117.263 80.5589 117.334 80.3929 117.334 80.2198V78.9149ZM116.667 106.972H116C115.647 106.972 115.308 107.109 115.058 107.354C114.807 107.599 114.667 107.93 114.667 108.277C114.667 108.623 114.807 108.955 115.058 109.199C115.308 109.444 115.647 109.582 116 109.582H116.667C116.844 109.582 117.013 109.65 117.138 109.773C117.263 109.895 117.334 110.061 117.334 110.234V110.887C117.334 111.233 117.474 111.565 117.724 111.809C117.974 112.054 118.313 112.191 118.667 112.191C119.021 112.191 119.36 112.054 119.61 111.809C119.86 111.565 120 111.233 120 110.887V110.234C119.999 109.369 119.647 108.54 119.022 107.929C118.398 107.317 117.551 106.973 116.667 106.972ZM76.0003 83.4823C76.3539 83.4823 76.6931 83.3448 76.9431 83.1C77.1932 82.8553 77.3337 82.5234 77.3337 82.1773V76.9574C77.3337 76.6113 77.1932 76.2794 76.9431 76.0347C76.6931 75.79 76.3539 75.6525 76.0003 75.6525C75.6467 75.6525 75.3076 75.79 75.0575 76.0347C74.8075 76.2794 74.667 76.6113 74.667 76.9574V82.1773C74.667 82.5234 74.8075 82.8553 75.0575 83.1C75.3076 83.3448 75.6467 83.4823 76.0003 83.4823ZM109.334 99.1418H106L104.4 97.0539C104.259 96.8702 104.071 96.7263 103.855 96.6367C103.638 96.5471 103.402 96.5149 103.169 96.5435C102.936 96.5721 102.715 96.6605 102.528 96.7996C102.341 96.9387 102.195 97.1237 102.104 97.3358L100.179 101.854L97.939 94.8381C97.8561 94.5789 97.6926 94.3515 97.4713 94.1875C97.2501 94.0236 96.9821 93.9313 96.7047 93.9236C96.4273 93.9158 96.1543 93.993 95.9239 94.1443C95.6934 94.2956 95.5169 94.5135 95.419 94.7676L93.7417 99.1418H90.667C90.3134 99.1418 89.9742 99.2793 89.7242 99.524C89.4741 99.7688 89.3337 100.101 89.3337 100.447C89.3337 100.793 89.4741 101.125 89.7242 101.37C89.9742 101.614 90.3134 101.752 90.667 101.752H94.667C94.9382 101.752 95.203 101.671 95.4259 101.52C95.6489 101.369 95.8195 101.155 95.915 100.906L96.5523 99.2436L98.7283 106.056C98.8104 106.311 98.9706 106.535 99.1871 106.698C99.4036 106.861 99.6661 106.955 99.9389 106.967C100.212 106.979 100.482 106.909 100.713 106.766C100.944 106.623 101.124 106.414 101.23 106.168L103.667 100.447L104.267 101.23C104.391 101.392 104.552 101.523 104.737 101.614C104.923 101.705 105.127 101.752 105.334 101.752H109.334C109.687 101.752 110.026 101.614 110.276 101.37C110.527 101.125 110.667 100.793 110.667 100.447C110.667 100.101 110.527 99.7688 110.276 99.524C110.026 99.2793 109.687 99.1418 109.334 99.1418ZM76.0003 114.801C76.3539 114.801 76.6931 114.664 76.9431 114.419C77.1932 114.174 77.3337 113.843 77.3337 113.496V108.277C77.3337 107.93 77.1932 107.599 76.9431 107.354C76.6931 107.109 76.3539 106.972 76.0003 106.972C75.6467 106.972 75.3076 107.109 75.0575 107.354C74.8075 107.599 74.667 107.93 74.667 108.277V113.496C74.667 113.843 74.8075 114.174 75.0575 114.419C75.3076 114.664 75.6467 114.801 76.0003 114.801ZM76.0003 93.922C76.3539 93.922 76.6931 93.7845 76.9431 93.5398C77.1932 93.295 77.3337 92.9631 77.3337 92.617V87.3971C77.3337 87.051 77.1932 86.7191 76.9431 86.4744C76.6931 86.2297 76.3539 86.0922 76.0003 86.0922C75.6467 86.0922 75.3076 86.2297 75.0575 86.4744C74.8075 86.7191 74.667 87.051 74.667 87.3971V92.617C74.667 92.9631 74.8075 93.295 75.0575 93.5398C75.3076 93.7845 75.6467 93.922 76.0003 93.922ZM74.667 101.099V99.7943C74.6684 98.9295 75.02 98.1005 75.6449 97.489C76.2697 96.8774 77.1167 96.5333 78.0003 96.5319H79.3337C80.2173 96.5333 81.0643 96.8774 81.6891 97.489C82.3139 98.1005 82.6656 98.9295 82.667 99.7943V101.099C82.6656 101.964 82.3139 102.793 81.6891 103.405C81.0643 104.016 80.2173 104.36 79.3337 104.362H78.0003C77.1167 104.36 76.2697 104.016 75.6449 103.405C75.02 102.793 74.6684 101.964 74.667 101.099ZM77.3337 101.099C77.3337 101.272 77.4039 101.438 77.5289 101.561C77.6539 101.683 77.8235 101.752 78.0003 101.752H79.3337C79.5105 101.752 79.68 101.683 79.8051 101.561C79.9301 101.438 80.0003 101.272 80.0003 101.099V99.7943C80.0003 99.6213 79.9301 99.4553 79.8051 99.3329C79.68 99.2106 79.5105 99.1418 79.3337 99.1418H78.0003C77.8235 99.1418 77.6539 99.2106 77.5289 99.3329C77.4039 99.4553 77.3337 99.6213 77.3337 99.7943V101.099Z" fill="white"/>
</g>
<path d="M53.9453 182.188C53.0807 182.188 52.3255 182.044 51.6797 181.758C51.0391 181.466 50.5208 181.047 50.125 180.5C49.7292 179.948 49.4661 179.284 49.3359 178.508L51.0078 178.164C51.0443 179.086 51.3125 179.794 51.8125 180.289C52.3125 180.784 53.0104 181.031 53.9062 181.031C54.4479 181.031 54.9062 180.943 55.2812 180.766C55.6615 180.589 55.9505 180.339 56.1484 180.016C56.3516 179.693 56.4531 179.312 56.4531 178.875C56.4531 178.292 56.2839 177.859 55.9453 177.578C55.612 177.292 55.1536 177.083 54.5703 176.953L53.1016 176.625C52.8307 176.562 52.5156 176.477 52.1562 176.367C51.8021 176.258 51.4583 176.096 51.125 175.883C50.7917 175.669 50.513 175.38 50.2891 175.016C50.0703 174.651 49.9609 174.185 49.9609 173.617C49.9609 172.893 50.1458 172.307 50.5156 171.859C50.8906 171.411 51.375 171.083 51.9688 170.875C52.5677 170.667 53.2031 170.562 53.875 170.562C54.651 170.562 55.3151 170.688 55.8672 170.938C56.4245 171.182 56.8724 171.531 57.2109 171.984C57.5547 172.438 57.7865 172.979 57.9062 173.609L56.2578 173.953C56.2161 173.474 56.099 173.07 55.9062 172.742C55.7135 172.409 55.4427 172.156 55.0938 171.984C54.7448 171.807 54.3099 171.719 53.7891 171.719C53.3672 171.719 52.9714 171.781 52.6016 171.906C52.237 172.031 51.9401 172.227 51.7109 172.492C51.4818 172.758 51.3672 173.104 51.3672 173.531C51.3672 173.979 51.5208 174.339 51.8281 174.609C52.1406 174.875 52.6589 175.091 53.3828 175.258L54.8672 175.602C55.3932 175.721 55.8906 175.901 56.3594 176.141C56.8281 176.38 57.2083 176.716 57.5 177.148C57.7917 177.576 57.9375 178.141 57.9375 178.844C57.9375 179.547 57.776 180.148 57.4531 180.648C57.1354 181.148 56.6771 181.531 56.0781 181.797C55.4844 182.057 54.7734 182.188 53.9453 182.188ZM63.7031 182.188C62.9115 182.188 62.2135 182.003 61.6094 181.633C61.0052 181.258 60.5339 180.74 60.1953 180.078C59.8568 179.417 59.6875 178.651 59.6875 177.781C59.6875 176.911 59.8568 176.146 60.1953 175.484C60.5339 174.823 61.0052 174.307 61.6094 173.938C62.2135 173.562 62.9115 173.375 63.7031 173.375C64.4948 173.375 65.1927 173.562 65.7969 173.938C66.401 174.307 66.8724 174.823 67.2109 175.484C67.5495 176.146 67.7188 176.911 67.7188 177.781C67.7188 178.651 67.5495 179.417 67.2109 180.078C66.8724 180.74 66.401 181.258 65.7969 181.633C65.1927 182.003 64.4948 182.188 63.7031 182.188ZM63.7031 181.094C64.5 181.094 65.1276 180.797 65.5859 180.203C66.0495 179.609 66.2812 178.802 66.2812 177.781C66.2812 176.755 66.0495 175.948 65.5859 175.359C65.1276 174.766 64.5 174.469 63.7031 174.469C62.9062 174.469 62.276 174.766 61.8125 175.359C61.3542 175.948 61.125 176.755 61.125 177.781C61.125 178.802 61.3542 179.609 61.8125 180.203C62.276 180.797 62.9062 181.094 63.7031 181.094ZM73.4297 182.188C72.638 182.188 71.9531 182.008 71.375 181.648C70.7969 181.289 70.3516 180.781 70.0391 180.125C69.7266 179.464 69.5703 178.682 69.5703 177.781C69.5703 176.88 69.7266 176.102 70.0391 175.445C70.3516 174.784 70.7969 174.273 71.375 173.914C71.9531 173.555 72.638 173.375 73.4297 173.375C74.0339 173.375 74.5729 173.487 75.0469 173.711C75.526 173.93 75.9297 174.247 76.2578 174.664C76.5911 175.076 76.8359 175.573 76.9922 176.156L75.6562 176.508C75.5104 175.852 75.2474 175.349 74.8672 175C74.4922 174.646 74.013 174.469 73.4297 174.469C72.6536 174.469 72.0547 174.758 71.6328 175.336C71.2161 175.909 71.0078 176.724 71.0078 177.781C71.0078 178.844 71.2161 179.661 71.6328 180.234C72.0547 180.807 72.6536 181.094 73.4297 181.094C74.0078 181.094 74.4844 180.924 74.8594 180.586C75.2344 180.242 75.4974 179.747 75.6484 179.102L76.9766 179.477C76.8516 179.904 76.6797 180.284 76.4609 180.617C76.2422 180.951 75.9818 181.234 75.6797 181.469C75.3828 181.703 75.0443 181.88 74.6641 182C74.2891 182.125 73.8776 182.188 73.4297 182.188ZM78.8984 182V173.562H80.2109V182H78.8984ZM79.5547 172.148C79.2526 172.148 78.9948 172.042 78.7812 171.828C78.5677 171.615 78.4609 171.357 78.4609 171.055C78.4609 170.747 78.5677 170.49 78.7812 170.281C78.9948 170.068 79.2526 169.961 79.5547 169.961C79.862 169.961 80.1198 170.068 80.3281 170.281C80.5417 170.49 80.6484 170.747 80.6484 171.055C80.6484 171.357 80.5417 171.615 80.3281 171.828C80.1198 172.042 79.862 172.148 79.5547 172.148ZM84.9297 182.188C84.3672 182.188 83.8776 182.081 83.4609 181.867C83.0495 181.648 82.7318 181.352 82.5078 180.977C82.2839 180.602 82.1719 180.177 82.1719 179.703C82.1719 179.198 82.3203 178.732 82.6172 178.305C82.9141 177.878 83.3724 177.536 83.9922 177.281C84.6172 177.021 85.4167 176.891 86.3906 176.891H87.7969L87.6562 177.031V176.57C87.6562 175.893 87.5208 175.375 87.25 175.016C86.9792 174.651 86.526 174.469 85.8906 174.469C85.2917 174.469 84.8307 174.625 84.5078 174.938C84.1849 175.245 84.013 175.659 83.9922 176.18L82.5156 175.844C82.5625 175.391 82.7344 174.979 83.0312 174.609C83.3333 174.234 83.7344 173.935 84.2344 173.711C84.7396 173.487 85.3229 173.375 85.9844 173.375C86.6667 173.375 87.2214 173.505 87.6484 173.766C88.0807 174.021 88.3984 174.391 88.6016 174.875C88.8047 175.359 88.9062 175.943 88.9062 176.625V180.477C88.9062 180.648 88.9297 180.763 88.9766 180.82C89.0286 180.878 89.1354 180.906 89.2969 180.906H89.7734V182H88.9375C88.5833 182 88.2865 181.891 88.0469 181.672C87.8073 181.448 87.6875 181.167 87.6875 180.828V180.234H87.8828C87.7995 180.453 87.6797 180.677 87.5234 180.906C87.3672 181.13 87.1693 181.341 86.9297 181.539C86.6901 181.732 86.4036 181.888 86.0703 182.008C85.7422 182.128 85.362 182.188 84.9297 182.188ZM85.2266 181.094C85.6589 181.094 86.0599 180.987 86.4297 180.773C86.7995 180.56 87.0964 180.227 87.3203 179.773C87.5495 179.315 87.6641 178.721 87.6641 177.992V177.922H86.3438C85.651 177.922 85.1042 178.013 84.7031 178.195C84.3073 178.378 84.026 178.604 83.8594 178.875C83.6927 179.141 83.6094 179.406 83.6094 179.672C83.6094 179.938 83.6693 180.177 83.7891 180.391C83.9089 180.604 84.0885 180.776 84.3281 180.906C84.5677 181.031 84.8672 181.094 85.2266 181.094ZM92.8281 182C92.4948 182 92.2031 181.891 91.9531 181.672C91.7031 181.448 91.5781 181.167 91.5781 180.828V170.281H92.8906V180.477C92.8906 180.648 92.9141 180.763 92.9609 180.82C93.013 180.878 93.1198 180.906 93.2812 180.906H94.1016V182H92.8281ZM103.008 182V171.906H98.9844V170.75H108.453V171.906H104.414V182H103.008ZM108.516 182V173.562H109.75V175.352L109.703 175.148C109.953 174.565 110.328 174.125 110.828 173.828C111.333 173.526 111.844 173.375 112.359 173.375C112.51 173.375 112.656 173.388 112.797 173.414C112.943 173.44 113.078 173.484 113.203 173.547L113.031 174.781C112.745 174.693 112.461 174.648 112.18 174.648C112.003 174.648 111.781 174.685 111.516 174.758C111.255 174.826 110.995 174.966 110.734 175.18C110.479 175.388 110.263 175.701 110.086 176.117C109.914 176.534 109.828 177.089 109.828 177.781V182H108.516ZM116.602 182.188C116.039 182.188 115.549 182.081 115.133 181.867C114.721 181.648 114.404 181.352 114.18 180.977C113.956 180.602 113.844 180.177 113.844 179.703C113.844 179.198 113.992 178.732 114.289 178.305C114.586 177.878 115.044 177.536 115.664 177.281C116.289 177.021 117.089 176.891 118.062 176.891H119.469L119.328 177.031V176.57C119.328 175.893 119.193 175.375 118.922 175.016C118.651 174.651 118.198 174.469 117.562 174.469C116.964 174.469 116.503 174.625 116.18 174.938C115.857 175.245 115.685 175.659 115.664 176.18L114.188 175.844C114.234 175.391 114.406 174.979 114.703 174.609C115.005 174.234 115.406 173.935 115.906 173.711C116.411 173.487 116.995 173.375 117.656 173.375C118.339 173.375 118.893 173.505 119.32 173.766C119.753 174.021 120.07 174.391 120.273 174.875C120.477 175.359 120.578 175.943 120.578 176.625V180.477C120.578 180.648 120.602 180.763 120.648 180.82C120.701 180.878 120.807 180.906 120.969 180.906H121.445V182H120.609C120.255 182 119.958 181.891 119.719 181.672C119.479 181.448 119.359 181.167 119.359 180.828V180.234H119.555C119.471 180.453 119.352 180.677 119.195 180.906C119.039 181.13 118.841 181.341 118.602 181.539C118.362 181.732 118.076 181.888 117.742 182.008C117.414 182.128 117.034 182.188 116.602 182.188ZM116.898 181.094C117.331 181.094 117.732 180.987 118.102 180.773C118.471 180.56 118.768 180.227 118.992 179.773C119.221 179.315 119.336 178.721 119.336 177.992V177.922H118.016C117.323 177.922 116.776 178.013 116.375 178.195C115.979 178.378 115.698 178.604 115.531 178.875C115.365 179.141 115.281 179.406 115.281 179.672C115.281 179.938 115.341 180.177 115.461 180.391C115.581 180.604 115.76 180.776 116 180.906C116.24 181.031 116.539 181.094 116.898 181.094ZM123.477 182V172.031C123.477 171.401 123.625 170.953 123.922 170.688C124.219 170.417 124.716 170.281 125.414 170.281H126.469V171.375H125.227C125.07 171.375 124.958 171.409 124.891 171.477C124.823 171.544 124.789 171.656 124.789 171.812V182H123.477ZM122.219 174.656V173.562H126.68V174.656H122.219ZM128.93 182V172.031C128.93 171.401 129.078 170.953 129.375 170.688C129.672 170.417 130.169 170.281 130.867 170.281H131.922V171.375H130.68C130.523 171.375 130.411 171.409 130.344 171.477C130.276 171.544 130.242 171.656 130.242 171.812V182H128.93ZM127.672 174.656V173.562H132.133V174.656H127.672ZM133.789 182V173.562H135.102V182H133.789ZM134.445 172.148C134.143 172.148 133.885 172.042 133.672 171.828C133.458 171.615 133.352 171.357 133.352 171.055C133.352 170.747 133.458 170.49 133.672 170.281C133.885 170.068 134.143 169.961 134.445 169.961C134.753 169.961 135.01 170.068 135.219 170.281C135.432 170.49 135.539 170.747 135.539 171.055C135.539 171.357 135.432 171.615 135.219 171.828C135.01 172.042 134.753 172.148 134.445 172.148ZM140.977 182.188C140.185 182.188 139.5 182.008 138.922 181.648C138.344 181.289 137.898 180.781 137.586 180.125C137.273 179.464 137.117 178.682 137.117 177.781C137.117 176.88 137.273 176.102 137.586 175.445C137.898 174.784 138.344 174.273 138.922 173.914C139.5 173.555 140.185 173.375 140.977 173.375C141.581 173.375 142.12 173.487 142.594 173.711C143.073 173.93 143.477 174.247 143.805 174.664C144.138 175.076 144.383 175.573 144.539 176.156L143.203 176.508C143.057 175.852 142.794 175.349 142.414 175C142.039 174.646 141.56 174.469 140.977 174.469C140.201 174.469 139.602 174.758 139.18 175.336C138.763 175.909 138.555 176.724 138.555 177.781C138.555 178.844 138.763 179.661 139.18 180.234C139.602 180.807 140.201 181.094 140.977 181.094C141.555 181.094 142.031 180.924 142.406 180.586C142.781 180.242 143.044 179.747 143.195 179.102L144.523 179.477C144.398 179.904 144.227 180.284 144.008 180.617C143.789 180.951 143.529 181.234 143.227 181.469C142.93 181.703 142.591 181.88 142.211 182C141.836 182.125 141.424 182.188 140.977 182.188Z" fill="white"/>
<defs>
<linearGradient id="paint0_linear_516_4693" x1="2.16981e-06" y1="233" x2="194" y2="3.76934e-06" gradientUnits="userSpaceOnUse">
<stop stop-color="#00E676"/>
<stop offset="0.855769" stop-color="#9B5DC8"/>
</linearGradient>
<linearGradient id="paint1_linear_516_4693" x1="52.0195" y1="141.867" x2="160.695" y2="102.044" gradientUnits="userSpaceOnUse">
<stop stop-color="#00E676"/>
<stop offset="0.79" stop-color="#6A0DAD"/>
</linearGradient>
<clipPath id="clip0_516_4693">
<rect width="46" height="46" fill="white" transform="translate(74 75)"/>
</clipPath>
</defs>
</svg>
