<svg width="194" height="234" viewBox="0 0 194 234" fill="none" xmlns="http://www.w3.org/2000/svg">
<mask id="path-1-inside-1_516_4701" fill="white">
<path d="M194 201.742C194 204.533 192.833 207.198 190.781 209.091L167.48 230.592C165.633 232.296 163.212 233.242 160.699 233.242H32.9603C30.4162 233.242 27.9678 232.273 26.1136 230.531L3.15327 208.962C1.1412 207.072 0 204.434 0 201.674V10C0 4.47715 4.47715 0 10 0H184C189.523 0 194 4.47715 194 10V201.742Z"/>
</mask>
<path d="M194 201.742C194 204.533 192.833 207.198 190.781 209.091L167.48 230.592C165.633 232.296 163.212 233.242 160.699 233.242H32.9603C30.4162 233.242 27.9678 232.273 26.1136 230.531L3.15327 208.962C1.1412 207.072 0 204.434 0 201.674V10C0 4.47715 4.47715 0 10 0H184C189.523 0 194 4.47715 194 10V201.742Z" fill="#282828"/>
<path d="M3.15327 208.962L3.83794 208.233L3.15327 208.962ZM26.1136 230.531L25.4289 231.26L26.1136 230.531ZM167.48 230.592L166.802 229.857L167.48 230.592ZM190.781 209.091L191.46 209.826L190.781 209.091ZM190.781 209.091L190.103 208.356L166.802 229.857L167.48 230.592L168.158 231.326L191.46 209.826L190.781 209.091ZM160.699 233.242V232.242H32.9603V233.242V234.242H160.699V233.242ZM26.1136 230.531L26.7982 229.802L3.83794 208.233L3.15327 208.962L2.4686 209.691L25.4289 231.26L26.1136 230.531ZM0 201.674H1V10H0H-1V201.674H0ZM10 0V1H184V0V-1H10V0ZM194 10H193V201.742H194H195V10H194ZM184 0V1C188.971 1 193 5.02944 193 10H194H195C195 3.92487 190.075 -1 184 -1V0ZM0 10H1C1 5.02944 5.02944 1 10 1V0V-1C3.92487 -1 -1 3.92487 -1 10H0ZM3.15327 208.962L3.83794 208.233C2.02708 206.532 1 204.158 1 201.674H0H-1C-1 204.71 0.255324 207.612 2.4686 209.691L3.15327 208.962ZM32.9603 233.242V232.242C30.6706 232.242 28.467 231.37 26.7982 229.802L26.1136 230.531L25.4289 231.26C27.4685 233.176 30.1618 234.242 32.9603 234.242V233.242ZM167.48 230.592L166.802 229.857C165.14 231.39 162.961 232.242 160.699 232.242V233.242V234.242C163.463 234.242 166.126 233.201 168.158 231.326L167.48 230.592ZM190.781 209.091L191.46 209.826C193.716 207.743 195 204.812 195 201.742H194H193C193 204.254 191.95 206.652 190.103 208.356L190.781 209.091Z" fill="url(#paint0_linear_516_4701)" mask="url(#path-1-inside-1_516_4701)"/>
<rect x="50.5" y="51" width="94" height="94" rx="12" fill="url(#paint1_linear_516_4701)"/>
<g clip-path="url(#clip0_516_4701)">
<path d="M107.167 82.1773V76.9574C107.167 76.6113 107.307 76.2794 107.558 76.0347C107.808 75.79 108.147 75.6525 108.5 75.6525C108.854 75.6525 109.193 75.79 109.443 76.0347C109.693 76.2794 109.834 76.6113 109.834 76.9574V82.1773C109.834 82.5234 109.693 82.8553 109.443 83.1C109.193 83.3448 108.854 83.4823 108.5 83.4823C108.147 83.4823 107.808 83.3448 107.558 83.1C107.307 82.8553 107.167 82.5234 107.167 82.1773ZM96.5003 80.2198V78.9149C96.5017 78.0501 96.8534 77.2211 97.4782 76.6095C98.103 75.998 98.95 75.6538 99.8337 75.6525H101.167C102.051 75.6538 102.898 75.998 103.522 76.6095C104.147 77.2211 104.499 78.0501 104.5 78.9149V80.2198C104.499 81.0847 104.147 81.9137 103.522 82.5252C102.898 83.1367 102.051 83.4809 101.167 83.4823H99.8337C98.95 83.4809 98.103 83.1367 97.4782 82.5252C96.8534 81.9137 96.5017 81.0847 96.5003 80.2198ZM99.167 80.2198C99.167 80.3929 99.2372 80.5589 99.3623 80.6812C99.4873 80.8036 99.6568 80.8723 99.8337 80.8723H101.167C101.344 80.8723 101.513 80.8036 101.638 80.6812C101.763 80.5589 101.834 80.3929 101.834 80.2198V78.9149C101.834 78.7418 101.763 78.5759 101.638 78.4535C101.513 78.3311 101.344 78.2624 101.167 78.2624H99.8337C99.6568 78.2624 99.4873 78.3311 99.3623 78.4535C99.2372 78.5759 99.167 78.7418 99.167 78.9149V80.2198ZM92.5003 83.4823C92.8539 83.4823 93.1931 83.3448 93.4431 83.1C93.6932 82.8553 93.8337 82.5234 93.8337 82.1773V76.9574C93.8337 76.6113 93.6932 76.2794 93.4431 76.0347C93.1931 75.79 92.8539 75.6525 92.5003 75.6525C92.1467 75.6525 91.8076 75.79 91.5575 76.0347C91.3075 76.2794 91.167 76.6113 91.167 76.9574V82.1773C91.167 82.5234 91.3075 82.8553 91.5575 83.1C91.8076 83.3448 92.1467 83.4823 92.5003 83.4823ZM80.5003 80.2198V78.9149C80.5017 78.0501 80.8534 77.2211 81.4782 76.6095C82.103 75.998 82.95 75.6538 83.8337 75.6525H85.167C86.0506 75.6538 86.8976 75.998 87.5225 76.6095C88.1473 77.2211 88.4989 78.0501 88.5003 78.9149V80.2198C88.4989 81.0847 88.1473 81.9137 87.5225 82.5252C86.8976 83.1367 86.0506 83.4809 85.167 83.4823H83.8337C82.95 83.4809 82.103 83.1367 81.4782 82.5252C80.8534 81.9137 80.5017 81.0847 80.5003 80.2198ZM83.167 80.2198C83.167 80.3929 83.2372 80.5589 83.3623 80.6812C83.4873 80.8036 83.6568 80.8723 83.8337 80.8723H85.167C85.3438 80.8723 85.5134 80.8036 85.6384 80.6812C85.7634 80.5589 85.8337 80.3929 85.8337 80.2198V78.9149C85.8337 78.7418 85.7634 78.5759 85.6384 78.4535C85.5134 78.3311 85.3438 78.2624 85.167 78.2624H83.8337C83.6568 78.2624 83.4873 78.3311 83.3623 78.4535C83.2372 78.5759 83.167 78.7418 83.167 78.9149V80.2198ZM83.8337 109.582H84.5003C84.8539 109.582 85.1931 109.444 85.4431 109.199C85.6932 108.955 85.8337 108.623 85.8337 108.277C85.8337 107.93 85.6932 107.599 85.4431 107.354C85.1931 107.109 84.8539 106.972 84.5003 106.972H83.8337C82.95 106.973 82.103 107.317 81.4782 107.929C80.8534 108.54 80.5017 109.369 80.5003 110.234V111.539C80.5017 112.404 80.8534 113.233 81.4782 113.844C82.103 114.456 82.95 114.8 83.8337 114.801H85.167C86.0506 114.8 86.8976 114.456 87.5225 113.844C88.1473 113.233 88.4989 112.404 88.5003 111.539V110.887C88.5003 110.54 88.3599 110.208 88.1098 109.964C87.8598 109.719 87.5206 109.582 87.167 109.582C86.8134 109.582 86.4742 109.719 86.2242 109.964C85.9741 110.208 85.8337 110.54 85.8337 110.887V111.539C85.8337 111.712 85.7634 111.878 85.6384 112C85.5134 112.123 85.3438 112.191 85.167 112.191H83.8337C83.6568 112.191 83.4873 112.123 83.3623 112C83.2372 111.878 83.167 111.712 83.167 111.539V110.234C83.167 110.061 83.2372 109.895 83.3623 109.773C83.4873 109.65 83.6568 109.582 83.8337 109.582ZM83.8337 93.922H84.5003C84.8539 93.922 85.1931 93.7845 85.4431 93.5398C85.6932 93.295 85.8337 92.9631 85.8337 92.617C85.8337 92.2709 85.6932 91.939 85.4431 91.6943C85.1931 91.4495 84.8539 91.312 84.5003 91.312H83.8337C83.6568 91.312 83.4873 91.2433 83.3623 91.1209C83.2372 90.9986 83.167 90.8326 83.167 90.6596V89.3546C83.167 89.1815 83.2372 89.0156 83.3623 88.8932C83.4873 88.7709 83.6568 88.7021 83.8337 88.7021H85.167C85.3438 88.7021 85.5134 88.7709 85.6384 88.8932C85.7634 89.0156 85.8337 89.1815 85.8337 89.3546V90.0071C85.8337 90.3532 85.9741 90.6851 86.2242 90.9298C86.4742 91.1746 86.8134 91.312 87.167 91.312C87.5206 91.312 87.8598 91.1746 88.1098 90.9298C88.3599 90.6851 88.5003 90.3532 88.5003 90.0071V89.3546C88.4989 88.4898 88.1473 87.6608 87.5225 87.0492C86.8976 86.4377 86.0506 86.0936 85.167 86.0922H83.8337C82.95 86.0936 82.103 86.4377 81.4782 87.0492C80.8534 87.6608 80.5017 88.4898 80.5003 89.3546V90.6596C80.5017 91.5244 80.8534 92.3534 81.4782 92.9649C82.103 93.5764 82.95 93.9206 83.8337 93.922ZM120.1 117.792C120.351 118.037 120.491 118.37 120.491 118.716C120.491 119.063 120.351 119.395 120.1 119.64C119.85 119.885 119.51 120.023 119.156 120.023C118.802 120.023 118.463 119.885 118.212 119.64L109.868 111.471C106.963 113.839 103.237 115.02 99.4655 114.768C95.6936 114.516 92.1662 112.851 89.617 110.118C87.0678 107.386 85.6932 103.796 85.7791 100.097C85.865 96.3977 87.4048 92.8732 90.0781 90.2568C92.7515 87.6403 96.3526 86.1333 100.132 86.0492C103.912 85.9652 107.579 87.3106 110.371 89.8055C113.163 92.3004 114.865 95.7528 115.123 99.4445C115.38 103.136 114.173 106.783 111.754 109.626L120.1 117.792ZM112.5 100.447C112.5 98.1239 111.797 95.8532 110.478 93.9218C109.159 91.9904 107.285 90.485 105.093 89.5961C102.9 88.7072 100.487 88.4746 98.1592 88.9278C95.8315 89.381 93.6933 90.4995 92.015 92.142C90.3368 93.7846 89.1939 95.8773 88.7309 98.1555C88.2679 100.434 88.5055 102.795 89.4138 104.941C90.322 107.087 91.8601 108.922 93.8335 110.212C95.8069 111.503 98.127 112.191 100.5 112.191C103.682 112.188 106.732 110.95 108.982 108.748C111.231 106.546 112.497 103.561 112.5 100.447ZM119.167 96.5319C118.813 96.5319 118.474 96.6694 118.224 96.9141C117.974 97.1588 117.834 97.4908 117.834 97.8369V103.057C117.834 103.403 117.974 103.735 118.224 103.979C118.474 104.224 118.813 104.362 119.167 104.362C119.521 104.362 119.86 104.224 120.11 103.979C120.36 103.735 120.5 103.403 120.5 103.057V97.8369C120.5 97.4908 120.36 97.1588 120.11 96.9141C119.86 96.6694 119.521 96.5319 119.167 96.5319ZM117.167 86.0922H115.834C114.95 86.0936 114.103 86.4377 113.478 87.0492C112.853 87.6608 112.502 88.4898 112.5 89.3546V90.0071C112.5 90.3532 112.641 90.6851 112.891 90.9298C113.141 91.1746 113.48 91.312 113.834 91.312C114.187 91.312 114.526 91.1746 114.776 90.9298C115.027 90.6851 115.167 90.3532 115.167 90.0071V89.3546C115.167 89.1815 115.237 89.0156 115.362 88.8932C115.487 88.7709 115.657 88.7021 115.834 88.7021H117.167C117.344 88.7021 117.513 88.7709 117.638 88.8932C117.763 89.0156 117.834 89.1815 117.834 89.3546V90.6596C117.834 90.8326 117.763 90.9986 117.638 91.1209C117.513 91.2433 117.344 91.312 117.167 91.312H116.5C116.147 91.312 115.808 91.4495 115.558 91.6943C115.307 91.939 115.167 92.2709 115.167 92.617C115.167 92.9631 115.307 93.295 115.558 93.5398C115.808 93.7845 116.147 93.922 116.5 93.922H117.167C118.051 93.9206 118.898 93.5764 119.522 92.9649C120.147 92.3534 120.499 91.5244 120.5 90.6596V89.3546C120.499 88.4898 120.147 87.6608 119.522 87.0492C118.898 86.4377 118.051 86.0936 117.167 86.0922ZM120.5 78.9149V80.2198C120.499 81.0847 120.147 81.9137 119.522 82.5252C118.898 83.1367 118.051 83.4809 117.167 83.4823H115.834C114.95 83.4809 114.103 83.1367 113.478 82.5252C112.853 81.9137 112.502 81.0847 112.5 80.2198V78.9149C112.502 78.0501 112.853 77.2211 113.478 76.6095C114.103 75.998 114.95 75.6538 115.834 75.6525H117.167C118.051 75.6538 118.898 75.998 119.522 76.6095C120.147 77.2211 120.499 78.0501 120.5 78.9149ZM117.834 78.9149C117.834 78.7418 117.763 78.5759 117.638 78.4535C117.513 78.3311 117.344 78.2624 117.167 78.2624H115.834C115.657 78.2624 115.487 78.3311 115.362 78.4535C115.237 78.5759 115.167 78.7418 115.167 78.9149V80.2198C115.167 80.3929 115.237 80.5589 115.362 80.6812C115.487 80.8036 115.657 80.8723 115.834 80.8723H117.167C117.344 80.8723 117.513 80.8036 117.638 80.6812C117.763 80.5589 117.834 80.3929 117.834 80.2198V78.9149ZM117.167 106.972H116.5C116.147 106.972 115.808 107.109 115.558 107.354C115.307 107.599 115.167 107.93 115.167 108.277C115.167 108.623 115.307 108.955 115.558 109.199C115.808 109.444 116.147 109.582 116.5 109.582H117.167C117.344 109.582 117.513 109.65 117.638 109.773C117.763 109.895 117.834 110.061 117.834 110.234V110.887C117.834 111.233 117.974 111.565 118.224 111.809C118.474 112.054 118.813 112.191 119.167 112.191C119.521 112.191 119.86 112.054 120.11 111.809C120.36 111.565 120.5 111.233 120.5 110.887V110.234C120.499 109.369 120.147 108.54 119.522 107.929C118.898 107.317 118.051 106.973 117.167 106.972ZM76.5003 83.4823C76.8539 83.4823 77.1931 83.3448 77.4431 83.1C77.6932 82.8553 77.8337 82.5234 77.8337 82.1773V76.9574C77.8337 76.6113 77.6932 76.2794 77.4431 76.0347C77.1931 75.79 76.8539 75.6525 76.5003 75.6525C76.1467 75.6525 75.8076 75.79 75.5575 76.0347C75.3075 76.2794 75.167 76.6113 75.167 76.9574V82.1773C75.167 82.5234 75.3075 82.8553 75.5575 83.1C75.8076 83.3448 76.1467 83.4823 76.5003 83.4823ZM109.834 99.1418H106.5L104.9 97.0539C104.759 96.8702 104.571 96.7263 104.355 96.6367C104.138 96.5471 103.902 96.5149 103.669 96.5435C103.436 96.5721 103.215 96.6605 103.028 96.7996C102.841 96.9387 102.695 97.1237 102.604 97.3358L100.679 101.854L98.439 94.8381C98.3561 94.5789 98.1926 94.3515 97.9713 94.1875C97.7501 94.0236 97.4821 93.9313 97.2047 93.9236C96.9273 93.9158 96.6543 93.993 96.4239 94.1443C96.1934 94.2956 96.0169 94.5135 95.919 94.7676L94.2417 99.1418H91.167C90.8134 99.1418 90.4742 99.2793 90.2242 99.524C89.9741 99.7688 89.8337 100.101 89.8337 100.447C89.8337 100.793 89.9741 101.125 90.2242 101.37C90.4742 101.614 90.8134 101.752 91.167 101.752H95.167C95.4382 101.752 95.703 101.671 95.9259 101.52C96.1489 101.369 96.3195 101.155 96.415 100.906L97.0523 99.2436L99.2283 106.056C99.3104 106.311 99.4706 106.535 99.6871 106.698C99.9036 106.861 100.166 106.955 100.439 106.967C100.712 106.979 100.982 106.909 101.213 106.766C101.444 106.623 101.624 106.414 101.73 106.168L104.167 100.447L104.767 101.23C104.891 101.392 105.052 101.523 105.237 101.614C105.423 101.705 105.627 101.752 105.834 101.752H109.834C110.187 101.752 110.526 101.614 110.776 101.37C111.027 101.125 111.167 100.793 111.167 100.447C111.167 100.101 111.027 99.7688 110.776 99.524C110.526 99.2793 110.187 99.1418 109.834 99.1418ZM76.5003 114.801C76.8539 114.801 77.1931 114.664 77.4431 114.419C77.6932 114.174 77.8337 113.843 77.8337 113.496V108.277C77.8337 107.93 77.6932 107.599 77.4431 107.354C77.1931 107.109 76.8539 106.972 76.5003 106.972C76.1467 106.972 75.8076 107.109 75.5575 107.354C75.3075 107.599 75.167 107.93 75.167 108.277V113.496C75.167 113.843 75.3075 114.174 75.5575 114.419C75.8076 114.664 76.1467 114.801 76.5003 114.801ZM76.5003 93.922C76.8539 93.922 77.1931 93.7845 77.4431 93.5398C77.6932 93.295 77.8337 92.9631 77.8337 92.617V87.3971C77.8337 87.051 77.6932 86.7191 77.4431 86.4744C77.1931 86.2297 76.8539 86.0922 76.5003 86.0922C76.1467 86.0922 75.8076 86.2297 75.5575 86.4744C75.3075 86.7191 75.167 87.051 75.167 87.3971V92.617C75.167 92.9631 75.3075 93.295 75.5575 93.5398C75.8076 93.7845 76.1467 93.922 76.5003 93.922ZM75.167 101.099V99.7943C75.1684 98.9295 75.52 98.1005 76.1449 97.489C76.7697 96.8774 77.6167 96.5333 78.5003 96.5319H79.8337C80.7173 96.5333 81.5643 96.8774 82.1891 97.489C82.8139 98.1005 83.1656 98.9295 83.167 99.7943V101.099C83.1656 101.964 82.8139 102.793 82.1891 103.405C81.5643 104.016 80.7173 104.36 79.8337 104.362H78.5003C77.6167 104.36 76.7697 104.016 76.1449 103.405C75.52 102.793 75.1684 101.964 75.167 101.099ZM77.8337 101.099C77.8337 101.272 77.9039 101.438 78.0289 101.561C78.1539 101.683 78.3235 101.752 78.5003 101.752H79.8337C80.0105 101.752 80.18 101.683 80.3051 101.561C80.4301 101.438 80.5003 101.272 80.5003 101.099V99.7943C80.5003 99.6213 80.4301 99.4553 80.3051 99.3329C80.18 99.2106 80.0105 99.1418 79.8337 99.1418H78.5003C78.3235 99.1418 78.1539 99.2106 78.0289 99.3329C77.9039 99.4553 77.8337 99.6213 77.8337 99.7943V101.099Z" fill="white"/>
</g>
<path d="M28.9844 182V171.906H24.9609V170.75H34.4297V171.906H30.3906V182H28.9844ZM37.7109 182.188C36.9089 182.188 36.2135 182.008 35.625 181.648C35.0417 181.289 34.5911 180.781 34.2734 180.125C33.9557 179.464 33.7969 178.685 33.7969 177.789C33.7969 176.888 33.9557 176.107 34.2734 175.445C34.5911 174.784 35.0391 174.273 35.6172 173.914C36.1953 173.555 36.875 173.375 37.6562 173.375C38.1042 173.375 38.5521 173.448 39 173.594C39.4531 173.734 39.8646 173.982 40.2344 174.336C40.6094 174.685 40.9089 175.167 41.1328 175.781C41.362 176.391 41.4766 177.161 41.4766 178.094H34.6406V177.031H40.3359L39.9609 177.523C39.9349 176.784 39.8151 176.19 39.6016 175.742C39.388 175.294 39.1094 174.971 38.7656 174.773C38.4271 174.57 38.0495 174.469 37.6328 174.469C37.138 174.469 36.7109 174.599 36.3516 174.859C35.9922 175.115 35.7161 175.49 35.5234 175.984C35.3307 176.479 35.2344 177.083 35.2344 177.797C35.2344 178.849 35.4479 179.661 35.875 180.234C36.3073 180.807 36.9193 181.094 37.7109 181.094C38.2786 181.094 38.7552 180.951 39.1406 180.664C39.5312 180.378 39.8177 179.964 40 179.422L41.2891 179.859C41.0859 180.349 40.8151 180.768 40.4766 181.117C40.138 181.461 39.7344 181.727 39.2656 181.914C38.8021 182.096 38.2839 182.188 37.7109 182.188ZM44.6953 182C44.362 182 44.0703 181.891 43.8203 181.672C43.5703 181.448 43.4453 181.167 43.4453 180.828V170.281H44.7578V180.477C44.7578 180.648 44.7812 180.763 44.8281 180.82C44.8802 180.878 44.987 180.906 45.1484 180.906H45.9688V182H44.6953ZM51.0234 182.188C50.2214 182.188 49.526 182.008 48.9375 181.648C48.3542 181.289 47.9036 180.781 47.5859 180.125C47.2682 179.464 47.1094 178.685 47.1094 177.789C47.1094 176.888 47.2682 176.107 47.5859 175.445C47.9036 174.784 48.3516 174.273 48.9297 173.914C49.5078 173.555 50.1875 173.375 50.9688 173.375C51.4167 173.375 51.8646 173.448 52.3125 173.594C52.7656 173.734 53.1771 173.982 53.5469 174.336C53.9219 174.685 54.2214 175.167 54.4453 175.781C54.6745 176.391 54.7891 177.161 54.7891 178.094H47.9531V177.031H53.6484L53.2734 177.523C53.2474 176.784 53.1276 176.19 52.9141 175.742C52.7005 175.294 52.4219 174.971 52.0781 174.773C51.7396 174.57 51.362 174.469 50.9453 174.469C50.4505 174.469 50.0234 174.599 49.6641 174.859C49.3047 175.115 49.0286 175.49 48.8359 175.984C48.6432 176.479 48.5469 177.083 48.5469 177.797C48.5469 178.849 48.7604 179.661 49.1875 180.234C49.6198 180.807 50.2318 181.094 51.0234 181.094C51.5911 181.094 52.0677 180.951 52.4531 180.664C52.8438 180.378 53.1302 179.964 53.3125 179.422L54.6016 179.859C54.3984 180.349 54.1276 180.768 53.7891 181.117C53.4505 181.461 53.0469 181.727 52.5781 181.914C52.1146 182.096 51.5964 182.188 51.0234 182.188ZM59.7422 185.234C58.487 185.234 57.5625 185.057 56.9688 184.703C56.375 184.354 56.0781 183.812 56.0781 183.078C56.0781 182.661 56.1849 182.289 56.3984 181.961C56.612 181.633 56.9818 181.38 57.5078 181.203C57.3099 181.083 57.1484 180.924 57.0234 180.727C56.8984 180.529 56.8359 180.307 56.8359 180.062C56.8359 179.771 56.9271 179.51 57.1094 179.281C57.2917 179.047 57.5521 178.88 57.8906 178.781C57.474 178.536 57.1484 178.206 56.9141 177.789C56.6849 177.367 56.5703 176.878 56.5703 176.32C56.5703 175.716 56.7031 175.195 56.9688 174.758C57.2396 174.315 57.6224 173.974 58.1172 173.734C58.6172 173.495 59.2109 173.375 59.8984 173.375C60.5859 173.375 61.1797 173.495 61.6797 173.734C62.1849 173.974 62.5729 174.315 62.8438 174.758C63.1198 175.201 63.2578 175.727 63.2578 176.336C63.2578 176.935 63.1198 177.453 62.8438 177.891C62.5729 178.323 62.1849 178.659 61.6797 178.898C61.1745 179.133 60.5729 179.25 59.875 179.25H59.1484C58.4922 179.25 58.1641 179.445 58.1641 179.836C58.1641 180.206 58.4818 180.391 59.1172 180.391H60.8047C61.4714 180.391 62.0078 180.469 62.4141 180.625C62.8255 180.776 63.138 180.974 63.3516 181.219C63.5703 181.458 63.7188 181.719 63.7969 182C63.875 182.281 63.9141 182.549 63.9141 182.805C63.9141 183.633 63.6146 184.245 63.0156 184.641C62.4167 185.036 61.487 185.234 60.2266 185.234H59.7422ZM59.7422 184.188H60.2266C61.7786 184.188 62.5547 183.724 62.5547 182.797C62.5547 182.411 62.4141 182.096 62.1328 181.852C61.8568 181.607 61.3828 181.484 60.7109 181.484H59.2578C58.737 181.484 58.3021 181.591 57.9531 181.805C57.6042 182.013 57.4297 182.357 57.4297 182.836C57.4297 183.294 57.6172 183.633 57.9922 183.852C58.3724 184.076 58.9557 184.188 59.7422 184.188ZM59.8984 178.328C60.5599 178.328 61.0677 178.159 61.4219 177.82C61.776 177.477 61.9531 176.982 61.9531 176.336C61.9531 175.695 61.776 175.198 61.4219 174.844C61.0677 174.49 60.5599 174.312 59.8984 174.312C59.2422 174.312 58.7396 174.49 58.3906 174.844C58.0417 175.193 57.8672 175.69 57.8672 176.336C57.8672 176.982 58.0417 177.477 58.3906 177.82C58.7396 178.159 59.2422 178.328 59.8984 178.328ZM61.2891 174.258V173.422C61.2891 173.083 61.4141 172.805 61.6641 172.586C61.9141 172.362 62.2057 172.25 62.5391 172.25H63.5547V173.344H62.7188C62.5573 173.344 62.4505 173.372 62.3984 173.43C62.3516 173.487 62.3281 173.602 62.3281 173.773V174.258H61.2891ZM65.5703 182V173.562H66.8047V175.352L66.7578 175.148C67.0078 174.565 67.3828 174.125 67.8828 173.828C68.388 173.526 68.8984 173.375 69.4141 173.375C69.5651 173.375 69.7109 173.388 69.8516 173.414C69.9974 173.44 70.1328 173.484 70.2578 173.547L70.0859 174.781C69.7995 174.693 69.5156 174.648 69.2344 174.648C69.0573 174.648 68.8359 174.685 68.5703 174.758C68.3099 174.826 68.0495 174.966 67.7891 175.18C67.5339 175.388 67.3177 175.701 67.1406 176.117C66.9688 176.534 66.8828 177.089 66.8828 177.781V182H65.5703ZM73.6562 182.188C73.0938 182.188 72.6042 182.081 72.1875 181.867C71.776 181.648 71.4583 181.352 71.2344 180.977C71.0104 180.602 70.8984 180.177 70.8984 179.703C70.8984 179.198 71.0469 178.732 71.3438 178.305C71.6406 177.878 72.099 177.536 72.7188 177.281C73.3438 177.021 74.1432 176.891 75.1172 176.891H76.5234L76.3828 177.031V176.57C76.3828 175.893 76.2474 175.375 75.9766 175.016C75.7057 174.651 75.2526 174.469 74.6172 174.469C74.0182 174.469 73.5573 174.625 73.2344 174.938C72.9115 175.245 72.7396 175.659 72.7188 176.18L71.2422 175.844C71.2891 175.391 71.4609 174.979 71.7578 174.609C72.0599 174.234 72.4609 173.935 72.9609 173.711C73.4661 173.487 74.0495 173.375 74.7109 173.375C75.3932 173.375 75.9479 173.505 76.375 173.766C76.8073 174.021 77.125 174.391 77.3281 174.875C77.5312 175.359 77.6328 175.943 77.6328 176.625V180.477C77.6328 180.648 77.6562 180.763 77.7031 180.82C77.7552 180.878 77.862 180.906 78.0234 180.906H78.5V182H77.6641C77.3099 182 77.013 181.891 76.7734 181.672C76.5339 181.448 76.4141 181.167 76.4141 180.828V180.234H76.6094C76.526 180.453 76.4062 180.677 76.25 180.906C76.0938 181.13 75.8958 181.341 75.6562 181.539C75.4167 181.732 75.1302 181.888 74.7969 182.008C74.4688 182.128 74.0885 182.188 73.6562 182.188ZM73.9531 181.094C74.3854 181.094 74.7865 180.987 75.1562 180.773C75.526 180.56 75.8229 180.227 76.0469 179.773C76.276 179.315 76.3906 178.721 76.3906 177.992V177.922H75.0703C74.3776 177.922 73.8307 178.013 73.4297 178.195C73.0339 178.378 72.7526 178.604 72.5859 178.875C72.4193 179.141 72.3359 179.406 72.3359 179.672C72.3359 179.938 72.3958 180.177 72.5156 180.391C72.6354 180.604 72.8151 180.776 73.0547 180.906C73.2943 181.031 73.5938 181.094 73.9531 181.094ZM80.3203 182V173.562H81.5547V175.008C81.7526 174.57 82.0807 174.19 82.5391 173.867C82.9974 173.539 83.5417 173.375 84.1719 173.375C84.7292 173.375 85.2135 173.529 85.625 173.836C86.0417 174.138 86.3516 174.568 86.5547 175.125C86.8203 174.609 87.1823 174.19 87.6406 173.867C88.1042 173.539 88.6432 173.375 89.2578 173.375C90.0651 173.375 90.7031 173.669 91.1719 174.258C91.6458 174.841 91.8828 175.651 91.8828 176.688V182H90.5703V176.789C90.5703 176.31 90.5208 175.898 90.4219 175.555C90.3229 175.206 90.1589 174.938 89.9297 174.75C89.7057 174.562 89.3984 174.469 89.0078 174.469C88.5807 174.469 88.1953 174.591 87.8516 174.836C87.513 175.076 87.2448 175.427 87.0469 175.891C86.8542 176.354 86.7578 176.919 86.7578 177.586V182H85.4453V176.789C85.4453 176.31 85.3958 175.898 85.2969 175.555C85.1979 175.206 85.0365 174.938 84.8125 174.75C84.5885 174.562 84.2839 174.469 83.8984 174.469C83.4714 174.469 83.0859 174.589 82.7422 174.828C82.3984 175.068 82.1276 175.419 81.9297 175.883C81.7318 176.346 81.6328 176.914 81.6328 177.586V182H80.3203ZM98.0469 182L98.6719 170.75H100.984L104.172 180.984H103.859L107.062 170.75H109.375L110 182H108.641L108.094 171.812H108.117L104.812 182H103.25L99.9297 171.812H99.9531L99.4062 182H98.0469ZM112.25 182V173.562H113.562V182H112.25ZM112.906 172.148C112.604 172.148 112.346 172.042 112.133 171.828C111.919 171.615 111.812 171.357 111.812 171.055C111.812 170.747 111.919 170.49 112.133 170.281C112.346 170.068 112.604 169.961 112.906 169.961C113.214 169.961 113.471 170.068 113.68 170.281C113.893 170.49 114 170.747 114 171.055C114 171.357 113.893 171.615 113.68 171.828C113.471 172.042 113.214 172.148 112.906 172.148ZM116.117 182V173.562H117.352V175.469L117.297 175.125C117.521 174.641 117.875 174.229 118.359 173.891C118.844 173.547 119.432 173.375 120.125 173.375C120.724 173.375 121.24 173.508 121.672 173.773C122.104 174.039 122.438 174.419 122.672 174.914C122.906 175.404 123.023 175.995 123.023 176.688V182H121.711V176.789C121.711 176.096 121.568 175.536 121.281 175.109C121 174.682 120.534 174.469 119.883 174.469C119.18 174.469 118.594 174.737 118.125 175.273C117.661 175.805 117.43 176.576 117.43 177.586V182H116.117ZM125.422 182V173.562H126.734V182H125.422ZM126.078 172.148C125.776 172.148 125.518 172.042 125.305 171.828C125.091 171.615 124.984 171.357 124.984 171.055C124.984 170.747 125.091 170.49 125.305 170.281C125.518 170.068 125.776 169.961 126.078 169.961C126.385 169.961 126.643 170.068 126.852 170.281C127.065 170.49 127.172 170.747 127.172 171.055C127.172 171.357 127.065 171.615 126.852 171.828C126.643 172.042 126.385 172.148 126.078 172.148ZM132.234 182L136.984 170.75H138.391L143.125 182H141.625L137.688 172.219L133.734 182H132.234ZM134.672 178.312V177.156H140.688V178.312H134.672ZM144.555 185.047V173.562H145.789V175.32L145.75 175.195C145.979 174.581 146.359 174.125 146.891 173.828C147.422 173.526 147.987 173.375 148.586 173.375C149.273 173.375 149.878 173.555 150.398 173.914C150.919 174.273 151.326 174.784 151.617 175.445C151.909 176.107 152.055 176.888 152.055 177.789C152.055 178.69 151.906 179.471 151.609 180.133C151.318 180.789 150.911 181.297 150.391 181.656C149.87 182.01 149.268 182.188 148.586 182.188C148.034 182.188 147.487 182.049 146.945 181.773C146.404 181.497 145.995 181.031 145.719 180.375L145.836 180.312V185.047H144.555ZM148.227 181.094C148.924 181.094 149.497 180.807 149.945 180.234C150.393 179.656 150.617 178.831 150.617 177.758C150.617 176.716 150.401 175.909 149.969 175.336C149.536 174.758 148.961 174.469 148.242 174.469C147.805 174.469 147.401 174.583 147.031 174.812C146.667 175.042 146.375 175.398 146.156 175.883C145.938 176.367 145.828 176.992 145.828 177.758C145.828 178.888 146.062 179.727 146.531 180.273C147 180.82 147.565 181.094 148.227 181.094ZM154.008 185.047V173.562H155.242V175.32L155.203 175.195C155.432 174.581 155.812 174.125 156.344 173.828C156.875 173.526 157.44 173.375 158.039 173.375C158.727 173.375 159.331 173.555 159.852 173.914C160.372 174.273 160.779 174.784 161.07 175.445C161.362 176.107 161.508 176.888 161.508 177.789C161.508 178.69 161.359 179.471 161.062 180.133C160.771 180.789 160.365 181.297 159.844 181.656C159.323 182.01 158.721 182.188 158.039 182.188C157.487 182.188 156.94 182.049 156.398 181.773C155.857 181.497 155.448 181.031 155.172 180.375L155.289 180.312V185.047H154.008ZM157.68 181.094C158.378 181.094 158.951 180.807 159.398 180.234C159.846 179.656 160.07 178.831 160.07 177.758C160.07 176.716 159.854 175.909 159.422 175.336C158.99 174.758 158.414 174.469 157.695 174.469C157.258 174.469 156.854 174.583 156.484 174.812C156.12 175.042 155.828 175.398 155.609 175.883C155.391 176.367 155.281 176.992 155.281 177.758C155.281 178.888 155.516 179.727 155.984 180.273C156.453 180.82 157.018 181.094 157.68 181.094ZM166.406 182.188C165.797 182.188 165.242 182.089 164.742 181.891C164.247 181.688 163.836 181.383 163.508 180.977C163.18 180.565 162.961 180.044 162.852 179.414L164.227 179.148C164.284 179.81 164.508 180.302 164.898 180.625C165.294 180.948 165.789 181.109 166.383 181.109C166.971 181.109 167.44 180.961 167.789 180.664C168.138 180.367 168.312 180.005 168.312 179.578C168.312 179.214 168.188 178.924 167.938 178.711C167.693 178.497 167.336 178.346 166.867 178.258L165.844 178.062C165.568 178.01 165.281 177.938 164.984 177.844C164.688 177.75 164.409 177.62 164.148 177.453C163.893 177.286 163.685 177.068 163.523 176.797C163.367 176.526 163.289 176.185 163.289 175.773C163.289 175.221 163.432 174.771 163.719 174.422C164.01 174.068 164.393 173.805 164.867 173.633C165.346 173.461 165.862 173.375 166.414 173.375C167.018 173.375 167.544 173.469 167.992 173.656C168.44 173.844 168.805 174.112 169.086 174.461C169.367 174.81 169.555 175.232 169.648 175.727L168.203 176.016C168.167 175.698 168.081 175.422 167.945 175.188C167.815 174.953 167.622 174.773 167.367 174.648C167.117 174.518 166.792 174.453 166.391 174.453C165.906 174.453 165.49 174.555 165.141 174.758C164.792 174.961 164.617 175.268 164.617 175.68C164.617 175.909 164.674 176.104 164.789 176.266C164.909 176.427 165.086 176.562 165.32 176.672C165.56 176.776 165.859 176.867 166.219 176.945L167.258 177.164C167.695 177.253 168.099 177.385 168.469 177.562C168.839 177.734 169.135 177.974 169.359 178.281C169.583 178.589 169.695 178.995 169.695 179.5C169.695 180.057 169.555 180.539 169.273 180.945C168.997 181.346 168.612 181.654 168.117 181.867C167.628 182.081 167.057 182.188 166.406 182.188Z" fill="white"/>
<rect x="51.5" y="51.5" width="93" height="93" rx="11.5" fill="#282828"/>
<rect x="51.5" y="51.5" width="93" height="93" rx="11.5" stroke="url(#paint2_linear_516_4701)"/>
<g clip-path="url(#clip1_516_4701)">
<path d="M119.667 97C119.313 97 118.974 97.1404 118.724 97.3905C118.474 97.6405 118.334 97.9797 118.334 98.3333V114.333C118.334 115.394 117.912 116.412 117.162 117.162C116.412 117.912 115.395 118.333 114.334 118.333H108.04L109.88 110.976C109.978 110.583 109.985 110.173 109.9 109.777C109.816 109.381 109.642 109.009 109.392 108.69C109.143 108.371 108.824 108.113 108.46 107.936C108.096 107.758 107.696 107.666 107.291 107.667H100.075C99.2035 105.835 97.7591 104.337 95.9603 103.4C97.0075 102.519 97.7581 101.336 98.1101 100.014C98.462 98.691 98.3984 97.292 97.9277 96.0068C97.457 94.7215 96.6021 93.6123 95.4792 92.8297C94.3563 92.0472 93.0197 91.6292 91.651 91.6326C90.2823 91.6361 88.9478 92.0607 87.8287 92.8488C86.7097 93.6369 85.8604 94.7504 85.3961 96.038C84.9319 97.3256 84.8752 98.7248 85.2337 100.046C85.5923 101.367 86.3487 102.545 87.4003 103.421C85.8781 104.201 84.6 105.385 83.7062 106.843C82.8125 108.301 82.3376 109.978 82.3337 111.688V118.333C81.8084 118.333 81.2882 118.23 80.8029 118.029C80.3176 117.828 79.8767 117.533 79.5052 117.162C79.1338 116.79 78.8392 116.349 78.6381 115.864C78.4371 115.379 78.3337 114.859 78.3337 114.333V89H93.0003C93.3539 89 93.6931 88.8595 93.9431 88.6094C94.1932 88.3594 94.3337 88.0202 94.3337 87.6666C94.3337 87.313 94.1932 86.9739 93.9431 86.7238C93.6931 86.4738 93.3539 86.3333 93.0003 86.3333H78.579C78.8538 85.5561 79.362 84.8827 80.0341 84.4054C80.7062 83.9281 81.5093 83.67 82.3337 83.6666H93.0003C93.3539 83.6666 93.6931 83.5262 93.9431 83.2761C94.1932 83.0261 94.3337 82.6869 94.3337 82.3333C94.3337 81.9797 94.1932 81.6405 93.9431 81.3905C93.6931 81.1404 93.3539 81 93.0003 81H82.3337C80.5655 81 78.8699 81.7023 77.6196 82.9526C76.3694 84.2028 75.667 85.8985 75.667 87.6666V114.333C75.667 116.101 76.3694 117.797 77.6196 119.047C78.8699 120.298 80.5655 121 82.3337 121H114.334C116.102 121 117.797 120.298 119.048 119.047C120.298 117.797 121 116.101 121 114.333V98.3333C121 97.9797 120.86 97.6405 120.61 97.3905C120.36 97.1404 120.021 97 119.667 97ZM91.667 94.3333C92.4581 94.3333 93.2315 94.5679 93.8893 95.0074C94.5471 95.4469 95.0598 96.0717 95.3625 96.8026C95.6653 97.5335 95.7445 98.3377 95.5901 99.1137C95.4358 99.8896 95.0548 100.602 94.4954 101.162C93.936 101.721 93.2233 102.102 92.4474 102.256C91.6714 102.411 90.8672 102.332 90.1363 102.029C89.4054 101.726 88.7806 101.213 88.3411 100.556C87.9016 99.8978 87.667 99.1244 87.667 98.3333C87.667 97.2724 88.0884 96.255 88.8386 95.5049C89.5887 94.7547 90.6061 94.3333 91.667 94.3333ZM89.2937 118.333H85.0003V111.667C85.0003 110.267 85.4406 108.904 86.2587 107.769C87.0768 106.633 88.2314 105.785 89.5588 105.342C90.8862 104.9 92.3192 104.886 93.6548 105.303C94.9903 105.72 96.1608 106.547 97.0003 107.667H94.7443C93.9498 107.665 93.1778 107.931 92.5518 108.42C91.9258 108.909 91.4819 109.594 91.291 110.365L89.2937 118.333ZM105.294 118.333H92.0403L93.8723 111.011C93.9201 110.817 94.0315 110.645 94.1886 110.522C94.3457 110.399 94.5396 110.333 94.739 110.333H107.294L105.294 118.333ZM115.667 75.6666H102.334C100.919 75.6666 99.5626 76.2285 98.5624 77.2287C97.5622 78.2289 97.0003 79.5855 97.0003 81V89C97.0003 90.4144 97.5622 91.771 98.5624 92.7712C99.5626 93.7714 100.919 94.3333 102.334 94.3333V97C102.334 97.2359 102.396 97.4676 102.515 97.6714C102.634 97.8752 102.804 98.0439 103.01 98.1602C103.215 98.2766 103.447 98.3363 103.683 98.3335C103.919 98.3306 104.15 98.2652 104.352 98.144L110.704 94.3333H115.667C117.081 94.3333 118.438 93.7714 119.438 92.7712C120.438 91.771 121 90.4144 121 89V81C121 79.5855 120.438 78.2289 119.438 77.2287C118.438 76.2285 117.081 75.6666 115.667 75.6666ZM118.334 89C118.334 89.7072 118.053 90.3855 117.553 90.8856C117.053 91.3857 116.374 91.6666 115.667 91.6666H110.334C110.092 91.6655 109.855 91.731 109.648 91.856L105 94.6453V93C105 92.6463 104.86 92.3072 104.61 92.0571C104.36 91.8071 104.021 91.6666 103.667 91.6666H102.334C101.626 91.6666 100.948 91.3857 100.448 90.8856C99.9479 90.3855 99.667 89.7072 99.667 89V81C99.667 80.2927 99.9479 79.6144 100.448 79.1143C100.948 78.6142 101.626 78.3333 102.334 78.3333H115.667C116.374 78.3333 117.053 78.6142 117.553 79.1143C118.053 79.6144 118.334 80.2927 118.334 81V89ZM115.667 82.3333C115.667 82.6869 115.527 83.0261 115.276 83.2761C115.026 83.5262 114.687 83.6666 114.334 83.6666H103.667C103.313 83.6666 102.974 83.5262 102.724 83.2761C102.474 83.0261 102.334 82.6869 102.334 82.3333C102.334 81.9797 102.474 81.6405 102.724 81.3905C102.974 81.1404 103.313 81 103.667 81H114.334C114.687 81 115.026 81.1404 115.276 81.3905C115.527 81.6405 115.667 81.9797 115.667 82.3333ZM113 87.6666C113 88.0202 112.86 88.3594 112.61 88.6094C112.36 88.8595 112.021 89 111.667 89H103.667C103.313 89 102.974 88.8595 102.724 88.6094C102.474 88.3594 102.334 88.0202 102.334 87.6666C102.334 87.313 102.474 86.9739 102.724 86.7238C102.974 86.4738 103.313 86.3333 103.667 86.3333H111.667C112.021 86.3333 112.36 86.4738 112.61 86.7238C112.86 86.9739 113 87.313 113 87.6666Z" fill="white"/>
</g>
<defs>
<linearGradient id="paint0_linear_516_4701" x1="8.13673e-06" y1="233" x2="194" y2="-5.56374e-06" gradientUnits="userSpaceOnUse">
<stop stop-color="#00E676"/>
<stop offset="0.836538" stop-color="#9B5DC8"/>
</linearGradient>
<linearGradient id="paint1_linear_516_4701" x1="52.5195" y1="141.867" x2="161.195" y2="102.044" gradientUnits="userSpaceOnUse">
<stop stop-color="#00E676"/>
<stop offset="0.79" stop-color="#6A0DAD"/>
</linearGradient>
<linearGradient id="paint2_linear_516_4701" x1="53.0195" y1="141.867" x2="161.695" y2="102.044" gradientUnits="userSpaceOnUse">
<stop stop-color="#00E676"/>
<stop offset="0.79" stop-color="#6A0DAD"/>
</linearGradient>
<clipPath id="clip0_516_4701">
<rect width="46" height="46" fill="white" transform="translate(74.5 75)"/>
</clipPath>
<clipPath id="clip1_516_4701">
<rect width="46" height="46" fill="white" transform="translate(75 75)"/>
</clipPath>
</defs>
</svg>
