<svg width="94" height="94" viewBox="0 0 94 94" fill="none" xmlns="http://www.w3.org/2000/svg">
<rect width="94" height="94" rx="12" fill="#282828"/>
<g clip-path="url(#clip0_646_4109)">
<path d="M63.3327 24.667H31.3327C29.5646 24.667 27.8689 25.3694 26.6186 26.6196C25.3684 27.8699 24.666 29.5655 24.666 31.3337V58.0003C24.666 59.7684 25.3684 61.4641 26.6186 62.7144C27.8689 63.9646 29.5646 64.667 31.3327 64.667H41.9993C42.353 64.667 42.6921 64.5265 42.9422 64.2765C43.1922 64.0264 43.3327 63.6873 43.3327 63.3337C43.3327 62.98 43.1922 62.6409 42.9422 62.3909C42.6921 62.1408 42.353 62.0003 41.9993 62.0003H31.3327C30.2718 62.0003 29.2544 61.5789 28.5043 60.8288C27.7541 60.0786 27.3327 59.0612 27.3327 58.0003V54.0003H42.698C43.5733 55.305 44.6947 56.4264 45.9993 57.3017V68.667C45.9994 68.8944 46.0575 69.118 46.1683 69.3165C46.2791 69.5151 46.4388 69.682 46.6322 69.8015C46.8257 69.9209 47.0465 69.9889 47.2736 69.999C47.5008 70.009 47.7267 69.9609 47.93 69.859L52.666 67.491L57.402 69.859C57.6053 69.9609 57.8312 70.009 58.0584 69.999C58.2855 69.9889 58.5063 69.9209 58.6998 69.8015C58.8933 69.682 59.053 69.5151 59.1638 69.3165C59.2745 69.118 59.3327 68.8944 59.3327 68.667V57.3017C60.6373 56.4264 61.7587 55.305 62.634 54.0003H67.3327V58.0003C67.3327 59.0612 66.9113 60.0786 66.1611 60.8288C65.411 61.5789 64.3936 62.0003 63.3327 62.0003C62.9791 62.0003 62.6399 62.1408 62.3899 62.3909C62.1398 62.6409 61.9994 62.98 61.9994 63.3337C61.9994 63.6873 62.1398 64.0264 62.3899 64.2765C62.6399 64.5265 62.9791 64.667 63.3327 64.667C65.1008 64.667 66.7965 63.9646 68.0467 62.7144C69.297 61.4641 69.9994 59.7684 69.9994 58.0003V31.3337C69.9994 29.5655 69.297 27.8699 68.0467 26.6196C66.7965 25.3694 65.1008 24.667 63.3327 24.667ZM52.666 56.667C50.8201 56.667 49.0156 56.1196 47.4807 55.094C45.9458 54.0685 44.7496 52.6108 44.0431 50.9054C43.3367 49.1999 43.1519 47.3233 43.512 45.5128C43.8721 43.7023 44.7611 42.0393 46.0664 40.734C47.3716 39.4287 49.0347 38.5398 50.8452 38.1797C52.6557 37.8195 54.5323 38.0044 56.2377 38.7108C57.9432 39.4172 59.4008 40.6135 60.4264 42.1483C61.452 43.6832 61.9994 45.4877 61.9994 47.3337C61.9994 49.809 61.016 52.183 59.2657 53.9333C57.5153 55.6837 55.1414 56.667 52.666 56.667ZM52.666 35.3337C50.6942 35.3353 48.7532 35.8227 47.0146 36.753C45.276 37.6832 43.7935 39.0275 42.698 40.667H27.3327V32.667H67.3327V40.667H62.634C61.5386 39.0275 60.056 37.6832 58.3174 36.753C56.5788 35.8227 54.6378 35.3353 52.666 35.3337ZM31.3327 27.3337H63.3327C64.157 27.3371 64.9602 27.5951 65.6323 28.0724C66.3044 28.5498 66.8126 29.2231 67.0874 30.0003H27.578C27.8528 29.2231 28.361 28.5498 29.0331 28.0724C29.7052 27.5951 30.5083 27.3371 31.3327 27.3337ZM27.3327 51.3337V43.3337H41.402C40.4207 45.91 40.4207 48.7573 41.402 51.3337H27.3327ZM56.666 66.5097L53.2633 64.8083C53.0779 64.7154 52.8734 64.667 52.666 64.667C52.4586 64.667 52.2541 64.7154 52.0687 64.8083L48.666 66.5097V58.5977C51.2424 59.579 54.0896 59.579 56.666 58.5977V66.5097ZM63.93 51.3337C64.9114 48.7573 64.9114 45.91 63.93 43.3337H67.3327V51.3337H63.93ZM59.3327 47.3337C59.3327 47.6873 59.1922 48.0264 58.9422 48.2765C58.6921 48.5265 58.353 48.667 57.9994 48.667C57.6457 48.667 57.3066 48.5265 57.0565 48.2765C56.8065 48.0264 56.666 47.6873 56.666 47.3337C56.666 46.2728 56.2446 45.2554 55.4944 44.5052C54.7443 43.7551 53.7269 43.3337 52.666 43.3337C52.3124 43.3337 51.9733 43.1932 51.7232 42.9431C51.4732 42.6931 51.3327 42.3539 51.3327 42.0003C51.3327 41.6467 51.4732 41.3076 51.7232 41.0575C51.9733 40.8075 52.3124 40.667 52.666 40.667C54.4341 40.667 56.1298 41.3694 57.3801 42.6196C58.6303 43.8699 59.3327 45.5655 59.3327 47.3337Z" fill="url(#paint0_linear_646_4109)"/>
</g>
<defs>
<linearGradient id="paint0_linear_646_4109" x1="25.64" y1="68.4892" x2="78.0509" y2="49.284" gradientUnits="userSpaceOnUse">
<stop stop-color="#00E676"/>
<stop offset="0.79" stop-color="#6A0DAD"/>
</linearGradient>
<clipPath id="clip0_646_4109">
<rect width="46" height="46" fill="white" transform="translate(24 24)"/>
</clipPath>
</defs>
</svg>
