<svg width="194" height="234" viewBox="0 0 194 234" fill="none" xmlns="http://www.w3.org/2000/svg">
<mask id="path-1-inside-1_516_4731" fill="white">
<path d="M0 31.5007C0 28.7089 1.16699 26.0443 3.21873 24.1512L26.5209 2.65054C28.368 0.946304 30.789 0 33.3022 0H184C189.523 0 194 4.47716 194 10V223.242C194 228.765 189.523 233.242 184 233.242H10C4.47716 233.242 0 228.765 0 223.242V31.5007Z"/>
</mask>
<path d="M0 31.5007C0 28.7089 1.16699 26.0443 3.21873 24.1512L26.5209 2.65054C28.368 0.946304 30.789 0 33.3022 0H184C189.523 0 194 4.47716 194 10V223.242C194 228.765 189.523 233.242 184 233.242H10C4.47716 233.242 0 228.765 0 223.242V31.5007Z" fill="#282828"/>
<path d="M26.5209 2.65054L25.8428 1.9156L26.5209 2.65054ZM3.21873 24.1512L3.89687 24.8861L3.21873 24.1512ZM3.21873 24.1512L3.89687 24.8861L27.1991 3.3855L26.5209 2.65054L25.8428 1.9156L2.54062 23.4163L3.21873 24.1512ZM33.3022 0V1H184V0V-1H33.3022V0ZM194 10H193V223.242H194H195V10H194ZM184 233.242V232.242H10V233.242V234.242H184V233.242ZM0 223.242H1V31.5007H0H-1V223.242H0ZM10 233.242V232.242C5.02943 232.242 1 228.213 1 223.242H0H-1C-1 229.317 3.92487 234.242 10 234.242V233.242ZM194 223.242H193C193 228.213 188.971 232.242 184 232.242V233.242V234.242C190.075 234.242 195 229.317 195 223.242H194ZM184 0V1C188.971 1 193 5.02943 193 10H194H195C195 3.92487 190.075 -1 184 -1V0ZM26.5209 2.65054L27.1991 3.3855C28.8614 1.85167 31.0403 1 33.3022 1V0V-1C30.5377 -1 27.8745 0.0409241 25.8428 1.9156L26.5209 2.65054ZM3.21873 24.1512L2.54062 23.4163C0.283676 25.4987 -1 28.4298 -1 31.5007H0H1C1 28.9881 2.05029 26.59 3.89687 24.8861L3.21873 24.1512Z" fill="url(#paint0_linear_516_4731)" mask="url(#path-1-inside-1_516_4731)"/>
<rect x="50" y="51" width="94" height="94" rx="12" fill="url(#paint1_linear_516_4731)"/>
<g clip-path="url(#clip0_516_4731)">
<path d="M106.667 82.1773V76.9574C106.667 76.6113 106.807 76.2794 107.058 76.0347C107.308 75.79 107.647 75.6525 108 75.6525C108.354 75.6525 108.693 75.79 108.943 76.0347C109.193 76.2794 109.334 76.6113 109.334 76.9574V82.1773C109.334 82.5234 109.193 82.8553 108.943 83.1C108.693 83.3448 108.354 83.4823 108 83.4823C107.647 83.4823 107.308 83.3448 107.058 83.1C106.807 82.8553 106.667 82.5234 106.667 82.1773ZM96.0003 80.2198V78.9149C96.0017 78.0501 96.3534 77.2211 96.9782 76.6095C97.603 75.998 98.45 75.6538 99.3337 75.6525H100.667C101.551 75.6538 102.398 75.998 103.022 76.6095C103.647 77.2211 103.999 78.0501 104 78.9149V80.2198C103.999 81.0847 103.647 81.9137 103.022 82.5252C102.398 83.1367 101.551 83.4809 100.667 83.4823H99.3337C98.45 83.4809 97.603 83.1367 96.9782 82.5252C96.3534 81.9137 96.0017 81.0847 96.0003 80.2198ZM98.667 80.2198C98.667 80.3929 98.7372 80.5589 98.8623 80.6812C98.9873 80.8036 99.1568 80.8723 99.3337 80.8723H100.667C100.844 80.8723 101.013 80.8036 101.138 80.6812C101.263 80.5589 101.334 80.3929 101.334 80.2198V78.9149C101.334 78.7418 101.263 78.5759 101.138 78.4535C101.013 78.3311 100.844 78.2624 100.667 78.2624H99.3337C99.1568 78.2624 98.9873 78.3311 98.8623 78.4535C98.7372 78.5759 98.667 78.7418 98.667 78.9149V80.2198ZM92.0003 83.4823C92.3539 83.4823 92.6931 83.3448 92.9431 83.1C93.1932 82.8553 93.3337 82.5234 93.3337 82.1773V76.9574C93.3337 76.6113 93.1932 76.2794 92.9431 76.0347C92.6931 75.79 92.3539 75.6525 92.0003 75.6525C91.6467 75.6525 91.3076 75.79 91.0575 76.0347C90.8075 76.2794 90.667 76.6113 90.667 76.9574V82.1773C90.667 82.5234 90.8075 82.8553 91.0575 83.1C91.3076 83.3448 91.6467 83.4823 92.0003 83.4823ZM80.0003 80.2198V78.9149C80.0017 78.0501 80.3534 77.2211 80.9782 76.6095C81.603 75.998 82.45 75.6538 83.3337 75.6525H84.667C85.5506 75.6538 86.3976 75.998 87.0225 76.6095C87.6473 77.2211 87.9989 78.0501 88.0003 78.9149V80.2198C87.9989 81.0847 87.6473 81.9137 87.0225 82.5252C86.3976 83.1367 85.5506 83.4809 84.667 83.4823H83.3337C82.45 83.4809 81.603 83.1367 80.9782 82.5252C80.3534 81.9137 80.0017 81.0847 80.0003 80.2198ZM82.667 80.2198C82.667 80.3929 82.7372 80.5589 82.8623 80.6812C82.9873 80.8036 83.1568 80.8723 83.3337 80.8723H84.667C84.8438 80.8723 85.0134 80.8036 85.1384 80.6812C85.2634 80.5589 85.3337 80.3929 85.3337 80.2198V78.9149C85.3337 78.7418 85.2634 78.5759 85.1384 78.4535C85.0134 78.3311 84.8438 78.2624 84.667 78.2624H83.3337C83.1568 78.2624 82.9873 78.3311 82.8623 78.4535C82.7372 78.5759 82.667 78.7418 82.667 78.9149V80.2198ZM83.3337 109.582H84.0003C84.3539 109.582 84.6931 109.444 84.9431 109.199C85.1932 108.955 85.3337 108.623 85.3337 108.277C85.3337 107.93 85.1932 107.599 84.9431 107.354C84.6931 107.109 84.3539 106.972 84.0003 106.972H83.3337C82.45 106.973 81.603 107.317 80.9782 107.929C80.3534 108.54 80.0017 109.369 80.0003 110.234V111.539C80.0017 112.404 80.3534 113.233 80.9782 113.844C81.603 114.456 82.45 114.8 83.3337 114.801H84.667C85.5506 114.8 86.3976 114.456 87.0225 113.844C87.6473 113.233 87.9989 112.404 88.0003 111.539V110.887C88.0003 110.54 87.8599 110.208 87.6098 109.964C87.3598 109.719 87.0206 109.582 86.667 109.582C86.3134 109.582 85.9742 109.719 85.7242 109.964C85.4741 110.208 85.3337 110.54 85.3337 110.887V111.539C85.3337 111.712 85.2634 111.878 85.1384 112C85.0134 112.123 84.8438 112.191 84.667 112.191H83.3337C83.1568 112.191 82.9873 112.123 82.8623 112C82.7372 111.878 82.667 111.712 82.667 111.539V110.234C82.667 110.061 82.7372 109.895 82.8623 109.773C82.9873 109.65 83.1568 109.582 83.3337 109.582ZM83.3337 93.922H84.0003C84.3539 93.922 84.6931 93.7845 84.9431 93.5398C85.1932 93.295 85.3337 92.9631 85.3337 92.617C85.3337 92.2709 85.1932 91.939 84.9431 91.6943C84.6931 91.4495 84.3539 91.312 84.0003 91.312H83.3337C83.1568 91.312 82.9873 91.2433 82.8623 91.1209C82.7372 90.9986 82.667 90.8326 82.667 90.6596V89.3546C82.667 89.1815 82.7372 89.0156 82.8623 88.8932C82.9873 88.7709 83.1568 88.7021 83.3337 88.7021H84.667C84.8438 88.7021 85.0134 88.7709 85.1384 88.8932C85.2634 89.0156 85.3337 89.1815 85.3337 89.3546V90.0071C85.3337 90.3532 85.4741 90.6851 85.7242 90.9298C85.9742 91.1746 86.3134 91.312 86.667 91.312C87.0206 91.312 87.3598 91.1746 87.6098 90.9298C87.8599 90.6851 88.0003 90.3532 88.0003 90.0071V89.3546C87.9989 88.4898 87.6473 87.6608 87.0225 87.0492C86.3976 86.4377 85.5506 86.0936 84.667 86.0922H83.3337C82.45 86.0936 81.603 86.4377 80.9782 87.0492C80.3534 87.6608 80.0017 88.4898 80.0003 89.3546V90.6596C80.0017 91.5244 80.3534 92.3534 80.9782 92.9649C81.603 93.5764 82.45 93.9206 83.3337 93.922ZM119.6 117.792C119.851 118.037 119.991 118.37 119.991 118.716C119.991 119.063 119.851 119.395 119.6 119.64C119.35 119.885 119.01 120.023 118.656 120.023C118.302 120.023 117.963 119.885 117.712 119.64L109.368 111.471C106.463 113.839 102.737 115.02 98.9655 114.768C95.1936 114.516 91.6662 112.851 89.117 110.118C86.5678 107.386 85.1932 103.796 85.2791 100.097C85.365 96.3977 86.9048 92.8732 89.5781 90.2568C92.2515 87.6403 95.8526 86.1333 99.6323 86.0492C103.412 85.9652 107.079 87.3106 109.871 89.8055C112.663 92.3004 114.365 95.7528 114.623 99.4445C114.88 103.136 113.673 106.783 111.254 109.626L119.6 117.792ZM112 100.447C112 98.1239 111.297 95.8532 109.978 93.9218C108.659 91.9904 106.785 90.485 104.593 89.5961C102.4 88.7072 99.987 88.4746 97.6592 88.9278C95.3315 89.381 93.1933 90.4995 91.515 92.142C89.8368 93.7846 88.6939 95.8773 88.2309 98.1555C87.7679 100.434 88.0055 102.795 88.9138 104.941C89.822 107.087 91.3601 108.922 93.3335 110.212C95.3069 111.503 97.627 112.191 100 112.191C103.182 112.188 106.232 110.95 108.482 108.748C110.731 106.546 111.997 103.561 112 100.447ZM118.667 96.5319C118.313 96.5319 117.974 96.6694 117.724 96.9141C117.474 97.1588 117.334 97.4908 117.334 97.8369V103.057C117.334 103.403 117.474 103.735 117.724 103.979C117.974 104.224 118.313 104.362 118.667 104.362C119.021 104.362 119.36 104.224 119.61 103.979C119.86 103.735 120 103.403 120 103.057V97.8369C120 97.4908 119.86 97.1588 119.61 96.9141C119.36 96.6694 119.021 96.5319 118.667 96.5319ZM116.667 86.0922H115.334C114.45 86.0936 113.603 86.4377 112.978 87.0492C112.353 87.6608 112.002 88.4898 112 89.3546V90.0071C112 90.3532 112.141 90.6851 112.391 90.9298C112.641 91.1746 112.98 91.312 113.334 91.312C113.687 91.312 114.026 91.1746 114.276 90.9298C114.527 90.6851 114.667 90.3532 114.667 90.0071V89.3546C114.667 89.1815 114.737 89.0156 114.862 88.8932C114.987 88.7709 115.157 88.7021 115.334 88.7021H116.667C116.844 88.7021 117.013 88.7709 117.138 88.8932C117.263 89.0156 117.334 89.1815 117.334 89.3546V90.6596C117.334 90.8326 117.263 90.9986 117.138 91.1209C117.013 91.2433 116.844 91.312 116.667 91.312H116C115.647 91.312 115.308 91.4495 115.058 91.6943C114.807 91.939 114.667 92.2709 114.667 92.617C114.667 92.9631 114.807 93.295 115.058 93.5398C115.308 93.7845 115.647 93.922 116 93.922H116.667C117.551 93.9206 118.398 93.5764 119.022 92.9649C119.647 92.3534 119.999 91.5244 120 90.6596V89.3546C119.999 88.4898 119.647 87.6608 119.022 87.0492C118.398 86.4377 117.551 86.0936 116.667 86.0922ZM120 78.9149V80.2198C119.999 81.0847 119.647 81.9137 119.022 82.5252C118.398 83.1367 117.551 83.4809 116.667 83.4823H115.334C114.45 83.4809 113.603 83.1367 112.978 82.5252C112.353 81.9137 112.002 81.0847 112 80.2198V78.9149C112.002 78.0501 112.353 77.2211 112.978 76.6095C113.603 75.998 114.45 75.6538 115.334 75.6525H116.667C117.551 75.6538 118.398 75.998 119.022 76.6095C119.647 77.2211 119.999 78.0501 120 78.9149ZM117.334 78.9149C117.334 78.7418 117.263 78.5759 117.138 78.4535C117.013 78.3311 116.844 78.2624 116.667 78.2624H115.334C115.157 78.2624 114.987 78.3311 114.862 78.4535C114.737 78.5759 114.667 78.7418 114.667 78.9149V80.2198C114.667 80.3929 114.737 80.5589 114.862 80.6812C114.987 80.8036 115.157 80.8723 115.334 80.8723H116.667C116.844 80.8723 117.013 80.8036 117.138 80.6812C117.263 80.5589 117.334 80.3929 117.334 80.2198V78.9149ZM116.667 106.972H116C115.647 106.972 115.308 107.109 115.058 107.354C114.807 107.599 114.667 107.93 114.667 108.277C114.667 108.623 114.807 108.955 115.058 109.199C115.308 109.444 115.647 109.582 116 109.582H116.667C116.844 109.582 117.013 109.65 117.138 109.773C117.263 109.895 117.334 110.061 117.334 110.234V110.887C117.334 111.233 117.474 111.565 117.724 111.809C117.974 112.054 118.313 112.191 118.667 112.191C119.021 112.191 119.36 112.054 119.61 111.809C119.86 111.565 120 111.233 120 110.887V110.234C119.999 109.369 119.647 108.54 119.022 107.929C118.398 107.317 117.551 106.973 116.667 106.972ZM76.0003 83.4823C76.3539 83.4823 76.6931 83.3448 76.9431 83.1C77.1932 82.8553 77.3337 82.5234 77.3337 82.1773V76.9574C77.3337 76.6113 77.1932 76.2794 76.9431 76.0347C76.6931 75.79 76.3539 75.6525 76.0003 75.6525C75.6467 75.6525 75.3076 75.79 75.0575 76.0347C74.8075 76.2794 74.667 76.6113 74.667 76.9574V82.1773C74.667 82.5234 74.8075 82.8553 75.0575 83.1C75.3076 83.3448 75.6467 83.4823 76.0003 83.4823ZM109.334 99.1418H106L104.4 97.0539C104.259 96.8702 104.071 96.7263 103.855 96.6367C103.638 96.5471 103.402 96.5149 103.169 96.5435C102.936 96.5721 102.715 96.6605 102.528 96.7996C102.341 96.9387 102.195 97.1237 102.104 97.3358L100.179 101.854L97.939 94.8381C97.8561 94.5789 97.6926 94.3515 97.4713 94.1875C97.2501 94.0236 96.9821 93.9313 96.7047 93.9236C96.4273 93.9158 96.1543 93.993 95.9239 94.1443C95.6934 94.2956 95.5169 94.5135 95.419 94.7676L93.7417 99.1418H90.667C90.3134 99.1418 89.9742 99.2793 89.7242 99.524C89.4741 99.7688 89.3337 100.101 89.3337 100.447C89.3337 100.793 89.4741 101.125 89.7242 101.37C89.9742 101.614 90.3134 101.752 90.667 101.752H94.667C94.9382 101.752 95.203 101.671 95.4259 101.52C95.6489 101.369 95.8195 101.155 95.915 100.906L96.5523 99.2436L98.7283 106.056C98.8104 106.311 98.9706 106.535 99.1871 106.698C99.4036 106.861 99.6661 106.955 99.9389 106.967C100.212 106.979 100.482 106.909 100.713 106.766C100.944 106.623 101.124 106.414 101.23 106.168L103.667 100.447L104.267 101.23C104.391 101.392 104.552 101.523 104.737 101.614C104.923 101.705 105.127 101.752 105.334 101.752H109.334C109.687 101.752 110.026 101.614 110.276 101.37C110.527 101.125 110.667 100.793 110.667 100.447C110.667 100.101 110.527 99.7688 110.276 99.524C110.026 99.2793 109.687 99.1418 109.334 99.1418ZM76.0003 114.801C76.3539 114.801 76.6931 114.664 76.9431 114.419C77.1932 114.174 77.3337 113.843 77.3337 113.496V108.277C77.3337 107.93 77.1932 107.599 76.9431 107.354C76.6931 107.109 76.3539 106.972 76.0003 106.972C75.6467 106.972 75.3076 107.109 75.0575 107.354C74.8075 107.599 74.667 107.93 74.667 108.277V113.496C74.667 113.843 74.8075 114.174 75.0575 114.419C75.3076 114.664 75.6467 114.801 76.0003 114.801ZM76.0003 93.922C76.3539 93.922 76.6931 93.7845 76.9431 93.5398C77.1932 93.295 77.3337 92.9631 77.3337 92.617V87.3971C77.3337 87.051 77.1932 86.7191 76.9431 86.4744C76.6931 86.2297 76.3539 86.0922 76.0003 86.0922C75.6467 86.0922 75.3076 86.2297 75.0575 86.4744C74.8075 86.7191 74.667 87.051 74.667 87.3971V92.617C74.667 92.9631 74.8075 93.295 75.0575 93.5398C75.3076 93.7845 75.6467 93.922 76.0003 93.922ZM74.667 101.099V99.7943C74.6684 98.9295 75.02 98.1005 75.6449 97.489C76.2697 96.8774 77.1167 96.5333 78.0003 96.5319H79.3337C80.2173 96.5333 81.0643 96.8774 81.6891 97.489C82.3139 98.1005 82.6656 98.9295 82.667 99.7943V101.099C82.6656 101.964 82.3139 102.793 81.6891 103.405C81.0643 104.016 80.2173 104.36 79.3337 104.362H78.0003C77.1167 104.36 76.2697 104.016 75.6449 103.405C75.02 102.793 74.6684 101.964 74.667 101.099ZM77.3337 101.099C77.3337 101.272 77.4039 101.438 77.5289 101.561C77.6539 101.683 77.8235 101.752 78.0003 101.752H79.3337C79.5105 101.752 79.68 101.683 79.8051 101.561C79.9301 101.438 80.0003 101.272 80.0003 101.099V99.7943C80.0003 99.6213 79.9301 99.4553 79.8051 99.3329C79.68 99.2106 79.5105 99.1418 79.3337 99.1418H78.0003C77.8235 99.1418 77.6539 99.2106 77.5289 99.3329C77.4039 99.4553 77.3337 99.6213 77.3337 99.7943V101.099Z" fill="white"/>
</g>
<path d="M27.7578 182V170.75H32.0469C34.651 170.75 35.9531 171.737 35.9531 173.711C35.9531 175.701 34.6432 176.695 32.0234 176.695H29.1641V182H27.7578ZM34.3594 182L31.375 176.305H32.9688L35.9531 182H34.3594ZM29.1641 175.539H32.0469C32.8385 175.539 33.4479 175.385 33.875 175.078C34.3021 174.766 34.5156 174.318 34.5156 173.734C34.5156 173.146 34.3021 172.695 33.875 172.383C33.4479 172.065 32.8385 171.906 32.0469 171.906H29.1641V175.539ZM41.1094 182.188C40.3073 182.188 39.612 182.008 39.0234 181.648C38.4401 181.289 37.9896 180.781 37.6719 180.125C37.3542 179.464 37.1953 178.685 37.1953 177.789C37.1953 176.888 37.3542 176.107 37.6719 175.445C37.9896 174.784 38.4375 174.273 39.0156 173.914C39.5938 173.555 40.2734 173.375 41.0547 173.375C41.5026 173.375 41.9505 173.448 42.3984 173.594C42.8516 173.734 43.263 173.982 43.6328 174.336C44.0078 174.685 44.3073 175.167 44.5312 175.781C44.7604 176.391 44.875 177.161 44.875 178.094H38.0391V177.031H43.7344L43.3594 177.523C43.3333 176.784 43.2135 176.19 43 175.742C42.7865 175.294 42.5078 174.971 42.1641 174.773C41.8255 174.57 41.4479 174.469 41.0312 174.469C40.5365 174.469 40.1094 174.599 39.75 174.859C39.3906 175.115 39.1146 175.49 38.9219 175.984C38.7292 176.479 38.6328 177.083 38.6328 177.797C38.6328 178.849 38.8464 179.661 39.2734 180.234C39.7057 180.807 40.3177 181.094 41.1094 181.094C41.6771 181.094 42.1536 180.951 42.5391 180.664C42.9297 180.378 43.2161 179.964 43.3984 179.422L44.6875 179.859C44.4844 180.349 44.2135 180.768 43.875 181.117C43.5365 181.461 43.1328 181.727 42.6641 181.914C42.2005 182.096 41.6823 182.188 41.1094 182.188ZM46.8594 182V173.562H48.0938V175.008C48.2917 174.57 48.6198 174.19 49.0781 173.867C49.5365 173.539 50.0807 173.375 50.7109 173.375C51.2682 173.375 51.7526 173.529 52.1641 173.836C52.5807 174.138 52.8906 174.568 53.0938 175.125C53.3594 174.609 53.7214 174.19 54.1797 173.867C54.6432 173.539 55.1823 173.375 55.7969 173.375C56.6042 173.375 57.2422 173.669 57.7109 174.258C58.1849 174.841 58.4219 175.651 58.4219 176.688V182H57.1094V176.789C57.1094 176.31 57.0599 175.898 56.9609 175.555C56.862 175.206 56.6979 174.938 56.4688 174.75C56.2448 174.562 55.9375 174.469 55.5469 174.469C55.1198 174.469 54.7344 174.591 54.3906 174.836C54.0521 175.076 53.7839 175.427 53.5859 175.891C53.3932 176.354 53.2969 176.919 53.2969 177.586V182H51.9844V176.789C51.9844 176.31 51.9349 175.898 51.8359 175.555C51.737 175.206 51.5755 174.938 51.3516 174.75C51.1276 174.562 50.8229 174.469 50.4375 174.469C50.0104 174.469 49.625 174.589 49.2812 174.828C48.9375 175.068 48.6667 175.419 48.4688 175.883C48.2708 176.346 48.1719 176.914 48.1719 177.586V182H46.8594ZM60.8281 182V173.562H62.0625V175.469L62.0078 175.125C62.2318 174.641 62.5859 174.229 63.0703 173.891C63.5547 173.547 64.1432 173.375 64.8359 173.375C65.4349 173.375 65.9505 173.508 66.3828 173.773C66.8151 174.039 67.1484 174.419 67.3828 174.914C67.6172 175.404 67.7344 175.995 67.7344 176.688V182H66.4219V176.789C66.4219 176.096 66.2786 175.536 65.9922 175.109C65.7109 174.682 65.2448 174.469 64.5938 174.469C63.8906 174.469 63.3047 174.737 62.8359 175.273C62.3724 175.805 62.1406 176.576 62.1406 177.586V182H60.8281ZM72.3359 182.188C71.7734 182.188 71.2839 182.081 70.8672 181.867C70.4557 181.648 70.138 181.352 69.9141 180.977C69.6901 180.602 69.5781 180.177 69.5781 179.703C69.5781 179.198 69.7266 178.732 70.0234 178.305C70.3203 177.878 70.7786 177.536 71.3984 177.281C72.0234 177.021 72.8229 176.891 73.7969 176.891H75.2031L75.0625 177.031V176.57C75.0625 175.893 74.9271 175.375 74.6562 175.016C74.3854 174.651 73.9323 174.469 73.2969 174.469C72.6979 174.469 72.237 174.625 71.9141 174.938C71.5911 175.245 71.4193 175.659 71.3984 176.18L69.9219 175.844C69.9688 175.391 70.1406 174.979 70.4375 174.609C70.7396 174.234 71.1406 173.935 71.6406 173.711C72.1458 173.487 72.7292 173.375 73.3906 173.375C74.0729 173.375 74.6276 173.505 75.0547 173.766C75.487 174.021 75.8047 174.391 76.0078 174.875C76.2109 175.359 76.3125 175.943 76.3125 176.625V180.477C76.3125 180.648 76.3359 180.763 76.3828 180.82C76.4349 180.878 76.5417 180.906 76.7031 180.906H77.1797V182H76.3438C75.9896 182 75.6927 181.891 75.4531 181.672C75.2135 181.448 75.0938 181.167 75.0938 180.828V180.234H75.2891C75.2057 180.453 75.0859 180.677 74.9297 180.906C74.7734 181.13 74.5755 181.341 74.3359 181.539C74.0964 181.732 73.8099 181.888 73.4766 182.008C73.1484 182.128 72.7682 182.188 72.3359 182.188ZM72.6328 181.094C73.0651 181.094 73.4661 180.987 73.8359 180.773C74.2057 180.56 74.5026 180.227 74.7266 179.773C74.9557 179.315 75.0703 178.721 75.0703 177.992V177.922H73.75C73.0573 177.922 72.5104 178.013 72.1094 178.195C71.7135 178.378 71.4323 178.604 71.2656 178.875C71.099 179.141 71.0156 179.406 71.0156 179.672C71.0156 179.938 71.0755 180.177 71.1953 180.391C71.3151 180.604 71.4948 180.776 71.7344 180.906C71.974 181.031 72.2734 181.094 72.6328 181.094ZM79 182V173.562H80.2344V175.469L80.1797 175.125C80.4036 174.641 80.7578 174.229 81.2422 173.891C81.7266 173.547 82.3151 173.375 83.0078 173.375C83.6068 173.375 84.1224 173.508 84.5547 173.773C84.987 174.039 85.3203 174.419 85.5547 174.914C85.7891 175.404 85.9062 175.995 85.9062 176.688V182H84.5938V176.789C84.5938 176.096 84.4505 175.536 84.1641 175.109C83.8828 174.682 83.4167 174.469 82.7656 174.469C82.0625 174.469 81.4766 174.737 81.0078 175.273C80.5443 175.805 80.3125 176.576 80.3125 177.586V182H79ZM89.8828 182C89.5495 182 89.2578 181.891 89.0078 181.672C88.7578 181.448 88.6328 181.167 88.6328 180.828V174.656H87.2734V173.562H88.6328V171.797L89.9453 171.516V173.562H91.6172V174.656H89.9453V180.477C89.9453 180.648 89.9688 180.763 90.0156 180.82C90.0677 180.878 90.1745 180.906 90.3359 180.906H91.625V182H89.8828ZM96.9375 182V180.906H98.4297V171.844H96.9375V170.75H101.328V171.844H99.8359V180.906H101.328V182H96.9375ZM103.234 182V173.562H104.469V175.469L104.414 175.125C104.638 174.641 104.992 174.229 105.477 173.891C105.961 173.547 106.549 173.375 107.242 173.375C107.841 173.375 108.357 173.508 108.789 173.773C109.221 174.039 109.555 174.419 109.789 174.914C110.023 175.404 110.141 175.995 110.141 176.688V182H108.828V176.789C108.828 176.096 108.685 175.536 108.398 175.109C108.117 174.682 107.651 174.469 107 174.469C106.297 174.469 105.711 174.737 105.242 175.273C104.779 175.805 104.547 176.576 104.547 177.586V182H103.234ZM114.5 182L111.328 173.562H112.781L115.461 181.258H115.211L117.875 173.562H119.328L116.172 182H114.5ZM124.172 182.188C123.37 182.188 122.674 182.008 122.086 181.648C121.503 181.289 121.052 180.781 120.734 180.125C120.417 179.464 120.258 178.685 120.258 177.789C120.258 176.888 120.417 176.107 120.734 175.445C121.052 174.784 121.5 174.273 122.078 173.914C122.656 173.555 123.336 173.375 124.117 173.375C124.565 173.375 125.013 173.448 125.461 173.594C125.914 173.734 126.326 173.982 126.695 174.336C127.07 174.685 127.37 175.167 127.594 175.781C127.823 176.391 127.938 177.161 127.938 178.094H121.102V177.031H126.797L126.422 177.523C126.396 176.784 126.276 176.19 126.062 175.742C125.849 175.294 125.57 174.971 125.227 174.773C124.888 174.57 124.51 174.469 124.094 174.469C123.599 174.469 123.172 174.599 122.812 174.859C122.453 175.115 122.177 175.49 121.984 175.984C121.792 176.479 121.695 177.083 121.695 177.797C121.695 178.849 121.909 179.661 122.336 180.234C122.768 180.807 123.38 181.094 124.172 181.094C124.74 181.094 125.216 180.951 125.602 180.664C125.992 180.378 126.279 179.964 126.461 179.422L127.75 179.859C127.547 180.349 127.276 180.768 126.938 181.117C126.599 181.461 126.195 181.727 125.727 181.914C125.263 182.096 124.745 182.188 124.172 182.188ZM129.922 182V173.562H131.156V175.469L131.102 175.125C131.326 174.641 131.68 174.229 132.164 173.891C132.648 173.547 133.237 173.375 133.93 173.375C134.529 173.375 135.044 173.508 135.477 173.773C135.909 174.039 136.242 174.419 136.477 174.914C136.711 175.404 136.828 175.995 136.828 176.688V182H135.516V176.789C135.516 176.096 135.372 175.536 135.086 175.109C134.805 174.682 134.339 174.469 133.688 174.469C132.984 174.469 132.398 174.737 131.93 175.273C131.466 175.805 131.234 176.576 131.234 177.586V182H129.922ZM140.805 182C140.471 182 140.18 181.891 139.93 181.672C139.68 181.448 139.555 181.167 139.555 180.828V174.656H138.195V173.562H139.555V171.797L140.867 171.516V173.562H142.539V174.656H140.867V180.477C140.867 180.648 140.891 180.763 140.938 180.82C140.99 180.878 141.096 180.906 141.258 180.906H142.547V182H140.805ZM147.594 182.188C146.802 182.188 146.104 182.003 145.5 181.633C144.896 181.258 144.424 180.74 144.086 180.078C143.747 179.417 143.578 178.651 143.578 177.781C143.578 176.911 143.747 176.146 144.086 175.484C144.424 174.823 144.896 174.307 145.5 173.938C146.104 173.562 146.802 173.375 147.594 173.375C148.385 173.375 149.083 173.562 149.688 173.938C150.292 174.307 150.763 174.823 151.102 175.484C151.44 176.146 151.609 176.911 151.609 177.781C151.609 178.651 151.44 179.417 151.102 180.078C150.763 180.74 150.292 181.258 149.688 181.633C149.083 182.003 148.385 182.188 147.594 182.188ZM147.594 181.094C148.391 181.094 149.018 180.797 149.477 180.203C149.94 179.609 150.172 178.802 150.172 177.781C150.172 176.755 149.94 175.948 149.477 175.359C149.018 174.766 148.391 174.469 147.594 174.469C146.797 174.469 146.167 174.766 145.703 175.359C145.245 175.948 145.016 176.755 145.016 177.781C145.016 178.802 145.245 179.609 145.703 180.203C146.167 180.797 146.797 181.094 147.594 181.094ZM153.562 182V173.562H154.797V175.352L154.75 175.148C155 174.565 155.375 174.125 155.875 173.828C156.38 173.526 156.891 173.375 157.406 173.375C157.557 173.375 157.703 173.388 157.844 173.414C157.99 173.44 158.125 173.484 158.25 173.547L158.078 174.781C157.792 174.693 157.508 174.648 157.227 174.648C157.049 174.648 156.828 174.685 156.562 174.758C156.302 174.826 156.042 174.966 155.781 175.18C155.526 175.388 155.31 175.701 155.133 176.117C154.961 176.534 154.875 177.089 154.875 177.781V182H153.562ZM160.406 185.047V183.953H161.688C161.781 183.953 161.854 183.922 161.906 183.859C161.958 183.802 162.008 183.708 162.055 183.578L162.664 181.836L162.531 182.438L159.141 173.562H160.609L163.297 181.336L163.008 181.266L165.688 173.562H167.141L163.117 184.102C163.008 184.388 162.823 184.617 162.562 184.789C162.302 184.961 162.031 185.047 161.75 185.047H160.406Z" fill="white"/>
<defs>
<linearGradient id="paint0_linear_516_4731" x1="194" y1="233" x2="-4.03064e-06" y2="3.76934e-06" gradientUnits="userSpaceOnUse">
<stop stop-color="#00E676"/>
<stop offset="0.855769" stop-color="#9B5DC8"/>
</linearGradient>
<linearGradient id="paint1_linear_516_4731" x1="52.0195" y1="141.867" x2="160.695" y2="102.044" gradientUnits="userSpaceOnUse">
<stop stop-color="#00E676"/>
<stop offset="0.79" stop-color="#6A0DAD"/>
</linearGradient>
<clipPath id="clip0_516_4731">
<rect width="46" height="46" fill="white" transform="translate(74 75)"/>
</clipPath>
</defs>
</svg>
