<svg width="94" height="94" viewBox="0 0 94 94" fill="none" xmlns="http://www.w3.org/2000/svg">
<rect width="94" height="94" rx="12" fill="#282828"/>
<g clip-path="url(#clip0_646_3470)">
<path d="M24.667 47.3335C24.6773 44.1866 25.3428 41.0764 26.621 38.2008C27.8993 35.3252 29.7623 32.7473 32.0914 30.6312C34.4206 28.5151 37.1649 26.9072 40.1495 25.9098C43.1341 24.9124 46.2938 24.5474 49.4272 24.8381C52.5606 25.1288 55.5992 26.0687 58.3495 27.5981C61.0997 29.1275 63.5014 31.2128 65.4015 33.7212C67.3017 36.2296 68.6587 39.1062 69.3862 42.1679C70.1137 45.2295 70.1957 48.4091 69.627 51.5042C69.5651 51.8525 69.3674 52.162 69.0773 52.3645C68.7873 52.567 68.4286 52.6461 68.0803 52.5842C67.732 52.5223 67.4225 52.3246 67.22 52.0345C67.0175 51.7445 66.9384 51.3858 67.0003 51.0375C67.7888 46.8385 67.212 42.4974 65.3543 38.6501C63.4966 34.8027 60.4557 31.6514 56.6771 29.6576C52.8984 27.6639 48.5806 26.9326 44.3562 27.5708C40.1318 28.209 36.2228 30.1832 33.2017 33.2043C30.1807 36.2253 28.2065 40.1343 27.5683 44.3587C26.9301 48.5832 27.6614 52.9009 29.6551 56.6796C31.6489 60.4582 34.8002 63.4991 38.6476 65.3568C42.4949 67.2145 46.836 67.7913 51.035 67.0028C51.3784 66.9512 51.7283 67.0355 52.0105 67.2379C52.2926 67.4403 52.4847 67.7448 52.5458 68.0866C52.6069 68.4284 52.5323 68.7806 52.3378 69.0682C52.1433 69.3558 51.8443 69.5563 51.5043 69.6268C50.1447 69.8725 48.766 69.9975 47.3843 70.0002C44.4034 70.0068 41.4505 69.4255 38.6946 68.2893C35.9387 67.1532 33.434 65.4847 31.3238 63.3792C29.2136 61.2737 27.5395 58.7727 26.3972 56.0194C25.2549 53.266 24.667 50.3144 24.667 47.3335ZM47.3337 32.6668C51.2222 32.6711 54.9503 34.2177 57.6999 36.9673C60.4495 39.7169 61.9961 43.445 62.0003 47.3335C62.0003 47.6871 62.1408 48.0263 62.3909 48.2763C62.6409 48.5264 62.98 48.6668 63.3337 48.6668C63.6873 48.6668 64.0264 48.5264 64.2765 48.2763C64.5265 48.0263 64.667 47.6871 64.667 47.3335C64.6613 42.7382 62.8333 38.3326 59.5839 35.0832C56.3345 31.8338 51.929 30.0058 47.3337 30.0002C46.98 30.0002 46.6409 30.1407 46.3909 30.3907C46.1408 30.6407 46.0003 30.9799 46.0003 31.3335C46.0003 31.6871 46.1408 32.0263 46.3909 32.2763C46.6409 32.5264 46.98 32.6668 47.3337 32.6668ZM47.3337 62.0002C43.4451 61.9959 39.7171 60.4493 36.9674 57.6997C34.2178 54.9501 32.6712 51.222 32.667 47.3335C32.667 46.9799 32.5265 46.6407 32.2765 46.3907C32.0264 46.1406 31.6873 46.0002 31.3337 46.0002C30.98 46.0002 30.6409 46.1406 30.3909 46.3907C30.1408 46.6407 30.0003 46.9799 30.0003 47.3335C30.006 51.9289 31.834 56.3344 35.0834 59.5838C38.3328 62.8332 42.7383 64.6612 47.3337 64.6668C47.6873 64.6668 48.0264 64.5264 48.2765 64.2763C48.5265 64.0263 48.667 63.6871 48.667 63.3335C48.667 62.9799 48.5265 62.6407 48.2765 62.3907C48.0264 62.1406 47.6873 62.0002 47.3337 62.0002ZM48.667 55.3335C48.667 55.6871 48.5265 56.0263 48.2765 56.2763C48.0264 56.5264 47.6873 56.6668 47.3337 56.6668C46.98 56.6668 46.6409 56.5264 46.3909 56.2763C46.1408 56.0263 46.0003 55.6871 46.0003 55.3335V54.0002H43.3337C42.98 54.0002 42.6409 53.8597 42.3909 53.6096C42.1408 53.3596 42.0003 53.0205 42.0003 52.6668C42.0003 52.3132 42.1408 51.9741 42.3909 51.724C42.6409 51.474 42.98 51.3335 43.3337 51.3335H49.3337C49.5105 51.3335 49.68 51.2633 49.8051 51.1382C49.9301 51.0132 50.0003 50.8437 50.0003 50.6668V49.3335C50.0003 49.1567 49.9301 48.9871 49.8051 48.8621C49.68 48.7371 49.5105 48.6668 49.3337 48.6668H45.3337C44.45 48.6654 43.603 48.3138 42.9782 47.689C42.3534 47.0642 42.0017 46.2171 42.0003 45.3335V44.0002C42.0017 43.1166 42.3534 42.2695 42.9782 41.6447C43.603 41.0199 44.45 40.6683 45.3337 40.6668H46.0003V39.3335C46.0003 38.9799 46.1408 38.6407 46.3909 38.3907C46.6409 38.1406 46.98 38.0002 47.3337 38.0002C47.6873 38.0002 48.0264 38.1406 48.2765 38.3907C48.5265 38.6407 48.667 38.9799 48.667 39.3335V40.6668H51.3337C51.6873 40.6668 52.0264 40.8073 52.2765 41.0574C52.5265 41.3074 52.667 41.6466 52.667 42.0002C52.667 42.3538 52.5265 42.6929 52.2765 42.943C52.0264 43.193 51.6873 43.3335 51.3337 43.3335H45.3337C45.1568 43.3335 44.9873 43.4037 44.8623 43.5288C44.7372 43.6538 44.667 43.8234 44.667 44.0002V45.3335C44.667 45.5103 44.7372 45.6799 44.8623 45.8049C44.9873 45.9299 45.1568 46.0002 45.3337 46.0002H49.3337C50.2173 46.0016 51.0643 46.3532 51.6891 46.978C52.3139 47.6029 52.6656 48.4499 52.667 49.3335V49.7335C53.1137 49.6758 53.5675 49.7102 54.0003 49.8348L64.5497 53.0802C65.0986 53.2494 65.5945 53.5577 65.9893 53.975C66.384 54.3924 66.6642 54.9047 66.8027 55.4622C66.9411 56.0198 66.9331 56.6036 66.7794 57.1572C66.6258 57.7107 66.3317 58.2151 65.9257 58.6215L65.219 59.3335L68.195 62.3095C68.8197 62.935 69.1705 63.7828 69.1705 64.6668C69.1705 65.5508 68.8197 66.3987 68.195 67.0242L67.0243 68.1948C66.3985 68.8188 65.5508 69.1693 64.667 69.1693C63.7832 69.1693 62.9355 68.8188 62.3097 68.1948L59.3337 65.2188L58.6243 65.9282C58.2181 66.3349 57.7135 66.6296 57.1596 66.7835C56.6057 66.9374 56.0215 66.9454 55.4636 66.8066C54.9057 66.6678 54.3933 66.387 53.9761 65.9915C53.559 65.596 53.2513 65.0992 53.083 64.5495L49.835 54.0002C49.835 53.9655 49.835 53.9308 49.819 53.8962C49.6604 53.9444 49.4981 53.9792 49.3337 54.0002H48.667V55.3335ZM52.387 53.2215L55.6323 63.7655C55.6667 63.8748 55.7288 63.9734 55.8125 64.0516C55.8962 64.1298 55.9988 64.1851 56.1102 64.2119C56.2216 64.2388 56.3381 64.2363 56.4483 64.2048C56.5585 64.1733 56.6586 64.1138 56.739 64.0322L58.3897 62.3788C58.5135 62.2547 58.6607 62.1562 58.8226 62.0889C58.9846 62.0217 59.1583 61.9871 59.3337 61.9871C59.509 61.9871 59.6827 62.0217 59.8447 62.0889C60.0067 62.1562 60.1538 62.2547 60.2777 62.3788L64.195 66.2988C64.2569 66.3609 64.3305 66.4102 64.4115 66.4438C64.4925 66.4774 64.5793 66.4947 64.667 66.4947C64.7547 66.4947 64.8415 66.4774 64.9225 66.4438C65.0035 66.4102 65.0771 66.3609 65.139 66.2988L66.3097 65.1282C66.4338 65.0024 66.5033 64.8329 66.5033 64.6562C66.5033 64.4795 66.4338 64.3099 66.3097 64.1842L62.3897 60.2668C62.2655 60.143 62.167 59.9958 62.0998 59.8339C62.0325 59.6719 61.9979 59.4982 61.9979 59.3228C61.9979 59.1475 62.0325 58.9738 62.0998 58.8118C62.167 58.6498 62.2655 58.5027 62.3897 58.3788L64.043 56.7282C64.1238 56.6472 64.1826 56.5468 64.2136 56.4366C64.2446 56.3264 64.2468 56.2102 64.22 56.0989C64.1933 55.9876 64.1385 55.8851 64.0608 55.801C63.9831 55.717 63.8852 55.6542 63.7763 55.6188L53.219 52.4002C53.1052 52.3681 52.985 52.367 52.8706 52.3969C52.7563 52.4269 52.652 52.4868 52.5685 52.5705C52.4851 52.6542 52.4255 52.7587 52.3959 52.8731C52.3664 52.9876 52.3679 53.1078 52.4003 53.2215H52.387Z" fill="url(#paint0_linear_646_3470)"/>
</g>
<defs>
<linearGradient id="paint0_linear_646_3470" x1="25.6409" y1="68.4916" x2="78.0314" y2="49.2625" gradientUnits="userSpaceOnUse">
<stop stop-color="#00E676"/>
<stop offset="0.79" stop-color="#6A0DAD"/>
</linearGradient>
<clipPath id="clip0_646_3470">
<rect width="46" height="46" fill="white" transform="translate(24 24)"/>
</clipPath>
</defs>
</svg>
