<svg width="46" height="46" viewBox="0 0 46 46" fill="none" xmlns="http://www.w3.org/2000/svg">
<g clip-path="url(#clip0_646_262)">
<path d="M20.666 19.3332C20.3124 19.3332 19.9733 19.1927 19.7232 18.9426C19.4732 18.6926 19.3327 18.3535 19.3327 17.9998V16.6665C19.3327 16.3129 19.4732 15.9737 19.7232 15.7237C19.9733 15.4736 20.3124 15.3332 20.666 15.3332C21.0196 15.3332 21.3588 15.4736 21.6088 15.7237C21.8589 15.9737 21.9993 16.3129 21.9993 16.6665V17.9998C21.9993 18.3535 21.8589 18.6926 21.6088 18.9426C21.3588 19.1927 21.0196 19.3332 20.666 19.3332ZM29.1647 21.6265C28.2465 22.2994 27.1377 22.6622 25.9993 22.6622C24.861 22.6622 23.7522 22.2994 22.834 21.6265C22.5582 21.4051 22.2057 21.3024 21.8542 21.3409C21.5026 21.3794 21.1807 21.556 20.9593 21.8318C20.738 22.1077 20.6353 22.4601 20.6738 22.8117C20.7123 23.1633 20.8889 23.4851 21.1647 23.7065C22.5527 24.7683 24.2517 25.3436 25.9993 25.3436C27.747 25.3436 29.446 24.7683 30.834 23.7065C30.9706 23.5969 31.0842 23.4615 31.1685 23.3079C31.2527 23.1544 31.3059 22.9858 31.3249 22.8117C31.344 22.6376 31.3286 22.4615 31.2796 22.2934C31.2306 22.1252 31.149 21.9684 31.0394 21.8318C30.9297 21.6953 30.7943 21.5816 30.6408 21.4974C30.4872 21.4131 30.3186 21.36 30.1445 21.3409C29.9705 21.3218 29.7943 21.3373 29.6262 21.3863C29.4581 21.4353 29.3013 21.5169 29.1647 21.6265ZM31.3327 15.3332C30.9791 15.3332 30.6399 15.4736 30.3899 15.7237C30.1398 15.9737 29.9993 16.3129 29.9993 16.6665V17.9998C29.9993 18.3535 30.1398 18.6926 30.3899 18.9426C30.6399 19.1927 30.9791 19.3332 31.3327 19.3332C31.6863 19.3332 32.0254 19.1927 32.2755 18.9426C32.5255 18.6926 32.666 18.3535 32.666 17.9998V16.6665C32.666 16.3129 32.5255 15.9737 32.2755 15.7237C32.0254 15.4736 31.6863 15.3332 31.3327 15.3332ZM45.9994 41.9998V44.6665C45.9994 45.0201 45.8589 45.3593 45.6088 45.6093C45.3588 45.8594 45.0196 45.9998 44.666 45.9998C44.3124 45.9998 43.9733 45.8594 43.7232 45.6093C43.4732 45.3593 43.3327 45.0201 43.3327 44.6665V41.9998C43.3327 40.939 42.9113 39.9216 42.1611 39.1714C41.411 38.4213 40.3936 37.9998 39.3327 37.9998H37.9994V42.6665C37.9979 43.5501 37.6463 44.3972 37.0215 45.022C36.3967 45.6468 35.5496 45.9984 34.666 45.9998H17.3327C16.4491 45.9984 15.602 45.6468 14.9772 45.022C14.3524 44.3972 14.0008 43.5501 13.9993 42.6665V37.9998H9.99935C8.23124 37.9998 6.53555 37.2975 5.2853 36.0472C4.03506 34.797 3.33268 33.1013 3.33268 31.3332V24.4212C2.55547 24.1464 1.88214 23.6382 1.4048 22.9661C0.927461 22.294 0.669433 21.4909 0.666016 20.6665V17.9998C0.666016 17.6462 0.806492 17.3071 1.05654 17.057C1.30659 16.807 1.64573 16.6665 1.99935 16.6665C2.35297 16.6665 2.69211 16.807 2.94216 17.057C3.19221 17.3071 3.33268 17.6462 3.33268 17.9998V20.6665C3.33268 21.0201 3.47316 21.3593 3.72321 21.6093C3.97326 21.8594 4.31239 21.9998 4.66602 21.9998C5.01964 21.9998 5.35878 21.8594 5.60882 21.6093C5.85887 21.3593 5.99935 21.0201 5.99935 20.6665V17.9998C5.99935 17.6462 6.13983 17.3071 6.38987 17.057C6.63992 16.807 6.97906 16.6665 7.33268 16.6665C7.6863 16.6665 8.02544 16.807 8.27549 17.057C8.52554 17.3071 8.66602 17.6462 8.66602 17.9998V20.6665C8.6626 21.4909 8.40457 22.294 7.92723 22.9661C7.44989 23.6382 6.77656 24.1464 5.99935 24.4212V31.3332C5.99935 32.394 6.42078 33.4114 7.17092 34.1616C7.92107 34.9117 8.93848 35.3332 9.99935 35.3332H14.7407C15.2051 34.5251 15.8738 33.8533 16.6798 33.3852C17.4858 32.9172 18.4007 32.6693 19.3327 32.6665H24.666V29.9998H17.9993C16.2312 29.9998 14.5355 29.2975 13.2853 28.0472C12.0351 26.797 11.3327 25.1013 11.3327 23.3332V15.3332C11.3327 13.5651 12.0351 11.8694 13.2853 10.6191C14.5355 9.36888 16.2312 8.6665 17.9993 8.6665H24.666V1.99984C24.666 1.64622 24.8065 1.30708 25.0565 1.05703C25.3066 0.80698 25.6457 0.666504 25.9993 0.666504C26.353 0.666504 26.6921 0.80698 26.9422 1.05703C27.1922 1.30708 27.3327 1.64622 27.3327 1.99984V8.6665H33.9994C35.7675 8.6665 37.4632 9.36888 38.7134 10.6191C39.9636 11.8694 40.666 13.5651 40.666 15.3332V23.3332C40.666 25.1013 39.9636 26.797 38.7134 28.0472C37.4632 29.2975 35.7675 29.9998 33.9994 29.9998H27.3327V32.6665H32.666C33.598 32.6693 34.5129 32.9172 35.3189 33.3852C36.1249 33.8533 36.7936 34.5251 37.258 35.3332H39.3327C41.1008 35.3332 42.7965 36.0355 44.0467 37.2858C45.297 38.536 45.9994 40.2317 45.9994 41.9998ZM33.9994 27.3332C35.0602 27.3332 36.0776 26.9117 36.8278 26.1616C37.5779 25.4115 37.9994 24.394 37.9994 23.3332V15.3332C37.9994 14.2723 37.5779 13.2549 36.8278 12.5047C36.0776 11.7546 35.0602 11.3332 33.9994 11.3332H17.9993C16.9385 11.3332 15.9211 11.7546 15.1709 12.5047C14.4208 13.2549 13.9993 14.2723 13.9993 15.3332V23.3332C13.9993 24.394 14.4208 25.4115 15.1709 26.1616C15.9211 26.9117 16.9385 27.3332 17.9993 27.3332H33.9994ZM24.666 40.6665H23.3327C22.9791 40.6665 22.6399 40.807 22.3899 41.057C22.1398 41.3071 21.9993 41.6462 21.9993 41.9998V43.3332H24.666V40.6665ZM29.9993 41.9998C29.9993 41.6462 29.8589 41.3071 29.6088 41.057C29.3588 40.807 29.0196 40.6665 28.666 40.6665H27.3327V43.3332H29.9993V41.9998ZM35.3327 37.9998C35.3327 37.2926 35.0517 36.6143 34.5516 36.1142C34.0515 35.6141 33.3733 35.3332 32.666 35.3332H19.3327C18.6254 35.3332 17.9472 35.6141 17.4471 36.1142C16.947 36.6143 16.666 37.2926 16.666 37.9998V42.6665C16.666 42.8433 16.7363 43.0129 16.8613 43.1379C16.9863 43.2629 17.1559 43.3332 17.3327 43.3332H19.3327V41.9998C19.3327 40.939 19.7541 39.9216 20.5043 39.1714C21.2544 38.4213 22.2718 37.9998 23.3327 37.9998H28.666C29.7269 37.9998 30.7443 38.4213 31.4944 39.1714C32.2446 39.9216 32.666 40.939 32.666 41.9998V43.3332H34.666C34.8428 43.3332 35.0124 43.2629 35.1374 43.1379C35.2624 43.0129 35.3327 42.8433 35.3327 42.6665V37.9998Z" fill="url(#paint0_linear_646_262)"/>
</g>
<defs>
<linearGradient id="paint0_linear_646_262" x1="1.63997" y1="44.4887" x2="54.0509" y2="25.2836" gradientUnits="userSpaceOnUse">
<stop stop-color="#00E676"/>
<stop offset="0.79" stop-color="#6A0DAD"/>
</linearGradient>
<clipPath id="clip0_646_262">
<rect width="46" height="46" fill="white"/>
</clipPath>
</defs>
</svg>
