<svg width="46" height="46" viewBox="0 0 46 46" fill="none" xmlns="http://www.w3.org/2000/svg">
<g clip-path="url(#clip0_646_3278)">
<path d="M0.666016 12.6665V7.33317C0.666016 5.56506 1.36839 3.86937 2.61864 2.61913C3.86888 1.36888 5.56457 0.666504 7.33268 0.666504H12.666C13.0196 0.666504 13.3588 0.80698 13.6088 1.05703C13.8589 1.30708 13.9993 1.64622 13.9993 1.99984C13.9993 2.35346 13.8589 2.6926 13.6088 2.94265C13.3588 3.19269 13.0196 3.33317 12.666 3.33317H7.33268C6.27182 3.33317 5.2544 3.7546 4.50425 4.50474C3.75411 5.25489 3.33268 6.27231 3.33268 7.33317V12.6665C3.33268 13.0201 3.19221 13.3593 2.94216 13.6093C2.69211 13.8594 2.35297 13.9998 1.99935 13.9998C1.64573 13.9998 1.30659 13.8594 1.05654 13.6093C0.806492 13.3593 0.666016 13.0201 0.666016 12.6665ZM7.33268 45.9998H12.666C13.0196 45.9998 13.3588 45.8594 13.6088 45.6093C13.8589 45.3593 13.9993 45.0201 13.9993 44.6665C13.9993 44.3129 13.8589 43.9737 13.6088 43.7237C13.3588 43.4736 13.0196 43.3332 12.666 43.3332H7.33268C6.27182 43.3332 5.2544 42.9117 4.50425 42.1616C3.75411 41.4115 3.33268 40.394 3.33268 39.3332V33.9998C3.33268 33.6462 3.19221 33.3071 2.94216 33.057C2.69211 32.807 2.35297 32.6665 1.99935 32.6665C1.64573 32.6665 1.30659 32.807 1.05654 33.057C0.806492 33.3071 0.666016 33.6462 0.666016 33.9998V39.3332C0.666016 41.1013 1.36839 42.797 2.61864 44.0472C3.86888 45.2975 5.56457 45.9998 7.33268 45.9998ZM11.3327 23.3332C11.3327 20.9598 12.0365 18.6397 13.355 16.6663C14.6736 14.6929 16.5478 13.1549 18.7405 12.2466C20.9332 11.3384 23.346 11.1007 25.6738 11.5637C28.0015 12.0268 30.1397 13.1697 31.818 14.8479C33.4962 16.5261 34.6391 18.6643 35.1021 20.9921C35.5651 23.3199 35.3275 25.7327 34.4192 27.9254C33.511 30.1181 31.9729 31.9922 29.9995 33.3108C28.0261 34.6294 25.7061 35.3332 23.3327 35.3332C20.1512 35.3296 17.101 34.0642 14.8513 31.8146C12.6016 29.5649 11.3362 26.5147 11.3327 23.3332ZM24.666 22.7812L30.7807 28.8958C31.7547 27.6079 32.3751 26.0876 32.5802 24.4859C32.7854 22.8842 32.5682 21.2567 31.9501 19.7648C31.3321 18.2729 30.3347 16.9686 29.057 15.9812C27.7792 14.9938 26.2655 14.3576 24.666 14.1358V22.7812ZM23.162 25.0478L16.418 29.5438C17.9545 31.2917 20.097 32.3915 22.4129 32.6211C24.7287 32.8508 27.0455 32.1932 28.8954 30.7812L23.162 25.0478ZM14.9327 27.3332L21.9993 22.6185V14.1358C20.5539 14.3367 19.1763 14.8763 17.9789 15.7107C16.7816 16.5451 15.7984 17.6507 15.1095 18.9372C14.4206 20.2238 14.0455 21.6549 14.0148 23.114C13.984 24.5731 14.2986 26.0187 14.9327 27.3332ZM44.666 32.6665C44.3124 32.6665 43.9733 32.807 43.7232 33.057C43.4732 33.3071 43.3327 33.6462 43.3327 33.9998V39.3332C43.3327 40.394 42.9113 41.4115 42.1611 42.1616C41.411 42.9117 40.3936 43.3332 39.3327 43.3332H33.9994C33.6457 43.3332 33.3066 43.4736 33.0565 43.7237C32.8065 43.9737 32.666 44.3129 32.666 44.6665C32.666 45.0201 32.8065 45.3593 33.0565 45.6093C33.3066 45.8594 33.6457 45.9998 33.9994 45.9998H39.3327C41.1008 45.9998 42.7965 45.2975 44.0467 44.0472C45.297 42.797 45.9994 41.1013 45.9994 39.3332V33.9998C45.9994 33.6462 45.8589 33.3071 45.6088 33.057C45.3588 32.807 45.0196 32.6665 44.666 32.6665ZM1.40202 25.1225C1.12701 24.5671 0.983931 23.9556 0.983931 23.3358C0.983931 22.716 1.12701 22.1046 1.40202 21.5492C1.99935 20.8345 6.81802 5.99984 23.3327 5.99984C39.8474 5.99984 44.666 20.8425 45.2634 21.5438C45.5396 22.0994 45.6833 22.7114 45.6833 23.3318C45.6833 23.9523 45.5396 24.5643 45.2634 25.1198C44.6794 25.8052 39.8474 40.6665 23.3327 40.6665C6.81802 40.6665 1.99935 25.8238 1.40202 25.1225ZM3.80202 23.9305C4.39935 24.6425 8.61268 37.9998 23.3327 37.9998C38.0527 37.9998 42.266 24.6425 42.8767 23.9305C42.9696 23.7451 43.018 23.5406 43.018 23.3332C43.018 23.1258 42.9696 22.9213 42.8767 22.7358C42.298 22.0478 38.0527 8.6665 23.3327 8.6665C8.61268 8.6665 4.39935 22.0238 3.78868 22.7358C3.69577 22.9213 3.64739 23.1258 3.64739 23.3332C3.64739 23.5406 3.69577 23.7451 3.78868 23.9305H3.80202ZM39.3327 0.666504H33.9994C33.6457 0.666504 33.3066 0.80698 33.0565 1.05703C32.8065 1.30708 32.666 1.64622 32.666 1.99984C32.666 2.35346 32.8065 2.6926 33.0565 2.94265C33.3066 3.19269 33.6457 3.33317 33.9994 3.33317H39.3327C40.3936 3.33317 41.411 3.7546 42.1611 4.50474C42.9113 5.25489 43.3327 6.27231 43.3327 7.33317V12.6665C43.3327 13.0201 43.4732 13.3593 43.7232 13.6093C43.9733 13.8594 44.3124 13.9998 44.666 13.9998C45.0196 13.9998 45.3588 13.8594 45.6088 13.6093C45.8589 13.3593 45.9994 13.0201 45.9994 12.6665V7.33317C45.9994 5.56506 45.297 3.86937 44.0467 2.61913C42.7965 1.36888 41.1008 0.666504 39.3327 0.666504Z" fill="url(#paint0_linear_646_3278)"/>
</g>
<defs>
<linearGradient id="paint0_linear_646_3278" x1="1.63997" y1="44.4887" x2="54.0509" y2="25.2836" gradientUnits="userSpaceOnUse">
<stop stop-color="#00E676"/>
<stop offset="0.79" stop-color="#6A0DAD"/>
</linearGradient>
<clipPath id="clip0_646_3278">
<rect width="46" height="46" fill="white"/>
</clipPath>
</defs>
</svg>
