<svg width="116" height="56" viewBox="0 0 116 56" fill="none" xmlns="http://www.w3.org/2000/svg">
<path d="M40.9128 2.27286C40.9133 1.87238 40.9176 1.57005 40.9141 1.26781C40.9044 0.431499 41.3449 0.029214 42.1519 0.0148743C43.0585 -0.00123695 43.9658 -0.00688433 44.8723 0.0113124C45.9153 0.0322527 46.2596 0.360336 46.2701 1.41421C46.2927 3.6644 46.2801 5.91493 46.2827 8.16531C46.2895 13.9089 46.2989 19.6524 46.3021 25.3959C46.3028 26.7525 46.1443 26.9058 44.806 26.919C44.2686 26.9243 43.7312 26.9214 43.1937 26.921C41.4651 26.9198 41.4651 26.9196 40.8216 25.4562C40.5499 25.3641 40.3774 25.5609 40.1939 25.6904C37.2431 27.7724 34.0951 27.9416 30.9744 26.2973C27.7426 24.5944 26.2055 21.696 26.0013 18.0826C25.8172 14.8254 26.7384 11.9691 29.2007 9.73443C31.931 7.25667 36.9345 6.29931 40.7928 9.22425C41.0326 6.87515 40.8606 4.61857 40.9128 2.27286ZM38.6574 12.9143C36.8261 12.0371 34.9957 11.9826 33.3361 13.2232C31.6902 14.4535 31.1456 16.2303 31.4119 18.2243C31.792 21.0704 34.3046 22.9922 36.8597 22.4656C38.9598 22.0327 40.3891 20.8198 40.8888 18.7308C41.4464 16.3995 40.7657 14.4366 38.6574 12.9143Z" fill="white"/>
<path d="M24.4628 36.1158C22.3491 34.5387 20.0503 33.8755 17.4938 34.155C17.1634 34.1911 16.8299 34.2605 16.5148 34.3655C15.5615 34.6831 14.7877 35.267 14.6984 36.31C14.6084 37.3613 15.4007 37.9065 16.2468 38.3315C17.6127 39.0178 19.1118 39.2726 20.5698 39.6566C21.8709 39.9994 23.1622 40.3714 24.3696 40.972C26.8315 42.1967 28.5528 43.9875 28.7516 46.8905C28.9827 50.2661 27.6502 52.8604 24.7243 54.5412C20.4761 56.9816 13.2133 56.1756 9.51719 52.9534C8.8291 52.3535 8.60462 51.7691 9.16168 50.9567C9.63553 50.2657 10.0091 49.5063 10.4762 48.8101C11.1698 47.7762 11.612 47.7048 12.5951 48.5072C14.6355 50.1728 16.9209 51.0492 19.5811 50.7824C20.0124 50.7391 20.4501 50.679 20.8637 50.5558C22.2264 50.1497 22.9424 49.3464 23.0169 48.2C23.0931 47.0282 22.5292 46.2998 21.0984 45.6875C19.7318 45.1026 18.2829 44.8047 16.8506 44.4497C15.3795 44.0852 13.9213 43.6679 12.6188 42.8772C10.1045 41.351 9.025 39.0392 9.23006 36.1589C9.46109 32.9137 11.1758 30.6371 14.2388 29.6304C18.6968 28.1652 22.9283 28.999 26.8687 31.4243C27.9671 32.1003 28.0054 32.5445 27.3333 33.6559C26.899 34.3743 26.4561 35.0875 26.0187 35.8039C25.6382 36.427 25.1625 36.6386 24.4628 36.1158Z" fill="white"/>
<path d="M68.5755 11.3232C72.0643 6.46401 79.0629 6.5046 82.729 9.48255C85.4095 11.6599 86.3341 14.5477 86.1813 17.8798C86.1403 18.7741 85.5968 19.0516 84.7587 19.0482C80.966 19.0327 77.1731 19.0438 73.3803 19.0534C73.0202 19.0543 72.6414 18.9586 72.3052 19.1737C72.2786 20.8379 73.7577 22.3612 75.7855 22.7426C77.9016 23.1405 79.8689 22.7097 81.6212 21.4946C82.4276 20.9355 82.9537 21.0429 83.607 21.716C85.6696 23.8415 85.6913 24.2829 83.0956 25.7319C79.1126 27.9554 74.9961 28.179 71.0594 25.7032C66.3577 22.7462 65.3093 16.3568 68.5755 11.3232ZM77.3665 15.2929C78.2397 15.2914 79.1134 15.2711 79.9859 15.2941C80.7762 15.3149 80.905 14.9897 80.6427 14.2976C80.0004 12.6023 78.5477 11.7262 76.3758 11.7773C74.5402 11.8204 72.936 12.9544 72.4094 14.526C72.1889 15.1839 72.5001 15.2947 73.0343 15.293C74.4113 15.2887 75.7882 15.2923 77.3665 15.2929Z" fill="white"/>
<path d="M79.9663 51.6992C78.8358 47.5684 80.9894 44.6411 85.5792 43.9266C87.6992 43.5967 89.8282 43.4573 91.9587 43.6135C92.1827 41.8986 91.071 40.7509 89.1814 40.6187C87.3521 40.4907 85.6408 40.9349 84.0424 41.7703C83.1083 42.2586 82.4704 42.1066 81.9494 41.2115C81.731 40.8361 81.4482 40.498 81.1941 40.1433C80.5373 39.2263 80.5676 38.5877 81.5184 38.0554C85.3013 35.9373 89.2779 35.284 93.4047 36.9183C96.2944 38.0626 97.3996 40.4568 97.4379 43.409C97.4841 46.9664 97.471 50.5248 97.4615 54.0828C97.4587 55.108 97.0886 55.4508 96.0462 55.4832C95.4091 55.503 94.7695 55.4548 94.1333 55.4849C93.089 55.5341 92.2636 55.2835 92.0418 53.9348C90.6861 54.9887 89.2907 55.6782 87.6849 55.8537C84.7075 56.1791 81.0701 55.1966 79.9663 51.6992ZM86.802 47.5425C86.3531 47.6863 85.9119 47.8427 85.5448 48.1574C84.6007 48.9669 84.5661 50.2846 85.5532 51.0365C86.8912 52.0556 88.3738 52.0002 89.8468 51.3588C91.2435 50.7507 92.1138 49.746 92.1646 48.1269C92.1885 47.3655 91.9938 47.0023 91.1602 47.0621C89.7547 47.1627 88.3483 47.2333 86.802 47.5425Z" fill="white"/>
<path d="M0.354806 25.5489C-0.305356 25.1282 0.130047 24.6455 0.278977 24.24C2.03618 19.4554 3.81912 14.6802 5.6023 9.90522C6.45874 7.61183 7.32893 5.32356 8.19506 3.0338C8.71779 1.65185 9.30346 1.21711 10.7392 1.20112C12.2493 1.18431 13.7597 1.19652 15.2699 1.1988C16.2891 1.20033 17.16 1.55349 17.5702 2.52224C18.5767 4.89946 19.5485 7.29275 20.3417 9.7527C20.3788 9.86769 20.3464 10.0051 20.3464 10.2011C19.4585 10.2011 18.5974 10.1941 17.7364 10.2036C17.1957 10.2095 16.5623 10.1799 16.4985 10.91C16.4413 11.5648 16.9398 11.8232 17.5197 11.9351C17.8446 11.9979 18.1646 12.0866 18.469 12.1593C18.6216 12.6205 18.2828 12.8083 18.0632 13.0321C16.7705 14.3495 15.4519 15.642 14.1743 16.9738C13.6706 17.499 13.3135 17.5421 12.7843 16.9741C11.1254 15.1936 11.0861 15.2253 9.33697 16.9481C6.63555 19.609 3.91563 22.2511 1.19861 24.8961C0.960399 25.128 0.68555 25.3222 0.354806 25.5489Z" fill="#00E676"/>
<path d="M68.1783 54.0645C64.2788 56.5996 59.614 56.6628 55.9911 54.1468C52.4566 51.6922 51.3882 48.1552 52.0469 44.0695C52.6707 40.1999 54.9632 37.6006 58.7207 36.5127C62.6071 35.3874 66.2348 36.0516 69.4043 38.6799C70.5688 39.6455 70.5571 40.1111 69.4261 41.0617C68.8607 41.5369 68.28 41.9951 67.7327 42.4903C66.9723 43.1782 66.3014 43.1546 65.5378 42.4397C64.1645 41.1539 62.5254 40.7291 60.6902 41.2212C58.1975 41.8897 57.1139 43.9572 57.2229 46.257C57.3525 48.9918 59.2177 50.8523 61.6525 51.0142C63.2319 51.1192 64.5369 50.5803 65.7123 49.5819C66.8292 48.6333 67.0683 48.6495 68.1888 49.632C68.719 50.097 69.2426 50.5696 69.7778 51.0287C70.4432 51.5994 70.3924 52.1795 69.7836 52.7332C69.2878 53.1842 68.7546 53.5943 68.1783 54.0645Z" fill="white"/>
<path d="M52.4948 21.1596C51.006 17.3357 49.5444 13.5847 48.0936 9.82967C47.5022 8.29898 47.7993 7.86126 49.4135 7.84715C50.2862 7.83951 51.1613 7.88475 52.0312 7.83469C52.9546 7.78154 53.4583 8.18795 53.7375 9.04439C54.8599 12.4877 56.0102 15.9218 57.1447 19.3612C57.2374 19.6422 57.2614 19.9497 57.518 20.1555C57.8256 20.0893 57.8002 19.8184 57.8694 19.6097C59.0526 16.0443 60.2475 12.4827 61.4077 8.90981C61.6379 8.20115 62.031 7.83371 62.7784 7.83962C63.8525 7.84813 64.9274 7.81982 66.0007 7.85142C67.0273 7.88165 67.3747 8.34552 67.0271 9.26647C64.9305 14.8212 62.8135 20.3682 60.7039 25.9179C60.4363 26.6218 59.9795 26.9827 59.1754 26.9459C58.07 26.8954 56.9589 26.8952 55.8533 26.9431C55.006 26.9798 54.561 26.5968 54.2843 25.8379C53.7213 24.2939 53.1149 22.7657 52.4948 21.1596Z" fill="white"/>
<path d="M115.426 11.4532C115.419 12.2669 114.92 12.4468 114.346 12.4696C113.51 12.5027 112.672 12.5101 111.837 12.4765C111.147 12.4488 110.909 12.7015 110.924 13.4095C110.972 15.724 110.942 18.0401 110.97 20.3552C110.991 22.0614 111.88 22.8646 113.547 22.4912C114.538 22.2692 114.909 22.617 115.141 23.4501C115.285 23.9662 115.473 24.4698 115.626 24.9836C115.95 26.0711 115.817 26.3601 114.764 26.7043C113.175 27.2239 111.544 27.3715 109.899 27.0585C107.502 26.6024 105.684 24.367 105.634 21.7542C105.582 19.037 105.586 16.3177 105.63 13.6004C105.644 12.714 105.389 12.4517 104.48 12.498C101.765 12.6364 101.763 12.5962 101.669 9.89301C101.606 8.09976 101.847 7.85368 103.637 7.84734C105.811 7.83964 105.6 8.06442 105.606 5.82143C105.608 5.18385 105.63 4.54524 105.602 3.90895C105.562 3.02563 105.947 2.59059 106.841 2.59989C107.781 2.60967 108.721 2.6157 109.66 2.59527C110.455 2.57796 110.86 2.97593 110.888 3.73353C110.926 4.73863 110.941 5.74661 110.909 6.75152C110.883 7.55224 111.153 7.93195 112.01 7.8674C112.777 7.80953 113.552 7.85395 114.324 7.84625C115.068 7.83883 115.445 8.18155 115.432 8.94455C115.419 9.74971 115.429 10.5552 115.426 11.4532Z" fill="white"/>
<path d="M17.4504 16.4186C18.2593 15.6305 18.9813 14.8473 19.8992 14.3145C20.5319 14.9219 19.9304 15.8525 20.5899 16.3176C21.3995 16.8884 21.7314 15.9948 22.1896 15.6558C22.6168 15.8472 22.6573 16.2082 22.7663 16.5094C23.7359 19.19 24.7082 21.8698 25.6511 24.5599C26.0973 25.8327 25.3745 26.8898 24.006 26.8944C17.0903 26.9181 10.1744 26.9086 3.25864 26.9071C3.06535 26.907 2.85177 26.9408 2.64844 26.6968C2.77928 26.1922 3.20934 25.849 3.56982 25.4891C5.8503 23.2129 8.15888 20.9649 10.4398 18.6891C10.962 18.1681 11.3954 18.1391 11.8521 18.7306C12.0161 18.943 12.1885 19.1495 12.3661 19.3506C13.0769 20.1556 13.6388 20.1991 14.4058 19.4558C15.418 18.4747 16.4031 17.4658 17.4504 16.4186Z" fill="white"/>
<path d="M105.345 34.9121C105.346 41.2194 105.349 47.4259 105.349 53.6324C105.349 55.122 105.109 55.3837 103.628 55.4599C103.025 55.4909 102.42 55.4765 101.816 55.4734C100.238 55.4653 99.9931 55.229 99.991 53.6768C99.9846 48.9465 99.9834 44.2161 99.9807 39.4857C99.9789 36.4664 99.974 33.447 99.9783 30.4276C99.9803 29.0298 100.205 28.8167 101.632 28.8078C102.404 28.8029 103.176 28.7928 103.947 28.8073C105.029 28.8275 105.331 29.1175 105.341 30.1817C105.356 31.7247 105.345 33.2681 105.345 34.9121Z" fill="white"/>
<path d="M47.9831 52.3854C43.7988 57.0457 36.4962 56.9212 32.6911 52.2137C32.0581 51.4305 32.0195 50.8896 32.8142 50.198C34.3072 48.8985 35.7414 47.5302 37.1729 46.162C37.7313 45.6283 38.1416 45.5889 38.6461 46.2404C39.1164 46.8477 39.6845 47.3816 40.2287 47.9289C41.1247 48.83 41.58 48.8257 42.5183 47.9429C44.5229 46.0569 46.5275 44.1707 48.5328 42.2853C48.7265 42.1032 48.8929 41.8809 49.1773 41.8252C50.7306 43.3062 51.0607 48.9412 47.9831 52.3854Z" fill="#9B5DC8"/>
<path d="M94.56 14.3217C93.9079 15.1445 93.6239 16.0156 93.6247 16.993C93.6269 19.7128 93.6239 22.4325 93.6092 25.1522C93.6008 26.716 93.3463 26.943 91.7889 26.9407C91.0513 26.9396 90.3135 27.0096 89.5761 27.0048C88.7453 26.9994 88.2762 26.6326 88.2777 25.7161C88.2874 20.1422 88.2799 14.5682 88.2617 8.99431C88.259 8.15834 88.6886 7.85437 89.4459 7.85051C90.2853 7.84624 91.1262 7.87617 91.9638 7.8352C92.9169 7.78858 93.3337 8.19719 93.2696 9.14791C93.248 9.46798 93.3105 9.79373 93.3512 10.3381C94.6223 8.95426 95.8873 7.92736 97.6259 7.74071C97.8925 7.7121 98.1577 7.66165 98.4248 7.64876C100.017 7.57194 100.327 7.86655 100.324 9.44075C100.323 10.0116 100.324 10.5825 100.312 11.1531C100.288 12.2938 100.019 12.5794 98.8725 12.5972C97.2375 12.6227 95.7416 12.9745 94.56 14.3217Z" fill="white"/>
<path d="M42.6974 44.8914C41.3151 46.2421 41.3153 46.2419 40.0196 44.9277C39.7605 44.6648 39.5004 44.4029 39.2385 44.143C38.024 42.9378 37.6978 42.9333 36.4157 44.1234C35.0143 45.4243 33.623 46.7363 32.2157 48.0308C31.8291 48.3863 31.4832 48.8136 30.8365 48.9893C30.1584 47.5376 30.0768 46.0012 30.308 44.4901C30.8999 40.6202 32.9952 37.8346 36.7551 36.6015C40.6435 35.3263 44.2409 36.0366 47.3442 38.7937C48.2499 39.5983 48.2433 39.7712 47.3402 40.6187C45.8238 42.0418 44.2801 43.4358 42.6974 44.8914Z" fill="#9B5DC8"/>
<path d="M77.6757 50.2316C77.6817 51.5417 77.7078 52.7512 77.6876 53.96C77.668 55.1281 77.3181 55.4722 76.1715 55.471C75.2656 55.47 74.3596 55.4266 73.454 55.3923C72.7137 55.3643 72.3665 54.9587 72.3665 54.2288C72.3661 48.6864 72.3655 43.144 72.3613 37.6016C72.3608 36.8496 72.7489 36.4824 73.4737 36.4705C74.4476 36.4544 75.4219 36.4699 76.3959 36.4638C77.127 36.4592 77.5214 36.8355 77.6094 37.5383C77.6551 37.9035 77.6703 38.2745 77.6708 38.6429C77.6757 42.4722 77.6748 46.3015 77.6757 50.2316Z" fill="white"/>
<path d="M71.7579 31.8592C71.8327 29.9818 72.6741 28.8913 74.2901 28.4873C75.5085 28.1826 77.118 28.9129 77.8111 30.085C78.7493 31.6716 78.1767 33.6818 76.5378 34.5552C74.8401 35.46 72.9341 34.8721 72.1086 33.1897C71.9157 32.7967 71.7536 32.3956 71.7579 31.8592Z" fill="white"/>
</svg>
