<svg width="91" height="44" viewBox="0 0 91 44" fill="none" xmlns="http://www.w3.org/2000/svg">
<path d="M32.1441 1.78581C32.1446 1.47114 32.1479 1.2336 32.1452 0.996126C32.1376 0.339033 32.4836 0.0229537 33.1177 0.0116869C33.83 -0.000971882 34.543 -0.00540908 35.2552 0.00888828C36.0747 0.0253412 36.3452 0.283119 36.3535 1.11116C36.3712 2.87915 36.3613 4.64741 36.3633 6.41556C36.3686 10.9283 36.3761 15.4411 36.3786 19.9538C36.3791 21.0197 36.2546 21.1402 35.203 21.1505C34.7808 21.1547 34.3586 21.1524 33.9363 21.1521C32.5781 21.1512 32.5781 21.151 32.0725 20.0012C31.859 19.9288 31.7235 20.0834 31.5793 20.1851C29.2608 21.821 26.7874 21.9539 24.3355 20.662C21.7962 19.324 20.5885 17.0467 20.428 14.2076C20.2834 11.6485 21.0072 9.40419 22.9419 7.64843C25.0871 5.70163 29.0184 4.94942 32.0499 7.24758C32.2383 5.40186 32.1031 3.62885 32.1441 1.78581ZM30.3721 10.1469C28.9332 9.45763 27.495 9.41485 26.1911 10.3895C24.8979 11.3562 24.47 12.7523 24.6792 14.319C24.9778 16.5552 26.952 18.0652 28.9596 17.6514C30.6097 17.3113 31.7327 16.3583 32.1253 14.717C32.5634 12.8852 32.0286 11.343 30.3721 10.1469Z" fill="black"/>
<path d="M19.2221 28.3764C17.5613 27.1373 15.7552 26.6162 13.7465 26.8358C13.4868 26.8642 13.2249 26.9187 12.9773 27.0012C12.2282 27.2508 11.6202 27.7096 11.5501 28.529C11.4794 29.3551 12.1019 29.7834 12.7667 30.1174C13.8399 30.6565 15.0177 30.8568 16.1633 31.1585C17.1856 31.4278 18.2002 31.7201 19.1488 32.192C21.0832 33.1542 22.4356 34.5613 22.5918 36.8422C22.7734 39.4945 21.7265 41.5328 19.4276 42.8534C16.0897 44.7709 10.3832 44.1376 7.47919 41.6059C6.93854 41.1345 6.76217 40.6754 7.19986 40.0371C7.57217 39.4941 7.86568 38.8975 8.23265 38.3505C8.77764 37.5381 9.12513 37.482 9.89749 38.1125C11.5007 39.4211 13.2963 40.1098 15.3865 39.9001C15.7253 39.8661 16.0692 39.8189 16.3942 39.722C17.4649 39.403 18.0275 38.7719 18.086 37.8711C18.1459 36.9504 17.7028 36.3781 16.5787 35.897C15.5049 35.4374 14.3665 35.2034 13.2411 34.9245C12.0853 34.638 10.9396 34.3102 9.91617 33.6889C7.9406 32.4897 7.09247 30.6734 7.25358 28.4103C7.43511 25.8605 8.7824 24.0718 11.189 23.2808C14.6917 22.1296 18.0164 22.7847 21.1125 24.6902C21.9754 25.2214 22.0055 25.5704 21.4775 26.4437C21.1362 27.0081 20.7883 27.5685 20.4445 28.1314C20.1456 28.6209 19.7718 28.7872 19.2221 28.3764Z" fill="black"/>
<path d="M53.8791 8.89674C56.6202 5.07883 62.1191 5.11072 64.9996 7.45053C67.1057 9.16127 67.8321 11.4303 67.7121 14.0484C67.6799 14.751 67.2529 14.969 66.5944 14.9663C63.6144 14.9542 60.6343 14.9629 57.6543 14.9704C57.3713 14.9711 57.0737 14.896 56.8096 15.0649C56.7886 16.3725 57.9508 17.5694 59.544 17.869C61.2067 18.1817 62.7524 17.8432 64.1292 16.8885C64.7628 16.4492 65.1762 16.5336 65.6894 17.0625C67.31 18.7325 67.3271 19.0793 65.2876 20.2178C62.1581 21.9648 58.9238 22.1405 55.8307 20.1952C52.1366 17.8719 51.3128 12.8517 53.8791 8.89674ZM60.7862 12.0158C61.4723 12.0146 62.1588 11.9987 62.8443 12.0167C63.4653 12.0331 63.5664 11.7776 63.3604 11.2337C62.8557 9.90176 61.7143 9.21341 60.0078 9.25352C58.5655 9.28742 57.3052 10.1784 56.8914 11.4132C56.7182 11.9301 56.9626 12.0172 57.3824 12.0159C58.4643 12.0124 59.5462 12.0153 60.7862 12.0158Z" fill="black"/>
<path d="M62.8305 40.6206C61.9423 37.375 63.6344 35.075 67.2406 34.5136C68.9063 34.2544 70.5791 34.1449 72.253 34.2676C72.429 32.9202 71.5556 32.0184 70.0709 31.9146C68.6336 31.814 67.289 32.163 66.0332 32.8194C65.2992 33.203 64.798 33.0836 64.3887 32.3803C64.217 32.0853 63.9949 31.8197 63.7953 31.541C63.2791 30.8205 63.303 30.3188 64.05 29.9006C67.0223 28.2364 70.1467 27.7231 73.3892 29.0071C75.6596 29.9063 76.528 31.7874 76.5581 34.1069C76.5944 36.902 76.5841 39.6979 76.5766 42.4934C76.5745 43.2989 76.2837 43.5682 75.4646 43.5937C74.9641 43.6093 74.4616 43.5714 73.9617 43.595C73.1412 43.6338 72.4926 43.4368 72.3184 42.3771C71.2532 43.2052 70.1568 43.747 68.8951 43.8849C66.5557 44.1405 63.6978 43.3686 62.8305 40.6206ZM68.2014 37.3547C67.8487 37.4677 67.502 37.5905 67.2136 37.8378C66.4718 38.4738 66.4446 39.5091 67.2202 40.0999C68.2715 40.9007 69.4363 40.8571 70.5937 40.3532C71.6911 39.8754 72.3749 39.0859 72.4148 37.8139C72.4336 37.2156 72.2807 36.9302 71.6256 36.9772C70.5214 37.0563 69.4163 37.1117 68.2014 37.3547Z" fill="black"/>
<path d="M0.278774 20.0738C-0.239921 19.7432 0.102179 19.364 0.219195 19.0454C1.59984 15.2861 3.00072 11.5342 4.40178 7.78239C5.07469 5.98046 5.75841 4.18255 6.43893 2.38346C6.84964 1.29765 7.30981 0.956074 8.43789 0.943512C9.62436 0.930302 10.8111 0.939896 11.9977 0.941685C12.7985 0.942888 13.4828 1.22037 13.805 1.98153C14.5959 3.84933 15.3594 5.72976 15.9826 7.66256C16.0118 7.75291 15.9864 7.86085 15.9864 8.01484C15.2887 8.01484 14.6121 8.00941 13.9357 8.01681C13.5108 8.02145 13.0132 7.9982 12.963 8.57187C12.9181 9.08634 13.3098 9.28936 13.7654 9.37733C14.0207 9.42663 14.2721 9.4963 14.5113 9.55345C14.6311 9.91583 14.365 10.0634 14.1925 10.2392C13.1767 11.2743 12.1407 12.2898 11.1369 13.3363C10.7411 13.7489 10.4605 13.7828 10.0447 13.3365C8.7413 11.9375 8.71041 11.9624 7.33614 13.316C5.21361 15.4067 3.07655 17.4827 0.941757 19.5609C0.754594 19.7431 0.538643 19.8957 0.278774 20.0738Z" fill="#00E676"/>
<path d="M53.5689 42.479C50.505 44.4709 46.8398 44.5206 43.9933 42.5437C41.2161 40.6151 40.3767 37.8361 40.8942 34.6259C41.3844 31.5855 43.1856 29.5432 46.138 28.6884C49.1915 27.8043 52.0418 28.3262 54.5321 30.3912C55.4471 31.1499 55.4379 31.5157 54.5492 32.2626C54.105 32.636 53.6487 32.996 53.2187 33.3851C52.6213 33.9256 52.0942 33.907 51.4942 33.3453C50.4151 32.3351 49.1273 32.0013 47.6854 32.388C45.7268 32.9132 44.8754 34.5376 44.9611 36.3447C45.063 38.4934 46.5285 39.9552 48.4415 40.0824C49.6824 40.1649 50.7078 39.7415 51.6313 38.9571C52.5088 38.2117 52.6967 38.2245 53.5771 38.9964C53.9937 39.3617 54.4051 39.7331 54.8256 40.0938C55.3484 40.5422 55.3085 40.998 54.8302 41.433C54.4406 41.7874 54.0216 42.1096 53.5689 42.479Z" fill="black"/>
<path d="M41.2453 16.6252C40.0755 13.6207 38.9272 10.6736 37.7872 7.72319C37.3226 6.52052 37.5561 6.1766 38.8243 6.16551C39.51 6.15951 40.1976 6.19505 40.8811 6.15572C41.6066 6.11396 42.0024 6.43328 42.2217 7.10619C43.1036 9.81161 44.0074 12.5099 44.8988 15.2122C44.9716 15.433 44.9905 15.6746 45.1921 15.8363C45.4338 15.7843 45.4138 15.5714 45.4682 15.4075C46.3978 12.6061 47.3367 9.80771 48.2483 7.00045C48.4291 6.44365 48.738 6.15496 49.3252 6.1596C50.1692 6.16628 51.0138 6.14404 51.857 6.16887C52.6637 6.19262 52.9366 6.55709 52.6635 7.28069C51.0162 11.6451 49.3528 16.0034 47.6953 20.3639C47.485 20.917 47.1261 21.2005 46.4944 21.1716C45.6258 21.1319 44.7528 21.1317 43.8841 21.1694C43.2184 21.1982 42.8688 20.8973 42.6514 20.301C42.209 19.0879 41.7326 17.8872 41.2453 16.6252Z" fill="black"/>
<path d="M90.6907 8.99896C90.6857 9.63837 90.2933 9.77965 89.8421 9.79757C89.1859 9.82361 88.5272 9.8294 87.8711 9.80304C87.3293 9.78127 87.1419 9.9798 87.1534 10.5361C87.1914 12.3546 87.1675 14.1744 87.1897 15.9934C87.2061 17.3339 87.9049 17.9651 89.2146 17.6716C89.993 17.4972 90.2847 17.7705 90.4671 18.4251C90.5801 18.8306 90.728 19.2263 90.8483 19.6299C91.103 20.4844 90.9978 20.7115 90.1707 20.9819C88.9221 21.3902 87.6407 21.5061 86.3486 21.2602C84.4654 20.9019 83.0364 19.1455 82.9974 17.0925C82.9568 14.9577 82.9597 12.8211 82.9941 10.6861C83.0053 9.98959 82.8044 9.7835 82.0909 9.81987C79.9571 9.92864 79.9555 9.89708 79.8817 7.77314C79.8328 6.36417 80.0221 6.17082 81.4281 6.16584C83.136 6.15979 82.9709 6.33641 82.9753 4.57407C82.9766 4.07312 82.9942 3.57136 82.9719 3.07142C82.941 2.37738 83.2435 2.03557 83.9459 2.04287C84.6841 2.05056 85.4227 2.0553 86.1606 2.03924C86.7854 2.02565 87.1038 2.33833 87.1258 2.93358C87.1549 3.7233 87.1672 4.51528 87.1418 5.30485C87.1217 5.93398 87.3337 6.23232 88.0066 6.1816C88.6098 6.13614 89.2188 6.17104 89.8251 6.16499C90.4096 6.15915 90.7056 6.42843 90.6958 7.02793C90.6855 7.66056 90.693 8.29346 90.6907 8.99896Z" fill="black"/>
<path d="M13.7101 12.9006C14.3457 12.2813 14.913 11.666 15.6342 11.2473C16.1313 11.7246 15.6587 12.4558 16.1769 12.8212C16.8129 13.2697 17.0737 12.5675 17.4338 12.3012C17.7694 12.4516 17.8012 12.7352 17.8868 12.9719C18.6487 15.0781 19.4127 17.1836 20.1535 19.2972C20.504 20.2973 19.9361 21.1278 18.8609 21.1315C13.4272 21.1501 7.99333 21.1426 2.55952 21.1414C2.40765 21.1414 2.23984 21.1679 2.08008 20.9762C2.18289 20.5798 2.52078 20.3101 2.80402 20.0274C4.59581 18.2389 6.40968 16.4726 8.20183 14.6845C8.61213 14.2752 8.95262 14.2524 9.31146 14.7171C9.4403 14.884 9.5758 15.0462 9.71537 15.2043C10.2738 15.8367 10.7153 15.8709 11.3179 15.2869C12.1132 14.5161 12.8873 13.7234 13.7101 12.9006Z" fill="black"/>
<path d="M82.7687 27.4308C82.77 32.3865 82.7719 37.263 82.772 42.1395C82.7721 43.3099 82.5834 43.5155 81.4195 43.5754C80.9462 43.5998 80.4708 43.5884 79.9964 43.586C78.7559 43.5796 78.5638 43.3939 78.5621 42.1744C78.5571 38.4577 78.5562 34.741 78.554 31.0243C78.5526 28.652 78.5488 26.2796 78.5521 23.9073C78.5537 22.809 78.73 22.6416 79.8515 22.6346C80.4578 22.6308 81.0642 22.6228 81.6703 22.6341C82.5205 22.65 82.7575 22.8779 82.7656 23.714C82.7774 24.9264 82.7687 26.1391 82.7687 27.4308Z" fill="black"/>
<path d="M37.7002 41.1594C34.4126 44.821 28.6749 44.7232 25.6852 41.0245C25.1878 40.4092 25.1575 39.9842 25.7819 39.4407C26.9549 38.4197 28.0818 37.3446 29.2066 36.2696C29.6453 35.8503 29.9677 35.8193 30.3641 36.3313C30.7335 36.8084 31.1799 37.2279 31.6075 37.6579C32.3115 38.3659 32.6692 38.3625 33.4065 37.6689C34.9815 36.187 36.5565 34.7051 38.1321 33.2237C38.2843 33.0806 38.4151 32.906 38.6386 32.8622C39.859 34.0258 40.1183 38.4533 37.7002 41.1594Z" fill="#6A0DAD"/>
<path d="M74.2982 11.2531C73.7859 11.8995 73.5627 12.5839 73.5633 13.3519C73.565 15.4888 73.5627 17.6258 73.5512 19.7627C73.5446 20.9913 73.3446 21.1697 72.1209 21.1679C71.5414 21.167 70.9617 21.2221 70.3823 21.2183C69.7296 21.214 69.3609 20.9258 69.3622 20.2057C69.3698 15.8262 69.3639 11.4467 69.3496 7.06724C69.3475 6.41042 69.685 6.17158 70.28 6.16855C70.9395 6.16519 71.6003 6.18871 72.2583 6.15652C73.0072 6.11989 73.3347 6.44094 73.2843 7.18793C73.2674 7.43941 73.3165 7.69536 73.3484 8.1231C74.3471 7.03578 75.3411 6.22894 76.7072 6.08228C76.9166 6.05981 77.1249 6.02017 77.3348 6.01004C78.5856 5.94968 78.829 6.18115 78.8269 7.41802C78.8261 7.86651 78.8274 8.31512 78.8177 8.76346C78.7984 9.65972 78.5875 9.88405 77.6866 9.89808C76.4019 9.91808 75.2266 10.1945 74.2982 11.2531Z" fill="black"/>
<path d="M33.5487 35.2722C32.4626 36.3334 32.4628 36.3333 31.4448 35.3007C31.2412 35.0942 31.0369 34.8884 30.831 34.6841C29.8768 33.7373 29.6205 33.7337 28.6131 34.6688C27.512 35.6909 26.4189 36.7217 25.3132 37.7388C25.0094 38.0182 24.7376 38.3539 24.2295 38.492C23.6967 37.3513 23.6326 36.1442 23.8142 34.9569C24.2794 31.9163 25.9256 29.7276 28.8798 28.7588C31.935 27.7568 34.7615 28.3149 37.1998 30.4812C37.9114 31.1134 37.9062 31.2493 37.1966 31.9151C36.0051 33.0332 34.7922 34.1286 33.5487 35.2722Z" fill="#6A0DAD"/>
<path d="M61.031 39.4679C61.0357 40.4972 61.0562 41.4475 61.0404 42.3973C61.025 43.315 60.7501 43.5854 59.8491 43.5845C59.1374 43.5837 58.4255 43.5496 57.714 43.5227C57.1323 43.5007 56.8596 43.182 56.8595 42.6085C56.8592 38.2538 56.8588 33.899 56.8555 29.5443C56.855 28.9535 57.16 28.665 57.7295 28.6556C58.4946 28.643 59.2602 28.6551 60.0255 28.6503C60.5999 28.6467 60.9098 28.9424 60.9789 29.4946C61.0148 29.7815 61.0268 30.0731 61.0271 30.3625C61.031 33.3713 61.0303 36.38 61.031 39.4679Z" fill="black"/>
<path d="M56.3809 25.0321C56.4397 23.557 57.1008 22.7002 58.3705 22.3827C59.3278 22.1433 60.5924 22.7171 61.137 23.638C61.8741 24.8846 61.4242 26.4641 60.1366 27.1503C58.8026 27.8612 57.3051 27.3993 56.6565 26.0774C56.5049 25.7687 56.3776 25.4535 56.3809 25.0321Z" fill="black"/>
</svg>
